<?xml version="1.0" encoding="utf-8" standalone="no"?>
<!DOCTYPE svg PUBLIC "-//W3C//DTD SVG 1.1//EN"
  "http://www.w3.org/Graphics/SVG/1.1/DTD/svg11.dtd">
<svg xmlns:xlink="http://www.w3.org/1999/xlink" width="1000.8pt" height="625.68pt" viewBox="0 0 1000.8 625.68" xmlns="http://www.w3.org/2000/svg" version="1.1">
 <metadata>
  <rdf:RDF xmlns:dc="http://purl.org/dc/elements/1.1/" xmlns:cc="http://creativecommons.org/ns#" xmlns:rdf="http://www.w3.org/1999/02/22-rdf-syntax-ns#">
   <cc:Work>
    <dc:type rdf:resource="http://purl.org/dc/dcmitype/StillImage"/>
    <dc:date>2026-03-30T12:39:34.666583</dc:date>
    <dc:format>image/svg+xml</dc:format>
    <dc:creator>
     <cc:Agent>
      <dc:title>Matplotlib v3.10.8, https://matplotlib.org/</dc:title>
     </cc:Agent>
    </dc:creator>
   </cc:Work>
  </rdf:RDF>
 </metadata>
 <defs>
  <style type="text/css">*{stroke-linejoin: round; stroke-linecap: butt}</style>
 </defs>
 <g id="figure_1">
  <g id="patch_1">
   <path d="M 0 625.68 
L 1000.8 625.68 
L 1000.8 0 
L 0 0 
z
" style="fill: #ffffff"/>
  </g>
  <g id="axes_1">
   <g id="patch_2">
    <path d="M 21.291429 266.840388 
L 274.937143 266.840388 
Q 285.505714 266.840388 285.505714 258.787573 
L 285.505714 140.679612 
Q 285.505714 132.626796 274.937143 132.626796 
L 21.291429 132.626796 
Q 10.722857 132.626796 10.722857 140.679612 
L 10.722857 258.787573 
Q 10.722857 266.840388 21.291429 266.840388 
z
" clip-path="url(#p59f245790c)" style="fill: #e8f4e8; stroke: #2d8a2d; stroke-width: 2.5; stroke-linejoin: miter"/>
   </g>
   <g id="patch_3">
    <path d="M 338.348571 266.840388 
L 591.994286 266.840388 
Q 602.562857 266.840388 602.562857 258.787573 
L 602.562857 140.679612 
Q 602.562857 132.626796 591.994286 132.626796 
L 338.348571 132.626796 
Q 327.78 132.626796 327.78 140.679612 
L 327.78 258.787573 
Q 327.78 266.840388 338.348571 266.840388 
z
" clip-path="url(#p59f245790c)" style="fill: #e0e0f5; stroke: #3333aa; stroke-width: 2.5; stroke-linejoin: miter"/>
   </g>
   <g id="patch_4">
    <path d="M 655.405714 266.840388 
L 909.051429 266.840388 
Q 919.62 266.840388 919.62 258.787573 
L 919.62 140.679612 
Q 919.62 132.626796 909.051429 132.626796 
L 655.405714 132.626796 
Q 644.837143 132.626796 644.837143 140.679612 
L 644.837143 258.787573 
Q 644.837143 266.840388 655.405714 266.840388 
z
" clip-path="url(#p59f245790c)" style="fill: #f5e0e0; stroke: #aa3333; stroke-width: 2.5; stroke-linejoin: miter"/>
   </g>
   <g id="patch_5">
    <path d="M 338.348571 524.530485 
L 591.994286 524.530485 
Q 602.562857 524.530485 602.562857 516.47767 
L 602.562857 398.369709 
Q 602.562857 390.316893 591.994286 390.316893 
L 338.348571 390.316893 
Q 327.78 390.316893 327.78 398.369709 
L 327.78 516.47767 
Q 327.78 524.530485 338.348571 524.530485 
z
" clip-path="url(#p59f245790c)" style="fill: #f5ecd8; stroke: #bb7700; stroke-width: 2.5; stroke-linejoin: miter"/>
   </g>
   <g id="text_1">
    <!-- Microcanonical (NVE) -->
    <g style="fill: #2d8a2d" transform="translate(73.122098 162.918733) scale(0.125 -0.125)">
     <defs>
      <path id="DejaVuSans-Bold-4d" d="M 588 4666 
L 2119 4666 
L 3181 2169 
L 4250 4666 
L 5778 4666 
L 5778 0 
L 4641 0 
L 4641 3413 
L 3566 897 
L 2803 897 
L 1728 3413 
L 1728 0 
L 588 0 
L 588 4666 
z
" transform="scale(0.015625)"/>
      <path id="DejaVuSans-Bold-69" d="M 538 3500 
L 1656 3500 
L 1656 0 
L 538 0 
L 538 3500 
z
M 538 4863 
L 1656 4863 
L 1656 3950 
L 538 3950 
L 538 4863 
z
" transform="scale(0.015625)"/>
      <path id="DejaVuSans-Bold-63" d="M 3366 3391 
L 3366 2478 
Q 3138 2634 2908 2709 
Q 2678 2784 2431 2784 
Q 1963 2784 1702 2511 
Q 1441 2238 1441 1747 
Q 1441 1256 1702 982 
Q 1963 709 2431 709 
Q 2694 709 2930 787 
Q 3166 866 3366 1019 
L 3366 103 
Q 3103 6 2833 -42 
Q 2563 -91 2291 -91 
Q 1344 -91 809 395 
Q 275 881 275 1747 
Q 275 2613 809 3098 
Q 1344 3584 2291 3584 
Q 2566 3584 2833 3536 
Q 3100 3488 3366 3391 
z
" transform="scale(0.015625)"/>
      <path id="DejaVuSans-Bold-72" d="M 3138 2547 
Q 2991 2616 2845 2648 
Q 2700 2681 2553 2681 
Q 2122 2681 1889 2404 
Q 1656 2128 1656 1613 
L 1656 0 
L 538 0 
L 538 3500 
L 1656 3500 
L 1656 2925 
Q 1872 3269 2151 3426 
Q 2431 3584 2822 3584 
Q 2878 3584 2943 3579 
Q 3009 3575 3134 3559 
L 3138 2547 
z
" transform="scale(0.015625)"/>
      <path id="DejaVuSans-Bold-6f" d="M 2203 2784 
Q 1831 2784 1636 2517 
Q 1441 2250 1441 1747 
Q 1441 1244 1636 976 
Q 1831 709 2203 709 
Q 2569 709 2762 976 
Q 2956 1244 2956 1747 
Q 2956 2250 2762 2517 
Q 2569 2784 2203 2784 
z
M 2203 3584 
Q 3106 3584 3614 3096 
Q 4122 2609 4122 1747 
Q 4122 884 3614 396 
Q 3106 -91 2203 -91 
Q 1297 -91 786 396 
Q 275 884 275 1747 
Q 275 2609 786 3096 
Q 1297 3584 2203 3584 
z
" transform="scale(0.015625)"/>
      <path id="DejaVuSans-Bold-61" d="M 2106 1575 
Q 1756 1575 1579 1456 
Q 1403 1338 1403 1106 
Q 1403 894 1545 773 
Q 1688 653 1941 653 
Q 2256 653 2472 879 
Q 2688 1106 2688 1447 
L 2688 1575 
L 2106 1575 
z
M 3816 1997 
L 3816 0 
L 2688 0 
L 2688 519 
Q 2463 200 2181 54 
Q 1900 -91 1497 -91 
Q 953 -91 614 226 
Q 275 544 275 1050 
Q 275 1666 698 1953 
Q 1122 2241 2028 2241 
L 2688 2241 
L 2688 2328 
Q 2688 2594 2478 2717 
Q 2269 2841 1825 2841 
Q 1466 2841 1156 2769 
Q 847 2697 581 2553 
L 581 3406 
Q 941 3494 1303 3539 
Q 1666 3584 2028 3584 
Q 2975 3584 3395 3211 
Q 3816 2838 3816 1997 
z
" transform="scale(0.015625)"/>
      <path id="DejaVuSans-Bold-6e" d="M 4056 2131 
L 4056 0 
L 2931 0 
L 2931 347 
L 2931 1631 
Q 2931 2084 2911 2256 
Q 2891 2428 2841 2509 
Q 2775 2619 2662 2680 
Q 2550 2741 2406 2741 
Q 2056 2741 1856 2470 
Q 1656 2200 1656 1722 
L 1656 0 
L 538 0 
L 538 3500 
L 1656 3500 
L 1656 2988 
Q 1909 3294 2193 3439 
Q 2478 3584 2822 3584 
Q 3428 3584 3742 3212 
Q 4056 2841 4056 2131 
z
" transform="scale(0.015625)"/>
      <path id="DejaVuSans-Bold-6c" d="M 538 4863 
L 1656 4863 
L 1656 0 
L 538 0 
L 538 4863 
z
" transform="scale(0.015625)"/>
      <path id="DejaVuSans-Bold-20" transform="scale(0.015625)"/>
      <path id="DejaVuSans-Bold-28" d="M 2413 -844 
L 1484 -844 
Q 1006 -72 778 623 
Q 550 1319 550 2003 
Q 550 2688 779 3389 
Q 1009 4091 1484 4856 
L 2413 4856 
Q 2013 4116 1813 3408 
Q 1613 2700 1613 2009 
Q 1613 1319 1811 609 
Q 2009 -100 2413 -844 
z
" transform="scale(0.015625)"/>
      <path id="DejaVuSans-Bold-4e" d="M 588 4666 
L 1931 4666 
L 3628 1466 
L 3628 4666 
L 4769 4666 
L 4769 0 
L 3425 0 
L 1728 3200 
L 1728 0 
L 588 0 
L 588 4666 
z
" transform="scale(0.015625)"/>
      <path id="DejaVuSans-Bold-56" d="M 31 4666 
L 1241 4666 
L 2478 1222 
L 3713 4666 
L 4922 4666 
L 3194 0 
L 1759 0 
L 31 4666 
z
" transform="scale(0.015625)"/>
      <path id="DejaVuSans-Bold-45" d="M 588 4666 
L 3834 4666 
L 3834 3756 
L 1791 3756 
L 1791 2888 
L 3713 2888 
L 3713 1978 
L 1791 1978 
L 1791 909 
L 3903 909 
L 3903 0 
L 588 0 
L 588 4666 
z
" transform="scale(0.015625)"/>
      <path id="DejaVuSans-Bold-29" d="M 513 -844 
Q 913 -100 1113 609 
Q 1313 1319 1313 2009 
Q 1313 2700 1113 3408 
Q 913 4116 513 4856 
L 1441 4856 
Q 1916 4091 2145 3389 
Q 2375 2688 2375 2003 
Q 2375 1319 2147 623 
Q 1919 -72 1441 -844 
L 513 -844 
z
" transform="scale(0.015625)"/>
     </defs>
     <use xlink:href="#DejaVuSans-Bold-4d"/>
     <use xlink:href="#DejaVuSans-Bold-69" transform="translate(99.511719 0)"/>
     <use xlink:href="#DejaVuSans-Bold-63" transform="translate(133.789062 0)"/>
     <use xlink:href="#DejaVuSans-Bold-72" transform="translate(193.066406 0)"/>
     <use xlink:href="#DejaVuSans-Bold-6f" transform="translate(242.382812 0)"/>
     <use xlink:href="#DejaVuSans-Bold-63" transform="translate(311.083984 0)"/>
     <use xlink:href="#DejaVuSans-Bold-61" transform="translate(370.361328 0)"/>
     <use xlink:href="#DejaVuSans-Bold-6e" transform="translate(437.841797 0)"/>
     <use xlink:href="#DejaVuSans-Bold-6f" transform="translate(509.033203 0)"/>
     <use xlink:href="#DejaVuSans-Bold-6e" transform="translate(577.734375 0)"/>
     <use xlink:href="#DejaVuSans-Bold-69" transform="translate(648.925781 0)"/>
     <use xlink:href="#DejaVuSans-Bold-63" transform="translate(683.203125 0)"/>
     <use xlink:href="#DejaVuSans-Bold-61" transform="translate(742.480469 0)"/>
     <use xlink:href="#DejaVuSans-Bold-6c" transform="translate(809.960938 0)"/>
     <use xlink:href="#DejaVuSans-Bold-20" transform="translate(844.238281 0)"/>
     <use xlink:href="#DejaVuSans-Bold-28" transform="translate(879.052734 0)"/>
     <use xlink:href="#DejaVuSans-Bold-4e" transform="translate(924.755859 0)"/>
     <use xlink:href="#DejaVuSans-Bold-56" transform="translate(1008.447266 0)"/>
     <use xlink:href="#DejaVuSans-Bold-45" transform="translate(1085.839844 0)"/>
     <use xlink:href="#DejaVuSans-Bold-29" transform="translate(1154.150391 0)"/>
    </g>
   </g>
   <g id="text_2">
    <!-- Fixed: N, V, E -->
    <g style="fill: #333333" transform="translate(115.208036 184.776773) scale(0.1 -0.1)">
     <defs>
      <path id="DejaVuSans-46" d="M 628 4666 
L 3309 4666 
L 3309 4134 
L 1259 4134 
L 1259 2759 
L 3109 2759 
L 3109 2228 
L 1259 2228 
L 1259 0 
L 628 0 
L 628 4666 
z
" transform="scale(0.015625)"/>
      <path id="DejaVuSans-69" d="M 603 3500 
L 1178 3500 
L 1178 0 
L 603 0 
L 603 3500 
z
M 603 4863 
L 1178 4863 
L 1178 4134 
L 603 4134 
L 603 4863 
z
" transform="scale(0.015625)"/>
      <path id="DejaVuSans-78" d="M 3513 3500 
L 2247 1797 
L 3578 0 
L 2900 0 
L 1881 1375 
L 863 0 
L 184 0 
L 1544 1831 
L 300 3500 
L 978 3500 
L 1906 2253 
L 2834 3500 
L 3513 3500 
z
" transform="scale(0.015625)"/>
      <path id="DejaVuSans-65" d="M 3597 1894 
L 3597 1613 
L 953 1613 
Q 991 1019 1311 708 
Q 1631 397 2203 397 
Q 2534 397 2845 478 
Q 3156 559 3463 722 
L 3463 178 
Q 3153 47 2828 -22 
Q 2503 -91 2169 -91 
Q 1331 -91 842 396 
Q 353 884 353 1716 
Q 353 2575 817 3079 
Q 1281 3584 2069 3584 
Q 2775 3584 3186 3129 
Q 3597 2675 3597 1894 
z
M 3022 2063 
Q 3016 2534 2758 2815 
Q 2500 3097 2075 3097 
Q 1594 3097 1305 2825 
Q 1016 2553 972 2059 
L 3022 2063 
z
" transform="scale(0.015625)"/>
      <path id="DejaVuSans-64" d="M 2906 2969 
L 2906 4863 
L 3481 4863 
L 3481 0 
L 2906 0 
L 2906 525 
Q 2725 213 2448 61 
Q 2172 -91 1784 -91 
Q 1150 -91 751 415 
Q 353 922 353 1747 
Q 353 2572 751 3078 
Q 1150 3584 1784 3584 
Q 2172 3584 2448 3432 
Q 2725 3281 2906 2969 
z
M 947 1747 
Q 947 1113 1208 752 
Q 1469 391 1925 391 
Q 2381 391 2643 752 
Q 2906 1113 2906 1747 
Q 2906 2381 2643 2742 
Q 2381 3103 1925 3103 
Q 1469 3103 1208 2742 
Q 947 2381 947 1747 
z
" transform="scale(0.015625)"/>
      <path id="DejaVuSans-3a" d="M 750 794 
L 1409 794 
L 1409 0 
L 750 0 
L 750 794 
z
M 750 3309 
L 1409 3309 
L 1409 2516 
L 750 2516 
L 750 3309 
z
" transform="scale(0.015625)"/>
      <path id="DejaVuSans-20" transform="scale(0.015625)"/>
      <path id="DejaVuSans-4e" d="M 628 4666 
L 1478 4666 
L 3547 763 
L 3547 4666 
L 4159 4666 
L 4159 0 
L 3309 0 
L 1241 3903 
L 1241 0 
L 628 0 
L 628 4666 
z
" transform="scale(0.015625)"/>
      <path id="DejaVuSans-2c" d="M 750 794 
L 1409 794 
L 1409 256 
L 897 -744 
L 494 -744 
L 750 256 
L 750 794 
z
" transform="scale(0.015625)"/>
      <path id="DejaVuSans-56" d="M 1831 0 
L 50 4666 
L 709 4666 
L 2188 738 
L 3669 4666 
L 4325 4666 
L 2547 0 
L 1831 0 
z
" transform="scale(0.015625)"/>
      <path id="DejaVuSans-45" d="M 628 4666 
L 3578 4666 
L 3578 4134 
L 1259 4134 
L 1259 2753 
L 3481 2753 
L 3481 2222 
L 1259 2222 
L 1259 531 
L 3634 531 
L 3634 0 
L 628 0 
L 628 4666 
z
" transform="scale(0.015625)"/>
     </defs>
     <use xlink:href="#DejaVuSans-46"/>
     <use xlink:href="#DejaVuSans-69" transform="translate(50.269531 0)"/>
     <use xlink:href="#DejaVuSans-78" transform="translate(78.052734 0)"/>
     <use xlink:href="#DejaVuSans-65" transform="translate(134.107422 0)"/>
     <use xlink:href="#DejaVuSans-64" transform="translate(195.630859 0)"/>
     <use xlink:href="#DejaVuSans-3a" transform="translate(259.107422 0)"/>
     <use xlink:href="#DejaVuSans-20" transform="translate(292.798828 0)"/>
     <use xlink:href="#DejaVuSans-4e" transform="translate(324.585938 0)"/>
     <use xlink:href="#DejaVuSans-2c" transform="translate(399.390625 0)"/>
     <use xlink:href="#DejaVuSans-20" transform="translate(431.177734 0)"/>
     <use xlink:href="#DejaVuSans-56" transform="translate(462.964844 0)"/>
     <use xlink:href="#DejaVuSans-2c" transform="translate(531.373047 0)"/>
     <use xlink:href="#DejaVuSans-20" transform="translate(563.160156 0)"/>
     <use xlink:href="#DejaVuSans-45" transform="translate(594.947266 0)"/>
    </g>
   </g>
   <g id="text_3">
    <!-- $\Omega(E)$ -->
    <g style="fill: #222222" transform="translate(136.124286 207.06374) scale(0.11 -0.11)">
     <defs>
      <path id="DejaVuSans-3a9" d="M 4647 556 
L 4647 0 
L 2772 0 
L 2772 556 
Q 3325 859 3634 1378 
Q 3944 1897 3944 2528 
Q 3944 3278 3531 3731 
Q 3119 4184 2444 4184 
Q 1769 4184 1355 3729 
Q 941 3275 941 2528 
Q 941 1897 1250 1378 
Q 1563 859 2119 556 
L 2119 0 
L 244 0 
L 244 556 
L 1241 556 
Q 747 991 519 1456 
Q 294 1922 294 2497 
Q 294 3491 894 4106 
Q 1491 4722 2444 4722 
Q 3391 4722 3994 4106 
Q 4594 3494 4594 2528 
Q 4594 1922 4372 1459 
Q 4150 997 3647 556 
L 4647 556 
z
" transform="scale(0.015625)"/>
      <path id="DejaVuSans-28" d="M 1984 4856 
Q 1566 4138 1362 3434 
Q 1159 2731 1159 2009 
Q 1159 1288 1364 580 
Q 1569 -128 1984 -844 
L 1484 -844 
Q 1016 -109 783 600 
Q 550 1309 550 2009 
Q 550 2706 781 3412 
Q 1013 4119 1484 4856 
L 1984 4856 
z
" transform="scale(0.015625)"/>
      <path id="DejaVuSans-Oblique-45" d="M 1081 4666 
L 4031 4666 
L 3928 4134 
L 1606 4134 
L 1338 2753 
L 3566 2753 
L 3463 2222 
L 1234 2222 
L 909 531 
L 3284 531 
L 3181 0 
L 172 0 
L 1081 4666 
z
" transform="scale(0.015625)"/>
      <path id="DejaVuSans-29" d="M 513 4856 
L 1013 4856 
Q 1481 4119 1714 3412 
Q 1947 2706 1947 2009 
Q 1947 1309 1714 600 
Q 1481 -109 1013 -844 
L 513 -844 
Q 928 -128 1133 580 
Q 1338 1288 1338 2009 
Q 1338 2731 1133 3434 
Q 928 4138 513 4856 
z
" transform="scale(0.015625)"/>
     </defs>
     <use xlink:href="#DejaVuSans-3a9" transform="translate(0 0.125)"/>
     <use xlink:href="#DejaVuSans-28" transform="translate(76.416016 0.125)"/>
     <use xlink:href="#DejaVuSans-Oblique-45" transform="translate(115.429688 0.125)"/>
     <use xlink:href="#DejaVuSans-29" transform="translate(178.613281 0.125)"/>
    </g>
   </g>
   <g id="text_4">
    <!-- $S = k_B \ln \Omega$ -->
    <g style="fill: #444444" transform="translate(122.966786 228.399946) scale(0.105 -0.105)">
     <defs>
      <path id="DejaVuSans-Oblique-53" d="M 3859 4513 
L 3738 3897 
Q 3422 4066 3111 4152 
Q 2800 4238 2509 4238 
Q 1944 4238 1609 3991 
Q 1275 3744 1275 3334 
Q 1275 3109 1398 2989 
Q 1522 2869 2034 2731 
L 2413 2638 
Q 3053 2472 3303 2217 
Q 3553 1963 3553 1503 
Q 3553 797 2998 353 
Q 2444 -91 1538 -91 
Q 1166 -91 791 -17 
Q 416 56 38 206 
L 166 856 
Q 513 641 861 531 
Q 1209 422 1556 422 
Q 2147 422 2503 684 
Q 2859 947 2859 1369 
Q 2859 1650 2717 1795 
Q 2575 1941 2106 2059 
L 1728 2156 
Q 1081 2325 845 2545 
Q 609 2766 609 3163 
Q 609 3859 1145 4304 
Q 1681 4750 2541 4750 
Q 2875 4750 3203 4690 
Q 3531 4631 3859 4513 
z
" transform="scale(0.015625)"/>
      <path id="DejaVuSans-3d" d="M 678 2906 
L 4684 2906 
L 4684 2381 
L 678 2381 
L 678 2906 
z
M 678 1631 
L 4684 1631 
L 4684 1100 
L 678 1100 
L 678 1631 
z
" transform="scale(0.015625)"/>
      <path id="DejaVuSans-Oblique-6b" d="M 1172 4863 
L 1747 4863 
L 1197 2028 
L 3169 3500 
L 3916 3500 
L 1716 1825 
L 3322 0 
L 2625 0 
L 1131 1709 
L 800 0 
L 225 0 
L 1172 4863 
z
" transform="scale(0.015625)"/>
      <path id="DejaVuSans-Oblique-42" d="M 1081 4666 
L 2694 4666 
Q 3350 4666 3675 4422 
Q 4000 4178 4000 3688 
Q 4000 3238 3720 2911 
Q 3441 2584 2988 2516 
Q 3375 2428 3569 2181 
Q 3763 1934 3763 1522 
Q 3763 819 3242 409 
Q 2722 0 1819 0 
L 172 0 
L 1081 4666 
z
M 1234 2228 
L 903 519 
L 1919 519 
Q 2491 519 2800 781 
Q 3109 1044 3109 1522 
Q 3109 1891 2904 2059 
Q 2700 2228 2247 2228 
L 1234 2228 
z
M 1606 4147 
L 1331 2741 
L 2272 2741 
Q 2775 2741 3058 2959 
Q 3341 3178 3341 3566 
Q 3341 3869 3150 4008 
Q 2959 4147 2541 4147 
L 1606 4147 
z
" transform="scale(0.015625)"/>
      <path id="DejaVuSans-6c" d="M 603 4863 
L 1178 4863 
L 1178 0 
L 603 0 
L 603 4863 
z
" transform="scale(0.015625)"/>
      <path id="DejaVuSans-6e" d="M 3513 2113 
L 3513 0 
L 2938 0 
L 2938 2094 
Q 2938 2591 2744 2837 
Q 2550 3084 2163 3084 
Q 1697 3084 1428 2787 
Q 1159 2491 1159 1978 
L 1159 0 
L 581 0 
L 581 3500 
L 1159 3500 
L 1159 2956 
Q 1366 3272 1645 3428 
Q 1925 3584 2291 3584 
Q 2894 3584 3203 3211 
Q 3513 2838 3513 2113 
z
" transform="scale(0.015625)"/>
     </defs>
     <use xlink:href="#DejaVuSans-Oblique-53" transform="translate(0 0.015625)"/>
     <use xlink:href="#DejaVuSans-3d" transform="translate(82.958984 0.015625)"/>
     <use xlink:href="#DejaVuSans-Oblique-6b" transform="translate(186.230469 0.015625)"/>
     <use xlink:href="#DejaVuSans-Oblique-42" transform="translate(244.140625 -16.390625) scale(0.7)"/>
     <use xlink:href="#DejaVuSans-6c" transform="translate(294.897461 0.015625)"/>
     <use xlink:href="#DejaVuSans-6e" transform="translate(322.680664 0.015625)"/>
     <use xlink:href="#DejaVuSans-3a9" transform="translate(402.295247 0.015625)"/>
    </g>
   </g>
   <g id="text_5">
    <!-- Nothing fluctuates -->
    <g style="fill: #666666" transform="translate(106.577879 247.849651) scale(0.09 -0.09)">
     <defs>
      <path id="DejaVuSans-Oblique-4e" d="M 1081 4666 
L 1931 4666 
L 3219 666 
L 4000 4666 
L 4616 4666 
L 3706 0 
L 2853 0 
L 1569 4025 
L 788 0 
L 172 0 
L 1081 4666 
z
" transform="scale(0.015625)"/>
      <path id="DejaVuSans-Oblique-6f" d="M 1625 -91 
Q 1009 -91 651 289 
Q 294 669 294 1325 
Q 294 1706 417 2101 
Q 541 2497 738 2766 
Q 1047 3184 1428 3384 
Q 1809 3584 2291 3584 
Q 2888 3584 3255 3212 
Q 3622 2841 3622 2241 
Q 3622 1825 3500 1412 
Q 3378 1000 3181 728 
Q 2875 309 2494 109 
Q 2113 -91 1625 -91 
z
M 891 1344 
Q 891 869 1089 633 
Q 1288 397 1691 397 
Q 2269 397 2648 901 
Q 3028 1406 3028 2181 
Q 3028 2634 2825 2865 
Q 2622 3097 2228 3097 
Q 1903 3097 1650 2945 
Q 1397 2794 1197 2484 
Q 1050 2253 970 1956 
Q 891 1659 891 1344 
z
" transform="scale(0.015625)"/>
      <path id="DejaVuSans-Oblique-74" d="M 2706 3500 
L 2619 3053 
L 1472 3053 
L 1100 1153 
Q 1081 1047 1072 975 
Q 1063 903 1063 863 
Q 1063 663 1183 572 
Q 1303 481 1569 481 
L 2150 481 
L 2053 0 
L 1503 0 
Q 991 0 739 200 
Q 488 400 488 806 
Q 488 878 497 964 
Q 506 1050 525 1153 
L 897 3053 
L 409 3053 
L 500 3500 
L 978 3500 
L 1172 4494 
L 1747 4494 
L 1556 3500 
L 2706 3500 
z
" transform="scale(0.015625)"/>
      <path id="DejaVuSans-Oblique-68" d="M 3566 2113 
L 3156 0 
L 2578 0 
L 2988 2091 
Q 3016 2238 3031 2350 
Q 3047 2463 3047 2528 
Q 3047 2791 2881 2937 
Q 2716 3084 2419 3084 
Q 1956 3084 1617 2771 
Q 1278 2459 1178 1941 
L 800 0 
L 225 0 
L 1172 4863 
L 1747 4863 
L 1375 2950 
Q 1594 3244 1934 3414 
Q 2275 3584 2650 3584 
Q 3113 3584 3367 3334 
Q 3622 3084 3622 2631 
Q 3622 2519 3608 2391 
Q 3594 2263 3566 2113 
z
" transform="scale(0.015625)"/>
      <path id="DejaVuSans-Oblique-69" d="M 1172 4863 
L 1747 4863 
L 1606 4134 
L 1031 4134 
L 1172 4863 
z
M 909 3500 
L 1484 3500 
L 800 0 
L 225 0 
L 909 3500 
z
" transform="scale(0.015625)"/>
      <path id="DejaVuSans-Oblique-6e" d="M 3566 2113 
L 3156 0 
L 2578 0 
L 2988 2091 
Q 3016 2238 3031 2350 
Q 3047 2463 3047 2528 
Q 3047 2791 2881 2937 
Q 2716 3084 2419 3084 
Q 1956 3084 1622 2776 
Q 1288 2469 1184 1941 
L 800 0 
L 225 0 
L 903 3500 
L 1478 3500 
L 1363 2950 
Q 1603 3253 1940 3418 
Q 2278 3584 2650 3584 
Q 3113 3584 3367 3334 
Q 3622 3084 3622 2631 
Q 3622 2519 3608 2391 
Q 3594 2263 3566 2113 
z
" transform="scale(0.015625)"/>
      <path id="DejaVuSans-Oblique-67" d="M 3816 3500 
L 3219 434 
Q 3047 -456 2561 -893 
Q 2075 -1331 1253 -1331 
Q 950 -1331 690 -1286 
Q 431 -1241 206 -1147 
L 313 -588 
Q 525 -725 762 -790 
Q 1000 -856 1269 -856 
Q 1816 -856 2167 -557 
Q 2519 -259 2631 300 
L 2681 563 
Q 2441 288 2122 144 
Q 1803 0 1434 0 
Q 903 0 598 351 
Q 294 703 294 1319 
Q 294 1803 478 2267 
Q 663 2731 997 3091 
Q 1219 3328 1514 3456 
Q 1809 3584 2131 3584 
Q 2484 3584 2746 3420 
Q 3009 3256 3138 2956 
L 3238 3500 
L 3816 3500 
z
M 2950 2216 
Q 2950 2641 2750 2872 
Q 2550 3103 2181 3103 
Q 1953 3103 1747 3012 
Q 1541 2922 1394 2759 
Q 1156 2491 1023 2127 
Q 891 1763 891 1375 
Q 891 944 1092 712 
Q 1294 481 1672 481 
Q 2219 481 2584 976 
Q 2950 1472 2950 2216 
z
" transform="scale(0.015625)"/>
      <path id="DejaVuSans-Oblique-20" transform="scale(0.015625)"/>
      <path id="DejaVuSans-Oblique-66" d="M 3059 4863 
L 2969 4384 
L 2419 4384 
Q 2106 4384 1964 4261 
Q 1822 4138 1753 3809 
L 1691 3500 
L 2638 3500 
L 2553 3053 
L 1606 3053 
L 1013 0 
L 434 0 
L 1031 3053 
L 481 3053 
L 563 3500 
L 1113 3500 
L 1159 3744 
Q 1278 4363 1576 4613 
Q 1875 4863 2516 4863 
L 3059 4863 
z
" transform="scale(0.015625)"/>
      <path id="DejaVuSans-Oblique-6c" d="M 1172 4863 
L 1747 4863 
L 800 0 
L 225 0 
L 1172 4863 
z
" transform="scale(0.015625)"/>
      <path id="DejaVuSans-Oblique-75" d="M 428 1388 
L 838 3500 
L 1416 3500 
L 1006 1409 
Q 975 1256 961 1147 
Q 947 1038 947 966 
Q 947 700 1109 554 
Q 1272 409 1569 409 
Q 2031 409 2368 721 
Q 2706 1034 2809 1563 
L 3194 3500 
L 3769 3500 
L 3091 0 
L 2516 0 
L 2631 550 
Q 2388 244 2052 76 
Q 1716 -91 1338 -91 
Q 878 -91 622 161 
Q 366 413 366 863 
Q 366 956 381 1097 
Q 397 1238 428 1388 
z
" transform="scale(0.015625)"/>
      <path id="DejaVuSans-Oblique-63" d="M 3431 3366 
L 3316 2797 
Q 3109 2947 2876 3022 
Q 2644 3097 2394 3097 
Q 2119 3097 1870 3000 
Q 1622 2903 1453 2725 
Q 1184 2453 1037 2087 
Q 891 1722 891 1331 
Q 891 859 1127 628 
Q 1363 397 1844 397 
Q 2081 397 2348 469 
Q 2616 541 2906 684 
L 2797 116 
Q 2547 13 2283 -39 
Q 2019 -91 1741 -91 
Q 1044 -91 669 257 
Q 294 606 294 1253 
Q 294 1797 489 2255 
Q 684 2713 1069 3078 
Q 1331 3328 1684 3456 
Q 2038 3584 2456 3584 
Q 2700 3584 2940 3529 
Q 3181 3475 3431 3366 
z
" transform="scale(0.015625)"/>
      <path id="DejaVuSans-Oblique-61" d="M 3438 1997 
L 3047 0 
L 2472 0 
L 2578 531 
Q 2325 219 2001 64 
Q 1678 -91 1281 -91 
Q 834 -91 548 182 
Q 263 456 263 884 
Q 263 1497 752 1853 
Q 1241 2209 2100 2209 
L 2900 2209 
L 2931 2363 
Q 2938 2388 2941 2417 
Q 2944 2447 2944 2509 
Q 2944 2788 2717 2942 
Q 2491 3097 2081 3097 
Q 1800 3097 1504 3025 
Q 1209 2953 897 2809 
L 997 3341 
Q 1322 3463 1633 3523 
Q 1944 3584 2234 3584 
Q 2853 3584 3176 3315 
Q 3500 3047 3500 2534 
Q 3500 2431 3484 2292 
Q 3469 2153 3438 1997 
z
M 2816 1759 
L 2241 1759 
Q 1534 1759 1195 1570 
Q 856 1381 856 984 
Q 856 709 1029 553 
Q 1203 397 1509 397 
Q 1978 397 2328 733 
Q 2678 1069 2791 1631 
L 2816 1759 
z
" transform="scale(0.015625)"/>
      <path id="DejaVuSans-Oblique-65" d="M 3078 2063 
Q 3088 2113 3092 2166 
Q 3097 2219 3097 2272 
Q 3097 2653 2873 2875 
Q 2650 3097 2266 3097 
Q 1838 3097 1509 2826 
Q 1181 2556 1013 2059 
L 3078 2063 
z
M 3578 1613 
L 903 1613 
Q 884 1494 878 1425 
Q 872 1356 872 1306 
Q 872 872 1139 634 
Q 1406 397 1894 397 
Q 2269 397 2603 481 
Q 2938 566 3225 728 
L 3116 159 
Q 2806 34 2476 -28 
Q 2147 -91 1806 -91 
Q 1078 -91 686 257 
Q 294 606 294 1247 
Q 294 1794 489 2264 
Q 684 2734 1063 3103 
Q 1306 3334 1642 3459 
Q 1978 3584 2356 3584 
Q 2950 3584 3301 3228 
Q 3653 2872 3653 2272 
Q 3653 2128 3634 1964 
Q 3616 1800 3578 1613 
z
" transform="scale(0.015625)"/>
      <path id="DejaVuSans-Oblique-73" d="M 3200 3397 
L 3091 2853 
Q 2863 2978 2609 3040 
Q 2356 3103 2088 3103 
Q 1634 3103 1373 2948 
Q 1113 2794 1113 2528 
Q 1113 2219 1719 2053 
Q 1766 2041 1788 2034 
L 1972 1978 
Q 2547 1819 2739 1644 
Q 2931 1469 2931 1166 
Q 2931 609 2489 259 
Q 2047 -91 1331 -91 
Q 1053 -91 747 -37 
Q 441 16 72 128 
L 184 722 
Q 500 559 806 475 
Q 1113 391 1394 391 
Q 1816 391 2080 572 
Q 2344 753 2344 1031 
Q 2344 1331 1650 1516 
L 1591 1531 
L 1394 1581 
Q 956 1697 753 1886 
Q 550 2075 550 2369 
Q 550 2928 970 3256 
Q 1391 3584 2113 3584 
Q 2397 3584 2667 3537 
Q 2938 3491 3200 3397 
z
" transform="scale(0.015625)"/>
     </defs>
     <use xlink:href="#DejaVuSans-Oblique-4e"/>
     <use xlink:href="#DejaVuSans-Oblique-6f" transform="translate(74.804688 0)"/>
     <use xlink:href="#DejaVuSans-Oblique-74" transform="translate(135.986328 0)"/>
     <use xlink:href="#DejaVuSans-Oblique-68" transform="translate(175.195312 0)"/>
     <use xlink:href="#DejaVuSans-Oblique-69" transform="translate(238.574219 0)"/>
     <use xlink:href="#DejaVuSans-Oblique-6e" transform="translate(266.357422 0)"/>
     <use xlink:href="#DejaVuSans-Oblique-67" transform="translate(329.736328 0)"/>
     <use xlink:href="#DejaVuSans-Oblique-20" transform="translate(393.212891 0)"/>
     <use xlink:href="#DejaVuSans-Oblique-66" transform="translate(425 0)"/>
     <use xlink:href="#DejaVuSans-Oblique-6c" transform="translate(460.205078 0)"/>
     <use xlink:href="#DejaVuSans-Oblique-75" transform="translate(487.988281 0)"/>
     <use xlink:href="#DejaVuSans-Oblique-63" transform="translate(551.367188 0)"/>
     <use xlink:href="#DejaVuSans-Oblique-74" transform="translate(606.347656 0)"/>
     <use xlink:href="#DejaVuSans-Oblique-75" transform="translate(645.556641 0)"/>
     <use xlink:href="#DejaVuSans-Oblique-61" transform="translate(708.935547 0)"/>
     <use xlink:href="#DejaVuSans-Oblique-74" transform="translate(770.214844 0)"/>
     <use xlink:href="#DejaVuSans-Oblique-65" transform="translate(809.423828 0)"/>
     <use xlink:href="#DejaVuSans-Oblique-73" transform="translate(870.947266 0)"/>
    </g>
   </g>
   <g id="text_6">
    <!-- Canonical (NVT) -->
    <g style="fill: #3333aa" transform="translate(408.746624 162.918733) scale(0.125 -0.125)">
     <defs>
      <path id="DejaVuSans-Bold-43" d="M 4288 256 
Q 3956 84 3597 -3 
Q 3238 -91 2847 -91 
Q 1681 -91 1000 561 
Q 319 1213 319 2328 
Q 319 3447 1000 4098 
Q 1681 4750 2847 4750 
Q 3238 4750 3597 4662 
Q 3956 4575 4288 4403 
L 4288 3438 
Q 3953 3666 3628 3772 
Q 3303 3878 2944 3878 
Q 2300 3878 1931 3465 
Q 1563 3053 1563 2328 
Q 1563 1606 1931 1193 
Q 2300 781 2944 781 
Q 3303 781 3628 887 
Q 3953 994 4288 1222 
L 4288 256 
z
" transform="scale(0.015625)"/>
      <path id="DejaVuSans-Bold-54" d="M 31 4666 
L 4331 4666 
L 4331 3756 
L 2784 3756 
L 2784 0 
L 1581 0 
L 1581 3756 
L 31 3756 
L 31 4666 
z
" transform="scale(0.015625)"/>
     </defs>
     <use xlink:href="#DejaVuSans-Bold-43"/>
     <use xlink:href="#DejaVuSans-Bold-61" transform="translate(73.388672 0)"/>
     <use xlink:href="#DejaVuSans-Bold-6e" transform="translate(140.869141 0)"/>
     <use xlink:href="#DejaVuSans-Bold-6f" transform="translate(212.060547 0)"/>
     <use xlink:href="#DejaVuSans-Bold-6e" transform="translate(280.761719 0)"/>
     <use xlink:href="#DejaVuSans-Bold-69" transform="translate(351.953125 0)"/>
     <use xlink:href="#DejaVuSans-Bold-63" transform="translate(386.230469 0)"/>
     <use xlink:href="#DejaVuSans-Bold-61" transform="translate(445.507812 0)"/>
     <use xlink:href="#DejaVuSans-Bold-6c" transform="translate(512.988281 0)"/>
     <use xlink:href="#DejaVuSans-Bold-20" transform="translate(547.265625 0)"/>
     <use xlink:href="#DejaVuSans-Bold-28" transform="translate(582.080078 0)"/>
     <use xlink:href="#DejaVuSans-Bold-4e" transform="translate(627.783203 0)"/>
     <use xlink:href="#DejaVuSans-Bold-56" transform="translate(711.474609 0)"/>
     <use xlink:href="#DejaVuSans-Bold-54" transform="translate(788.867188 0)"/>
     <use xlink:href="#DejaVuSans-Bold-29" transform="translate(857.080078 0)"/>
    </g>
   </g>
   <g id="text_7">
    <!-- Fixed: N, V, T -->
    <g style="fill: #333333" transform="translate(432.370647 184.776773) scale(0.1 -0.1)">
     <defs>
      <path id="DejaVuSans-54" d="M -19 4666 
L 3928 4666 
L 3928 4134 
L 2272 4134 
L 2272 0 
L 1638 0 
L 1638 4134 
L -19 4134 
L -19 4666 
z
" transform="scale(0.015625)"/>
     </defs>
     <use xlink:href="#DejaVuSans-46"/>
     <use xlink:href="#DejaVuSans-69" transform="translate(50.269531 0)"/>
     <use xlink:href="#DejaVuSans-78" transform="translate(78.052734 0)"/>
     <use xlink:href="#DejaVuSans-65" transform="translate(134.107422 0)"/>
     <use xlink:href="#DejaVuSans-64" transform="translate(195.630859 0)"/>
     <use xlink:href="#DejaVuSans-3a" transform="translate(259.107422 0)"/>
     <use xlink:href="#DejaVuSans-20" transform="translate(292.798828 0)"/>
     <use xlink:href="#DejaVuSans-4e" transform="translate(324.585938 0)"/>
     <use xlink:href="#DejaVuSans-2c" transform="translate(399.390625 0)"/>
     <use xlink:href="#DejaVuSans-20" transform="translate(431.177734 0)"/>
     <use xlink:href="#DejaVuSans-56" transform="translate(462.964844 0)"/>
     <use xlink:href="#DejaVuSans-2c" transform="translate(531.373047 0)"/>
     <use xlink:href="#DejaVuSans-20" transform="translate(563.160156 0)"/>
     <use xlink:href="#DejaVuSans-54" transform="translate(594.947266 0)"/>
    </g>
   </g>
   <g id="text_8">
    <!-- $Z = \sum e^{-\beta E}$ -->
    <g style="fill: #222222" transform="translate(437.506429 208.098427) scale(0.11 -0.11)">
     <defs>
      <path id="DejaVuSans-Oblique-5a" d="M 838 4666 
L 4500 4666 
L 4409 4184 
L 794 531 
L 3769 531 
L 3669 0 
L -141 0 
L -50 481 
L 3566 4134 
L 738 4134 
L 838 4666 
z
" transform="scale(0.015625)"/>
      <path id="DejaVuSansDisplay-2211" d="M 244 6509 
L 5803 6509 
L 5803 5656 
L 1566 5656 
L 4534 2488 
L 1469 -888 
L 5919 -888 
L 5919 -1738 
L 109 -1738 
L 109 -1078 
L 3316 2463 
L 244 5728 
L 244 6509 
z
" transform="scale(0.015625)"/>
      <path id="DejaVuSans-2212" d="M 678 2272 
L 4684 2272 
L 4684 1741 
L 678 1741 
L 678 2272 
z
" transform="scale(0.015625)"/>
      <path id="DejaVuSans-Oblique-3b2" d="M 872 216 
L 572 -1331 
L -6 -1331 
L 928 3478 
Q 1206 4903 2538 4903 
Q 3888 4903 3659 3700 
Q 3503 2844 2894 2531 
Q 3713 2250 3553 1416 
Q 3272 -69 1759 -66 
Q 1097 -63 872 216 
z
M 1019 966 
Q 1259 422 1875 425 
Q 2775 425 2966 1406 
Q 3138 2288 1675 2219 
L 1778 2750 
Q 2909 2731 3106 3750 
Q 3241 4438 2509 4434 
Q 1691 4434 1503 3459 
L 1019 966 
z
" transform="scale(0.015625)"/>
     </defs>
     <use xlink:href="#DejaVuSans-Oblique-5a" transform="translate(0 0.296875)"/>
     <use xlink:href="#DejaVuSans-3d" transform="translate(87.988281 0.296875)"/>
     <use xlink:href="#DejaVuSansDisplay-2211" transform="translate(191.259766 0.296875)"/>
     <use xlink:href="#DejaVuSans-Oblique-65" transform="translate(286.523438 0.296875)"/>
     <use xlink:href="#DejaVuSans-2212" transform="translate(352.696771 38.578125) scale(0.7)"/>
     <use xlink:href="#DejaVuSans-Oblique-3b2" transform="translate(411.349115 38.578125) scale(0.7)"/>
     <use xlink:href="#DejaVuSans-Oblique-45" transform="translate(456.021966 38.578125) scale(0.7)"/>
    </g>
   </g>
   <g id="text_9">
    <!-- $F = -k_BT \ln Z$ -->
    <g style="fill: #444444" transform="translate(433.146429 228.399946) scale(0.105 -0.105)">
     <defs>
      <path id="DejaVuSans-Oblique-46" d="M 1081 4666 
L 3756 4666 
L 3653 4134 
L 1606 4134 
L 1338 2759 
L 3188 2759 
L 3084 2228 
L 1234 2228 
L 800 0 
L 172 0 
L 1081 4666 
z
" transform="scale(0.015625)"/>
      <path id="DejaVuSans-Oblique-54" d="M 378 4666 
L 4325 4666 
L 4225 4134 
L 2559 4134 
L 1759 0 
L 1125 0 
L 1925 4134 
L 275 4134 
L 378 4666 
z
" transform="scale(0.015625)"/>
     </defs>
     <use xlink:href="#DejaVuSans-Oblique-46" transform="translate(0 0.015625)"/>
     <use xlink:href="#DejaVuSans-3d" transform="translate(77.001953 0.015625)"/>
     <use xlink:href="#DejaVuSans-2212" transform="translate(180.273438 0.015625)"/>
     <use xlink:href="#DejaVuSans-Oblique-6b" transform="translate(264.0625 0.015625)"/>
     <use xlink:href="#DejaVuSans-Oblique-42" transform="translate(321.972656 -16.390625) scale(0.7)"/>
     <use xlink:href="#DejaVuSans-Oblique-54" transform="translate(372.729492 0.015625)"/>
     <use xlink:href="#DejaVuSans-6c" transform="translate(433.813477 0.015625)"/>
     <use xlink:href="#DejaVuSans-6e" transform="translate(461.59668 0.015625)"/>
     <use xlink:href="#DejaVuSans-Oblique-5a" transform="translate(541.211262 0.015625)"/>
    </g>
   </g>
   <g id="text_10">
    <!-- $\sigma_E^2 = k_BT^2 C_V$ -->
    <g style="fill: #666666" transform="translate(438.936429 248.201214) scale(0.09 -0.09)">
     <defs>
      <path id="DejaVuSans-Oblique-3c3" d="M 2219 3044 
Q 1744 3044 1422 2700 
Q 1081 2341 969 1747 
Q 844 1119 1044 756 
Q 1241 397 1706 397 
Q 2166 397 2503 759 
Q 2844 1122 2966 1747 
Q 3075 2319 2881 2700 
Q 2700 3044 2219 3044 
z
M 2309 3503 
L 4219 3500 
L 4106 2925 
L 3463 2925 
Q 3706 2438 3575 1747 
Q 3406 888 2884 400 
Q 2359 -91 1609 -91 
Q 856 -91 525 400 
Q 194 888 363 1747 
Q 528 2609 1050 3097 
Q 1484 3503 2309 3503 
z
" transform="scale(0.015625)"/>
      <path id="DejaVuSans-32" d="M 1228 531 
L 3431 531 
L 3431 0 
L 469 0 
L 469 531 
Q 828 903 1448 1529 
Q 2069 2156 2228 2338 
Q 2531 2678 2651 2914 
Q 2772 3150 2772 3378 
Q 2772 3750 2511 3984 
Q 2250 4219 1831 4219 
Q 1534 4219 1204 4116 
Q 875 4013 500 3803 
L 500 4441 
Q 881 4594 1212 4672 
Q 1544 4750 1819 4750 
Q 2544 4750 2975 4387 
Q 3406 4025 3406 3419 
Q 3406 3131 3298 2873 
Q 3191 2616 2906 2266 
Q 2828 2175 2409 1742 
Q 1991 1309 1228 531 
z
" transform="scale(0.015625)"/>
      <path id="DejaVuSans-Oblique-43" d="M 4447 4306 
L 4319 3641 
Q 4019 3944 3683 4091 
Q 3347 4238 2956 4238 
Q 2422 4238 2017 3981 
Q 1613 3725 1319 3200 
Q 1131 2863 1032 2486 
Q 934 2109 934 1728 
Q 934 1091 1264 756 
Q 1594 422 2222 422 
Q 2656 422 3056 561 
Q 3456 700 3834 978 
L 3688 231 
Q 3316 72 2936 -9 
Q 2556 -91 2175 -91 
Q 1278 -91 773 396 
Q 269 884 269 1753 
Q 269 2309 461 2846 
Q 653 3384 1013 3828 
Q 1394 4300 1883 4525 
Q 2372 4750 3022 4750 
Q 3422 4750 3780 4639 
Q 4138 4528 4447 4306 
z
" transform="scale(0.015625)"/>
      <path id="DejaVuSans-Oblique-56" d="M 1319 0 
L 500 4666 
L 1119 4666 
L 1797 653 
L 4063 4666 
L 4750 4666 
L 2053 0 
L 1319 0 
z
" transform="scale(0.015625)"/>
     </defs>
     <use xlink:href="#DejaVuSans-Oblique-3c3" transform="translate(0 0.765625)"/>
     <use xlink:href="#DejaVuSans-32" transform="translate(67.851615 39.046875) scale(0.7)"/>
     <use xlink:href="#DejaVuSans-Oblique-45" transform="translate(63.378906 -26.578125) scale(0.7)"/>
     <use xlink:href="#DejaVuSans-3d" transform="translate(134.604544 0.765625)"/>
     <use xlink:href="#DejaVuSans-Oblique-6b" transform="translate(237.876029 0.765625)"/>
     <use xlink:href="#DejaVuSans-Oblique-42" transform="translate(295.786185 -15.640625) scale(0.7)"/>
     <use xlink:href="#DejaVuSans-Oblique-54" transform="translate(346.543021 0.765625)"/>
     <use xlink:href="#DejaVuSans-32" transform="translate(414.643776 39.046875) scale(0.7)"/>
     <use xlink:href="#DejaVuSans-Oblique-43" transform="translate(461.914284 0.765625)"/>
     <use xlink:href="#DejaVuSans-Oblique-56" transform="translate(531.738503 -15.640625) scale(0.7)"/>
    </g>
   </g>
   <g id="text_11">
    <!-- Isobaric-Isothermal (NPT) -->
    <g style="fill: #aa3333" transform="translate(691.741267 162.918733) scale(0.125 -0.125)">
     <defs>
      <path id="DejaVuSans-Bold-49" d="M 588 4666 
L 1791 4666 
L 1791 0 
L 588 0 
L 588 4666 
z
" transform="scale(0.015625)"/>
      <path id="DejaVuSans-Bold-73" d="M 3272 3391 
L 3272 2541 
Q 2913 2691 2578 2766 
Q 2244 2841 1947 2841 
Q 1628 2841 1473 2761 
Q 1319 2681 1319 2516 
Q 1319 2381 1436 2309 
Q 1553 2238 1856 2203 
L 2053 2175 
Q 2913 2066 3209 1816 
Q 3506 1566 3506 1031 
Q 3506 472 3093 190 
Q 2681 -91 1863 -91 
Q 1516 -91 1145 -36 
Q 775 19 384 128 
L 384 978 
Q 719 816 1070 734 
Q 1422 653 1784 653 
Q 2113 653 2278 743 
Q 2444 834 2444 1013 
Q 2444 1163 2330 1236 
Q 2216 1309 1875 1350 
L 1678 1375 
Q 931 1469 631 1722 
Q 331 1975 331 2491 
Q 331 3047 712 3315 
Q 1094 3584 1881 3584 
Q 2191 3584 2531 3537 
Q 2872 3491 3272 3391 
z
" transform="scale(0.015625)"/>
      <path id="DejaVuSans-Bold-62" d="M 2400 722 
Q 2759 722 2948 984 
Q 3138 1247 3138 1747 
Q 3138 2247 2948 2509 
Q 2759 2772 2400 2772 
Q 2041 2772 1848 2508 
Q 1656 2244 1656 1747 
Q 1656 1250 1848 986 
Q 2041 722 2400 722 
z
M 1656 2988 
Q 1888 3294 2169 3439 
Q 2450 3584 2816 3584 
Q 3463 3584 3878 3070 
Q 4294 2556 4294 1747 
Q 4294 938 3878 423 
Q 3463 -91 2816 -91 
Q 2450 -91 2169 54 
Q 1888 200 1656 506 
L 1656 0 
L 538 0 
L 538 4863 
L 1656 4863 
L 1656 2988 
z
" transform="scale(0.015625)"/>
      <path id="DejaVuSans-Bold-2d" d="M 347 2297 
L 2309 2297 
L 2309 1388 
L 347 1388 
L 347 2297 
z
" transform="scale(0.015625)"/>
      <path id="DejaVuSans-Bold-74" d="M 1759 4494 
L 1759 3500 
L 2913 3500 
L 2913 2700 
L 1759 2700 
L 1759 1216 
Q 1759 972 1856 886 
Q 1953 800 2241 800 
L 2816 800 
L 2816 0 
L 1856 0 
Q 1194 0 917 276 
Q 641 553 641 1216 
L 641 2700 
L 84 2700 
L 84 3500 
L 641 3500 
L 641 4494 
L 1759 4494 
z
" transform="scale(0.015625)"/>
      <path id="DejaVuSans-Bold-68" d="M 4056 2131 
L 4056 0 
L 2931 0 
L 2931 347 
L 2931 1625 
Q 2931 2084 2911 2256 
Q 2891 2428 2841 2509 
Q 2775 2619 2662 2680 
Q 2550 2741 2406 2741 
Q 2056 2741 1856 2470 
Q 1656 2200 1656 1722 
L 1656 0 
L 538 0 
L 538 4863 
L 1656 4863 
L 1656 2988 
Q 1909 3294 2193 3439 
Q 2478 3584 2822 3584 
Q 3428 3584 3742 3212 
Q 4056 2841 4056 2131 
z
" transform="scale(0.015625)"/>
      <path id="DejaVuSans-Bold-65" d="M 4031 1759 
L 4031 1441 
L 1416 1441 
Q 1456 1047 1700 850 
Q 1944 653 2381 653 
Q 2734 653 3104 758 
Q 3475 863 3866 1075 
L 3866 213 
Q 3469 63 3072 -14 
Q 2675 -91 2278 -91 
Q 1328 -91 801 392 
Q 275 875 275 1747 
Q 275 2603 792 3093 
Q 1309 3584 2216 3584 
Q 3041 3584 3536 3087 
Q 4031 2591 4031 1759 
z
M 2881 2131 
Q 2881 2450 2695 2645 
Q 2509 2841 2209 2841 
Q 1884 2841 1681 2658 
Q 1478 2475 1428 2131 
L 2881 2131 
z
" transform="scale(0.015625)"/>
      <path id="DejaVuSans-Bold-6d" d="M 3781 2919 
Q 3994 3244 4286 3414 
Q 4578 3584 4928 3584 
Q 5531 3584 5847 3212 
Q 6163 2841 6163 2131 
L 6163 0 
L 5038 0 
L 5038 1825 
Q 5041 1866 5042 1909 
Q 5044 1953 5044 2034 
Q 5044 2406 4934 2573 
Q 4825 2741 4581 2741 
Q 4263 2741 4089 2478 
Q 3916 2216 3909 1719 
L 3909 0 
L 2784 0 
L 2784 1825 
Q 2784 2406 2684 2573 
Q 2584 2741 2328 2741 
Q 2006 2741 1831 2477 
Q 1656 2213 1656 1722 
L 1656 0 
L 531 0 
L 531 3500 
L 1656 3500 
L 1656 2988 
Q 1863 3284 2130 3434 
Q 2397 3584 2719 3584 
Q 3081 3584 3359 3409 
Q 3638 3234 3781 2919 
z
" transform="scale(0.015625)"/>
      <path id="DejaVuSans-Bold-50" d="M 588 4666 
L 2584 4666 
Q 3475 4666 3951 4270 
Q 4428 3875 4428 3144 
Q 4428 2409 3951 2014 
Q 3475 1619 2584 1619 
L 1791 1619 
L 1791 0 
L 588 0 
L 588 4666 
z
M 1791 3794 
L 1791 2491 
L 2456 2491 
Q 2806 2491 2997 2661 
Q 3188 2831 3188 3144 
Q 3188 3456 2997 3625 
Q 2806 3794 2456 3794 
L 1791 3794 
z
" transform="scale(0.015625)"/>
     </defs>
     <use xlink:href="#DejaVuSans-Bold-49"/>
     <use xlink:href="#DejaVuSans-Bold-73" transform="translate(37.207031 0)"/>
     <use xlink:href="#DejaVuSans-Bold-6f" transform="translate(96.728516 0)"/>
     <use xlink:href="#DejaVuSans-Bold-62" transform="translate(165.429688 0)"/>
     <use xlink:href="#DejaVuSans-Bold-61" transform="translate(237.011719 0)"/>
     <use xlink:href="#DejaVuSans-Bold-72" transform="translate(304.492188 0)"/>
     <use xlink:href="#DejaVuSans-Bold-69" transform="translate(353.808594 0)"/>
     <use xlink:href="#DejaVuSans-Bold-63" transform="translate(388.085938 0)"/>
     <use xlink:href="#DejaVuSans-Bold-2d" transform="translate(447.363281 0)"/>
     <use xlink:href="#DejaVuSans-Bold-49" transform="translate(488.867188 0)"/>
     <use xlink:href="#DejaVuSans-Bold-73" transform="translate(526.074219 0)"/>
     <use xlink:href="#DejaVuSans-Bold-6f" transform="translate(585.595703 0)"/>
     <use xlink:href="#DejaVuSans-Bold-74" transform="translate(654.296875 0)"/>
     <use xlink:href="#DejaVuSans-Bold-68" transform="translate(702.099609 0)"/>
     <use xlink:href="#DejaVuSans-Bold-65" transform="translate(773.291016 0)"/>
     <use xlink:href="#DejaVuSans-Bold-72" transform="translate(841.113281 0)"/>
     <use xlink:href="#DejaVuSans-Bold-6d" transform="translate(890.429688 0)"/>
     <use xlink:href="#DejaVuSans-Bold-61" transform="translate(994.628906 0)"/>
     <use xlink:href="#DejaVuSans-Bold-6c" transform="translate(1062.109375 0)"/>
     <use xlink:href="#DejaVuSans-Bold-20" transform="translate(1096.386719 0)"/>
     <use xlink:href="#DejaVuSans-Bold-28" transform="translate(1131.201172 0)"/>
     <use xlink:href="#DejaVuSans-Bold-4e" transform="translate(1176.904297 0)"/>
     <use xlink:href="#DejaVuSans-Bold-50" transform="translate(1260.595703 0)"/>
     <use xlink:href="#DejaVuSans-Bold-54" transform="translate(1333.886719 0)"/>
     <use xlink:href="#DejaVuSans-Bold-29" transform="translate(1402.099609 0)"/>
    </g>
   </g>
   <g id="text_12">
    <!-- Fixed: N, p, T -->
    <g style="fill: #333333" transform="translate(749.673884 184.776773) scale(0.1 -0.1)">
     <defs>
      <path id="DejaVuSans-70" d="M 1159 525 
L 1159 -1331 
L 581 -1331 
L 581 3500 
L 1159 3500 
L 1159 2969 
Q 1341 3281 1617 3432 
Q 1894 3584 2278 3584 
Q 2916 3584 3314 3078 
Q 3713 2572 3713 1747 
Q 3713 922 3314 415 
Q 2916 -91 2278 -91 
Q 1894 -91 1617 61 
Q 1341 213 1159 525 
z
M 3116 1747 
Q 3116 2381 2855 2742 
Q 2594 3103 2138 3103 
Q 1681 3103 1420 2742 
Q 1159 2381 1159 1747 
Q 1159 1113 1420 752 
Q 1681 391 2138 391 
Q 2594 391 2855 752 
Q 3116 1113 3116 1747 
z
" transform="scale(0.015625)"/>
     </defs>
     <use xlink:href="#DejaVuSans-46"/>
     <use xlink:href="#DejaVuSans-69" transform="translate(50.269531 0)"/>
     <use xlink:href="#DejaVuSans-78" transform="translate(78.052734 0)"/>
     <use xlink:href="#DejaVuSans-65" transform="translate(134.107422 0)"/>
     <use xlink:href="#DejaVuSans-64" transform="translate(195.630859 0)"/>
     <use xlink:href="#DejaVuSans-3a" transform="translate(259.107422 0)"/>
     <use xlink:href="#DejaVuSans-20" transform="translate(292.798828 0)"/>
     <use xlink:href="#DejaVuSans-4e" transform="translate(324.585938 0)"/>
     <use xlink:href="#DejaVuSans-2c" transform="translate(399.390625 0)"/>
     <use xlink:href="#DejaVuSans-20" transform="translate(431.177734 0)"/>
     <use xlink:href="#DejaVuSans-70" transform="translate(462.964844 0)"/>
     <use xlink:href="#DejaVuSans-2c" transform="translate(526.441406 0)"/>
     <use xlink:href="#DejaVuSans-20" transform="translate(558.228516 0)"/>
     <use xlink:href="#DejaVuSans-54" transform="translate(590.015625 0)"/>
    </g>
   </g>
   <g id="text_13">
    <!-- $\Delta = \int Z\, e^{-\beta pV} dV$ -->
    <g style="fill: #222222" transform="translate(741.198571 208.263427) scale(0.11 -0.11)">
     <defs>
      <path id="DejaVuSans-394" d="M 2188 4044 
L 906 525 
L 3472 525 
L 2188 4044 
z
M 50 0 
L 1831 4666 
L 2547 4666 
L 4325 0 
L 50 0 
z
" transform="scale(0.015625)"/>
      <path id="DejaVuSansDisplay-222b" d="M 2134 5525 
Q 2172 6263 2528 6556 
Q 2884 6850 3218 6850 
Q 3553 6850 3833 6575 
Q 4113 6300 4200 5678 
L 3544 5613 
Q 3469 6188 3219 6188 
Q 2906 6188 2869 5413 
L 2581 -597 
Q 2547 -1334 2187 -1628 
Q 1828 -1922 1497 -1922 
Q 1163 -1922 883 -1647 
Q 603 -1372 516 -750 
L 1172 -684 
Q 1247 -1259 1497 -1259 
Q 1809 -1259 1847 -488 
L 2134 5525 
z
" transform="scale(0.015625)"/>
      <path id="DejaVuSans-Oblique-70" d="M 3175 2156 
Q 3175 2616 2975 2859 
Q 2775 3103 2400 3103 
Q 2144 3103 1911 2972 
Q 1678 2841 1497 2591 
Q 1319 2344 1212 1994 
Q 1106 1644 1106 1300 
Q 1106 863 1306 627 
Q 1506 391 1875 391 
Q 2147 391 2380 519 
Q 2613 647 2778 891 
Q 2956 1147 3065 1494 
Q 3175 1841 3175 2156 
z
M 1394 2969 
Q 1625 3272 1939 3428 
Q 2253 3584 2638 3584 
Q 3175 3584 3472 3232 
Q 3769 2881 3769 2247 
Q 3769 1728 3584 1258 
Q 3400 788 3053 416 
Q 2822 169 2531 39 
Q 2241 -91 1919 -91 
Q 1547 -91 1294 64 
Q 1041 219 916 525 
L 556 -1331 
L -19 -1331 
L 922 3500 
L 1497 3500 
L 1394 2969 
z
" transform="scale(0.015625)"/>
      <path id="DejaVuSans-Oblique-64" d="M 2675 525 
Q 2444 222 2128 65 
Q 1813 -91 1428 -91 
Q 903 -91 598 267 
Q 294 625 294 1247 
Q 294 1766 478 2236 
Q 663 2706 1013 3078 
Q 1244 3325 1534 3454 
Q 1825 3584 2144 3584 
Q 2481 3584 2739 3421 
Q 2997 3259 3138 2956 
L 3513 4863 
L 4091 4863 
L 3144 0 
L 2566 0 
L 2675 525 
z
M 891 1350 
Q 891 897 1095 644 
Q 1300 391 1663 391 
Q 1931 391 2161 520 
Q 2391 650 2566 903 
Q 2750 1166 2856 1509 
Q 2963 1853 2963 2188 
Q 2963 2622 2758 2865 
Q 2553 3109 2194 3109 
Q 1922 3109 1687 2981 
Q 1453 2853 1288 2613 
Q 1106 2353 998 2009 
Q 891 1666 891 1350 
z
" transform="scale(0.015625)"/>
     </defs>
     <use xlink:href="#DejaVuSans-394" transform="translate(0 0.96875)"/>
     <use xlink:href="#DejaVuSans-3d" transform="translate(87.890625 0.96875)"/>
     <use xlink:href="#DejaVuSansDisplay-222b" transform="translate(191.162109 0.96875)"/>
     <use xlink:href="#DejaVuSans-Oblique-5a" transform="translate(264.794922 0.96875)"/>
     <use xlink:href="#DejaVuSans-Oblique-65" transform="translate(349.536458 0.96875)"/>
     <use xlink:href="#DejaVuSans-2212" transform="translate(415.709791 39.25) scale(0.7)"/>
     <use xlink:href="#DejaVuSans-Oblique-3b2" transform="translate(474.362135 39.25) scale(0.7)"/>
     <use xlink:href="#DejaVuSans-Oblique-70" transform="translate(519.034986 39.25) scale(0.7)"/>
     <use xlink:href="#DejaVuSans-Oblique-56" transform="translate(563.46858 39.25) scale(0.7)"/>
     <use xlink:href="#DejaVuSans-Oblique-64" transform="translate(614.088697 0.96875)"/>
     <use xlink:href="#DejaVuSans-Oblique-56" transform="translate(677.56526 0.96875)"/>
    </g>
   </g>
   <g id="text_14">
    <!-- $G = -k_BT \ln \Delta$ -->
    <g style="fill: #444444" transform="translate(749.153571 228.399946) scale(0.105 -0.105)">
     <defs>
      <path id="DejaVuSans-Oblique-47" d="M 3494 697 
L 3738 1919 
L 2700 1919 
L 2797 2438 
L 4453 2438 
L 4050 384 
Q 3634 156 3143 32 
Q 2653 -91 2156 -91 
Q 1278 -91 783 396 
Q 288 884 288 1753 
Q 288 2475 589 3126 
Q 891 3778 1422 4213 
Q 1756 4484 2153 4617 
Q 2550 4750 3034 4750 
Q 3472 4750 3873 4639 
Q 4275 4528 4641 4306 
L 4513 3634 
Q 4231 3928 3853 4083 
Q 3475 4238 3047 4238 
Q 2550 4238 2172 4048 
Q 1794 3859 1497 3463 
Q 1244 3125 1098 2667 
Q 953 2209 953 1734 
Q 953 1081 1287 751 
Q 1622 422 2284 422 
Q 2616 422 2925 492 
Q 3234 563 3494 697 
z
" transform="scale(0.015625)"/>
     </defs>
     <use xlink:href="#DejaVuSans-Oblique-47" transform="translate(0 0.015625)"/>
     <use xlink:href="#DejaVuSans-3d" transform="translate(96.972656 0.015625)"/>
     <use xlink:href="#DejaVuSans-2212" transform="translate(200.244141 0.015625)"/>
     <use xlink:href="#DejaVuSans-Oblique-6b" transform="translate(284.033203 0.015625)"/>
     <use xlink:href="#DejaVuSans-Oblique-42" transform="translate(341.943359 -16.390625) scale(0.7)"/>
     <use xlink:href="#DejaVuSans-Oblique-54" transform="translate(392.700195 0.015625)"/>
     <use xlink:href="#DejaVuSans-6c" transform="translate(453.78418 0.015625)"/>
     <use xlink:href="#DejaVuSans-6e" transform="translate(481.567383 0.015625)"/>
     <use xlink:href="#DejaVuSans-394" transform="translate(561.181965 0.015625)"/>
    </g>
   </g>
   <g id="text_15">
    <!-- $\sigma_V^2 = k_BT\, V\, \kappa_T$ -->
    <g style="fill: #666666" transform="translate(754.643571 248.201214) scale(0.09 -0.09)">
     <defs>
      <path id="DejaVuSans-Oblique-3ba" d="M 938 3500 
L 1531 3500 
L 1247 2047 
L 3041 3500 
L 3741 3500 
L 2106 2181 
L 3275 0 
L 2572 0 
L 1628 1806 
L 1122 1403 
L 850 0 
L 256 0 
L 938 3500 
z
" transform="scale(0.015625)"/>
     </defs>
     <use xlink:href="#DejaVuSans-Oblique-3c3" transform="translate(0 0.765625)"/>
     <use xlink:href="#DejaVuSans-32" transform="translate(67.851615 39.046875) scale(0.7)"/>
     <use xlink:href="#DejaVuSans-Oblique-56" transform="translate(63.378906 -26.578125) scale(0.7)"/>
     <use xlink:href="#DejaVuSans-3d" transform="translate(134.604544 0.765625)"/>
     <use xlink:href="#DejaVuSans-Oblique-6b" transform="translate(237.876029 0.765625)"/>
     <use xlink:href="#DejaVuSans-Oblique-42" transform="translate(295.786185 -15.640625) scale(0.7)"/>
     <use xlink:href="#DejaVuSans-Oblique-54" transform="translate(346.543021 0.765625)"/>
     <use xlink:href="#DejaVuSans-Oblique-56" transform="translate(423.862681 0.765625)"/>
     <use xlink:href="#DejaVuSans-Oblique-3ba" transform="translate(508.506561 0.765625)"/>
     <use xlink:href="#DejaVuSans-Oblique-54" transform="translate(567.442108 -15.640625) scale(0.7)"/>
    </g>
   </g>
   <g id="text_16">
    <!-- Grand Canonical ($\mu$VT) -->
    <g style="fill: #bb7700" transform="translate(386.421429 420.597112) scale(0.125 -0.125)">
     <defs>
      <path id="DejaVuSans-Bold-47" d="M 4781 347 
Q 4331 128 3847 18 
Q 3363 -91 2847 -91 
Q 1681 -91 1000 561 
Q 319 1213 319 2328 
Q 319 3456 1012 4103 
Q 1706 4750 2913 4750 
Q 3378 4750 3804 4662 
Q 4231 4575 4609 4403 
L 4609 3438 
Q 4219 3659 3833 3768 
Q 3447 3878 3059 3878 
Q 2341 3878 1952 3476 
Q 1563 3075 1563 2328 
Q 1563 1588 1938 1184 
Q 2313 781 3003 781 
Q 3191 781 3352 804 
Q 3513 828 3641 878 
L 3641 1784 
L 2906 1784 
L 2906 2591 
L 4781 2591 
L 4781 347 
z
" transform="scale(0.015625)"/>
      <path id="DejaVuSans-Bold-64" d="M 2919 2988 
L 2919 4863 
L 4044 4863 
L 4044 0 
L 2919 0 
L 2919 506 
Q 2688 197 2409 53 
Q 2131 -91 1766 -91 
Q 1119 -91 703 423 
Q 288 938 288 1747 
Q 288 2556 703 3070 
Q 1119 3584 1766 3584 
Q 2128 3584 2408 3439 
Q 2688 3294 2919 2988 
z
M 2181 722 
Q 2541 722 2730 984 
Q 2919 1247 2919 1747 
Q 2919 2247 2730 2509 
Q 2541 2772 2181 2772 
Q 1825 2772 1636 2509 
Q 1447 2247 1447 1747 
Q 1447 1247 1636 984 
Q 1825 722 2181 722 
z
" transform="scale(0.015625)"/>
      <path id="DejaVuSans-Oblique-3bc" d="M -84 -1331 
L 856 3500 
L 1434 3500 
L 1009 1322 
Q 997 1256 987 1175 
Q 978 1094 978 1013 
Q 978 722 1161 565 
Q 1344 409 1684 409 
Q 2147 409 2431 671 
Q 2716 934 2816 1459 
L 3213 3500 
L 3788 3500 
L 3266 809 
Q 3253 750 3248 706 
Q 3244 663 3244 628 
Q 3244 531 3283 486 
Q 3322 441 3406 441 
Q 3438 441 3492 456 
Q 3547 472 3647 513 
L 3559 50 
Q 3422 -19 3297 -55 
Q 3172 -91 3053 -91 
Q 2847 -91 2730 40 
Q 2613 172 2613 403 
Q 2438 153 2195 31 
Q 1953 -91 1625 -91 
Q 1334 -91 1117 43 
Q 900 178 831 397 
L 494 -1331 
L -84 -1331 
z
" transform="scale(0.015625)"/>
     </defs>
     <use xlink:href="#DejaVuSans-Bold-47" transform="translate(0 0.015625)"/>
     <use xlink:href="#DejaVuSans-Bold-72" transform="translate(82.080078 0.015625)"/>
     <use xlink:href="#DejaVuSans-Bold-61" transform="translate(131.396484 0.015625)"/>
     <use xlink:href="#DejaVuSans-Bold-6e" transform="translate(198.876953 0.015625)"/>
     <use xlink:href="#DejaVuSans-Bold-64" transform="translate(270.068359 0.015625)"/>
     <use xlink:href="#DejaVuSans-Bold-20" transform="translate(341.650391 0.015625)"/>
     <use xlink:href="#DejaVuSans-Bold-43" transform="translate(376.464844 0.015625)"/>
     <use xlink:href="#DejaVuSans-Bold-61" transform="translate(449.853516 0.015625)"/>
     <use xlink:href="#DejaVuSans-Bold-6e" transform="translate(517.333984 0.015625)"/>
     <use xlink:href="#DejaVuSans-Bold-6f" transform="translate(588.525391 0.015625)"/>
     <use xlink:href="#DejaVuSans-Bold-6e" transform="translate(657.226562 0.015625)"/>
     <use xlink:href="#DejaVuSans-Bold-69" transform="translate(728.417969 0.015625)"/>
     <use xlink:href="#DejaVuSans-Bold-63" transform="translate(762.695312 0.015625)"/>
     <use xlink:href="#DejaVuSans-Bold-61" transform="translate(821.972656 0.015625)"/>
     <use xlink:href="#DejaVuSans-Bold-6c" transform="translate(889.453125 0.015625)"/>
     <use xlink:href="#DejaVuSans-Bold-20" transform="translate(923.730469 0.015625)"/>
     <use xlink:href="#DejaVuSans-Bold-28" transform="translate(958.544922 0.015625)"/>
     <use xlink:href="#DejaVuSans-Oblique-3bc" transform="translate(1004.248047 0.015625)"/>
     <use xlink:href="#DejaVuSans-Bold-56" transform="translate(1067.871094 0.015625)"/>
     <use xlink:href="#DejaVuSans-Bold-54" transform="translate(1145.263672 0.015625)"/>
     <use xlink:href="#DejaVuSans-Bold-29" transform="translate(1213.476562 0.015625)"/>
    </g>
   </g>
   <g id="text_17">
    <!-- Fixed: $\mu$, V, T -->
    <g style="fill: #333333" transform="translate(432.371429 442.457495) scale(0.1 -0.1)">
     <use xlink:href="#DejaVuSans-46" transform="translate(0 0.015625)"/>
     <use xlink:href="#DejaVuSans-69" transform="translate(57.519531 0.015625)"/>
     <use xlink:href="#DejaVuSans-78" transform="translate(85.302734 0.015625)"/>
     <use xlink:href="#DejaVuSans-65" transform="translate(144.482422 0.015625)"/>
     <use xlink:href="#DejaVuSans-64" transform="translate(206.005859 0.015625)"/>
     <use xlink:href="#DejaVuSans-3a" transform="translate(269.482422 0.015625)"/>
     <use xlink:href="#DejaVuSans-20" transform="translate(303.173828 0.015625)"/>
     <use xlink:href="#DejaVuSans-Oblique-3bc" transform="translate(334.960938 0.015625)"/>
     <use xlink:href="#DejaVuSans-2c" transform="translate(398.583984 0.015625)"/>
     <use xlink:href="#DejaVuSans-20" transform="translate(430.371094 0.015625)"/>
     <use xlink:href="#DejaVuSans-56" transform="translate(462.158203 0.015625)"/>
     <use xlink:href="#DejaVuSans-2c" transform="translate(530.566406 0.015625)"/>
     <use xlink:href="#DejaVuSans-20" transform="translate(562.353516 0.015625)"/>
     <use xlink:href="#DejaVuSans-54" transform="translate(594.140625 0.015625)"/>
    </g>
   </g>
   <g id="text_18">
    <!-- $\Xi = \sum Z_N\, e^{\beta \mu N}$ -->
    <g style="fill: #222222" transform="translate(430.411429 465.788524) scale(0.11 -0.11)">
     <defs>
      <path id="DejaVuSans-39e" d="M 956 2753 
L 3178 2753 
L 3178 2222 
L 956 2222 
L 956 2753 
z
M 628 4666 
L 3506 4666 
L 3506 4134 
L 628 4134 
L 628 4666 
z
M 628 531 
L 3506 531 
L 3506 0 
L 628 0 
L 628 531 
z
" transform="scale(0.015625)"/>
     </defs>
     <use xlink:href="#DejaVuSans-39e" transform="translate(0 0.296875)"/>
     <use xlink:href="#DejaVuSans-3d" transform="translate(82.666016 0.296875)"/>
     <use xlink:href="#DejaVuSansDisplay-2211" transform="translate(185.9375 0.296875)"/>
     <use xlink:href="#DejaVuSans-Oblique-5a" transform="translate(281.201172 0.296875)"/>
     <use xlink:href="#DejaVuSans-Oblique-4e" transform="translate(349.707031 -16.109375) scale(0.7)"/>
     <use xlink:href="#DejaVuSans-Oblique-65" transform="translate(421.040364 0.296875)"/>
     <use xlink:href="#DejaVuSans-Oblique-3b2" transform="translate(487.213697 38.578125) scale(0.7)"/>
     <use xlink:href="#DejaVuSans-Oblique-3bc" transform="translate(531.886549 38.578125) scale(0.7)"/>
     <use xlink:href="#DejaVuSans-Oblique-4e" transform="translate(576.422681 38.578125) scale(0.7)"/>
    </g>
   </g>
   <g id="text_19">
    <!-- $\Psi = -k_BT \ln \Xi = -PV$ -->
    <g style="fill: #444444" transform="translate(414.718929 486.090043) scale(0.105 -0.105)">
     <defs>
      <path id="DejaVuSans-3a8" d="M 2206 0 
Q 2209 419 2206 969 
Q 1538 969 950 1625 
Q 375 2263 359 3388 
L 359 4666 
L 1025 4666 
L 1025 3388 
Q 1025 2506 1431 1994 
Q 1775 1556 2206 1513 
L 2206 4666 
L 2838 4666 
L 2838 1513 
Q 3269 1556 3613 1994 
Q 4019 2506 4019 3388 
L 4019 4666 
L 4684 4666 
L 4684 3388 
Q 4669 2263 4094 1625 
Q 3506 969 2838 969 
Q 2834 744 2838 0 
L 2206 0 
z
" transform="scale(0.015625)"/>
      <path id="DejaVuSans-Oblique-50" d="M 1081 4666 
L 2541 4666 
Q 3178 4666 3512 4369 
Q 3847 4072 3847 3500 
Q 3847 2731 3353 2303 
Q 2859 1875 1966 1875 
L 1172 1875 
L 806 0 
L 172 0 
L 1081 4666 
z
M 1613 4147 
L 1275 2394 
L 2069 2394 
Q 2606 2394 2893 2669 
Q 3181 2944 3181 3456 
Q 3181 3784 2986 3965 
Q 2791 4147 2438 4147 
L 1613 4147 
z
" transform="scale(0.015625)"/>
     </defs>
     <use xlink:href="#DejaVuSans-3a8" transform="translate(0 0.015625)"/>
     <use xlink:href="#DejaVuSans-3d" transform="translate(98.193359 0.015625)"/>
     <use xlink:href="#DejaVuSans-2212" transform="translate(201.464844 0.015625)"/>
     <use xlink:href="#DejaVuSans-Oblique-6b" transform="translate(285.253906 0.015625)"/>
     <use xlink:href="#DejaVuSans-Oblique-42" transform="translate(343.164062 -16.390625) scale(0.7)"/>
     <use xlink:href="#DejaVuSans-Oblique-54" transform="translate(393.920898 0.015625)"/>
     <use xlink:href="#DejaVuSans-6c" transform="translate(455.004883 0.015625)"/>
     <use xlink:href="#DejaVuSans-6e" transform="translate(482.788086 0.015625)"/>
     <use xlink:href="#DejaVuSans-39e" transform="translate(562.402668 0.015625)"/>
     <use xlink:href="#DejaVuSans-3d" transform="translate(645.068684 0.015625)"/>
     <use xlink:href="#DejaVuSans-2212" transform="translate(748.340168 0.015625)"/>
     <use xlink:href="#DejaVuSans-Oblique-50" transform="translate(832.129231 0.015625)"/>
     <use xlink:href="#DejaVuSans-Oblique-56" transform="translate(892.431965 0.015625)"/>
    </g>
   </g>
   <g id="text_20">
    <!-- $\sigma_N^2 = N^2 k_BT \kappa_T / V$ -->
    <g style="fill: #666666" transform="translate(431.556429 505.891311) scale(0.09 -0.09)">
     <defs>
      <path id="DejaVuSans-2f" d="M 1625 4666 
L 2156 4666 
L 531 -594 
L 0 -594 
L 1625 4666 
z
" transform="scale(0.015625)"/>
     </defs>
     <use xlink:href="#DejaVuSans-Oblique-3c3" transform="translate(0 0.765625)"/>
     <use xlink:href="#DejaVuSans-32" transform="translate(67.851615 39.046875) scale(0.7)"/>
     <use xlink:href="#DejaVuSans-Oblique-4e" transform="translate(63.378906 -26.578125) scale(0.7)"/>
     <use xlink:href="#DejaVuSans-3d" transform="translate(137.958984 0.765625)"/>
     <use xlink:href="#DejaVuSans-Oblique-4e" transform="translate(241.230469 0.765625)"/>
     <use xlink:href="#DejaVuSans-32" transform="translate(323.051927 39.046875) scale(0.7)"/>
     <use xlink:href="#DejaVuSans-Oblique-6b" transform="translate(370.322435 0.765625)"/>
     <use xlink:href="#DejaVuSans-Oblique-42" transform="translate(428.232591 -15.640625) scale(0.7)"/>
     <use xlink:href="#DejaVuSans-Oblique-54" transform="translate(478.989427 0.765625)"/>
     <use xlink:href="#DejaVuSans-Oblique-3ba" transform="translate(540.073411 0.765625)"/>
     <use xlink:href="#DejaVuSans-Oblique-54" transform="translate(599.008958 -15.640625) scale(0.7)"/>
     <use xlink:href="#DejaVuSans-2f" transform="translate(644.502122 0.765625)"/>
     <use xlink:href="#DejaVuSans-Oblique-56" transform="translate(678.193529 0.765625)"/>
    </g>
   </g>
   <g id="patch_6">
    <path d="M 276.938102 199.733592 
Q 306.644442 199.733592 332.99668 199.733592 
" clip-path="url(#p59f245790c)" style="fill: none; stroke: #5555aa; stroke-width: 3; stroke-linecap: round"/>
    <path d="M 324.99668 195.733592 
L 332.99668 199.733592 
L 324.99668 203.733592 
" clip-path="url(#p59f245790c)" style="fill: none; stroke: #5555aa; stroke-width: 3; stroke-linecap: round"/>
   </g>
   <g id="patch_7">
    <path d="M 593.995244 199.733592 
Q 623.701585 199.733592 650.053823 199.733592 
" clip-path="url(#p59f245790c)" style="fill: none; stroke: #aa4444; stroke-width: 3; stroke-linecap: round"/>
    <path d="M 642.053823 195.733592 
L 650.053823 199.733592 
L 642.053823 203.733592 
" clip-path="url(#p59f245790c)" style="fill: none; stroke: #aa4444; stroke-width: 3; stroke-linecap: round"/>
   </g>
   <g id="patch_8">
    <path d="M 465.171429 260.785376 
Q 465.171429 328.576143 465.171429 393.012807 
" clip-path="url(#p59f245790c)" style="fill: none; stroke: #aa7700; stroke-width: 3; stroke-linecap: round"/>
    <path d="M 469.171429 385.012807 
L 465.171429 393.012807 
L 461.171429 385.012807 
" clip-path="url(#p59f245790c)" style="fill: none; stroke: #aa7700; stroke-width: 3; stroke-linecap: round"/>
   </g>
   <g id="text_21">
    <g id="patch_9">
     <path d="M 278.450357 188.730626 
L 334.835357 188.730626 
Q 336.935357 188.730626 336.935357 186.630626 
L 336.935357 172.035626 
Q 336.935357 169.935626 334.835357 169.935626 
L 278.450357 169.935626 
Q 276.350357 169.935626 276.350357 172.035626 
L 276.350357 186.630626 
Q 276.350357 188.730626 278.450357 188.730626 
z
" style="fill: #ffffff; opacity: 0.9"/>
    </g>
    <!-- $\int dE\;\Omega\, e^{-\beta E}$ -->
    <g style="fill: #5555aa" transform="translate(278.450357 183.375626) scale(0.105 -0.105)">
     <use xlink:href="#DejaVuSansDisplay-222b" transform="translate(0 0.96875)"/>
     <use xlink:href="#DejaVuSans-Oblique-64" transform="translate(73.632812 0.96875)"/>
     <use xlink:href="#DejaVuSans-Oblique-45" transform="translate(137.109375 0.96875)"/>
     <use xlink:href="#DejaVuSans-3a9" transform="translate(227.352104 0.96875)"/>
     <use xlink:href="#DejaVuSans-Oblique-65" transform="translate(320.003796 0.96875)"/>
     <use xlink:href="#DejaVuSans-2212" transform="translate(386.17713 39.25) scale(0.7)"/>
     <use xlink:href="#DejaVuSans-Oblique-3b2" transform="translate(444.829473 39.25) scale(0.7)"/>
     <use xlink:href="#DejaVuSans-Oblique-45" transform="translate(489.502325 39.25) scale(0.7)"/>
    </g>
   </g>
   <g id="text_22">
    <g id="patch_10">
     <path d="M 273.323873 222.618088 
L 339.961842 222.618088 
Q 341.311842 222.618088 341.311842 221.268088 
L 341.311842 212.557776 
Q 341.311842 211.207776 339.961842 211.207776 
L 273.323873 211.207776 
Q 271.973873 211.207776 271.973873 212.557776 
L 271.973873 221.268088 
Q 271.973873 222.618088 273.323873 222.618088 
z
" style="fill: #ffffff; opacity: 0.9"/>
    </g>
    <!-- release E, fix T -->
    <g style="fill: #555555" transform="translate(273.323873 219.39637) scale(0.09 -0.09)">
     <defs>
      <path id="DejaVuSans-Oblique-72" d="M 2853 2969 
Q 2766 3016 2653 3041 
Q 2541 3066 2413 3066 
Q 1953 3066 1609 2717 
Q 1266 2369 1153 1784 
L 800 0 
L 225 0 
L 909 3500 
L 1484 3500 
L 1375 2956 
Q 1603 3259 1920 3421 
Q 2238 3584 2597 3584 
Q 2691 3584 2781 3573 
Q 2872 3563 2963 3538 
L 2853 2969 
z
" transform="scale(0.015625)"/>
      <path id="DejaVuSans-Oblique-2c" d="M 575 794 
L 1234 794 
L 1131 256 
L 422 -744 
L 19 -744 
L 469 256 
L 575 794 
z
" transform="scale(0.015625)"/>
      <path id="DejaVuSans-Oblique-78" d="M 3841 3500 
L 2234 1784 
L 3219 0 
L 2559 0 
L 1819 1388 
L 531 0 
L -166 0 
L 1556 1844 
L 641 3500 
L 1300 3500 
L 1972 2234 
L 3144 3500 
L 3841 3500 
z
" transform="scale(0.015625)"/>
     </defs>
     <use xlink:href="#DejaVuSans-Oblique-72"/>
     <use xlink:href="#DejaVuSans-Oblique-65" transform="translate(41.113281 0)"/>
     <use xlink:href="#DejaVuSans-Oblique-6c" transform="translate(102.636719 0)"/>
     <use xlink:href="#DejaVuSans-Oblique-65" transform="translate(130.419922 0)"/>
     <use xlink:href="#DejaVuSans-Oblique-61" transform="translate(191.943359 0)"/>
     <use xlink:href="#DejaVuSans-Oblique-73" transform="translate(253.222656 0)"/>
     <use xlink:href="#DejaVuSans-Oblique-65" transform="translate(305.322266 0)"/>
     <use xlink:href="#DejaVuSans-Oblique-20" transform="translate(366.845703 0)"/>
     <use xlink:href="#DejaVuSans-Oblique-45" transform="translate(398.632812 0)"/>
     <use xlink:href="#DejaVuSans-Oblique-2c" transform="translate(461.816406 0)"/>
     <use xlink:href="#DejaVuSans-Oblique-20" transform="translate(493.603516 0)"/>
     <use xlink:href="#DejaVuSans-Oblique-66" transform="translate(525.390625 0)"/>
     <use xlink:href="#DejaVuSans-Oblique-69" transform="translate(560.595703 0)"/>
     <use xlink:href="#DejaVuSans-Oblique-78" transform="translate(588.378906 0)"/>
     <use xlink:href="#DejaVuSans-Oblique-20" transform="translate(647.558594 0)"/>
     <use xlink:href="#DejaVuSans-Oblique-54" transform="translate(679.345703 0)"/>
    </g>
   </g>
   <g id="text_23">
    <g id="patch_11">
     <path d="M 593.145 188.730626 
L 654.255 188.730626 
Q 656.355 188.730626 656.355 186.630626 
L 656.355 172.035626 
Q 656.355 169.935626 654.255 169.935626 
L 593.145 169.935626 
Q 591.045 169.935626 591.045 172.035626 
L 591.045 186.630626 
Q 591.045 188.730626 593.145 188.730626 
z
" style="fill: #ffffff; opacity: 0.9"/>
    </g>
    <!-- $\int dV\; Z\, e^{-\beta pV}$ -->
    <g style="fill: #aa4444" transform="translate(593.145 183.375626) scale(0.105 -0.105)">
     <use xlink:href="#DejaVuSansDisplay-222b" transform="translate(0 0.96875)"/>
     <use xlink:href="#DejaVuSans-Oblique-64" transform="translate(73.632812 0.96875)"/>
     <use xlink:href="#DejaVuSans-Oblique-56" transform="translate(137.109375 0.96875)"/>
     <use xlink:href="#DejaVuSans-Oblique-5a" transform="translate(232.576714 0.96875)"/>
     <use xlink:href="#DejaVuSans-Oblique-65" transform="translate(317.31825 0.96875)"/>
     <use xlink:href="#DejaVuSans-2212" transform="translate(383.491583 39.25) scale(0.7)"/>
     <use xlink:href="#DejaVuSans-Oblique-3b2" transform="translate(442.143927 39.25) scale(0.7)"/>
     <use xlink:href="#DejaVuSans-Oblique-70" transform="translate(486.816778 39.25) scale(0.7)"/>
     <use xlink:href="#DejaVuSans-Oblique-56" transform="translate(531.250372 39.25) scale(0.7)"/>
    </g>
   </g>
   <g id="text_24">
    <g id="patch_12">
     <path d="M 590.555391 222.618088 
L 656.844609 222.618088 
Q 658.194609 222.618088 658.194609 221.268088 
L 658.194609 212.557776 
Q 658.194609 211.207776 656.844609 211.207776 
L 590.555391 211.207776 
Q 589.205391 211.207776 589.205391 212.557776 
L 589.205391 221.268088 
Q 589.205391 222.618088 590.555391 222.618088 
z
" style="fill: #ffffff; opacity: 0.9"/>
    </g>
    <!-- release V, fix p -->
    <g style="fill: #555555" transform="translate(590.555391 219.39637) scale(0.09 -0.09)">
     <use xlink:href="#DejaVuSans-Oblique-72"/>
     <use xlink:href="#DejaVuSans-Oblique-65" transform="translate(41.113281 0)"/>
     <use xlink:href="#DejaVuSans-Oblique-6c" transform="translate(102.636719 0)"/>
     <use xlink:href="#DejaVuSans-Oblique-65" transform="translate(130.419922 0)"/>
     <use xlink:href="#DejaVuSans-Oblique-61" transform="translate(191.943359 0)"/>
     <use xlink:href="#DejaVuSans-Oblique-73" transform="translate(253.222656 0)"/>
     <use xlink:href="#DejaVuSans-Oblique-65" transform="translate(305.322266 0)"/>
     <use xlink:href="#DejaVuSans-Oblique-20" transform="translate(366.845703 0)"/>
     <use xlink:href="#DejaVuSans-Oblique-56" transform="translate(398.632812 0)"/>
     <use xlink:href="#DejaVuSans-Oblique-2c" transform="translate(455.541016 0)"/>
     <use xlink:href="#DejaVuSans-Oblique-20" transform="translate(487.328125 0)"/>
     <use xlink:href="#DejaVuSans-Oblique-66" transform="translate(519.115234 0)"/>
     <use xlink:href="#DejaVuSans-Oblique-69" transform="translate(554.320312 0)"/>
     <use xlink:href="#DejaVuSans-Oblique-78" transform="translate(582.103516 0)"/>
     <use xlink:href="#DejaVuSans-Oblique-20" transform="translate(641.283203 0)"/>
     <use xlink:href="#DejaVuSans-Oblique-70" transform="translate(673.070312 0)"/>
    </g>
   </g>
   <g id="text_25">
    <g id="patch_13">
     <path d="M 479.262857 327.704782 
L 525.672857 327.704782 
Q 527.772857 327.704782 527.772857 325.604782 
L 527.772857 304.709782 
Q 527.772857 302.609782 525.672857 302.609782 
L 479.262857 302.609782 
Q 477.162857 302.609782 477.162857 304.709782 
L 477.162857 325.604782 
Q 477.162857 327.704782 479.262857 327.704782 
z
" style="fill: #ffffff; opacity: 0.9"/>
    </g>
    <!-- $\sum_N Z_N\, e^{\beta \mu N}$ -->
    <g style="fill: #aa7700" transform="translate(479.262857 315.419782) scale(0.105 -0.105)">
     <use xlink:href="#DejaVuSansDisplay-2211" transform="translate(0 0.296875)"/>
     <use xlink:href="#DejaVuSans-Oblique-4e" transform="translate(21 -96.64375) scale(0.7)"/>
     <use xlink:href="#DejaVuSans-Oblique-5a" transform="translate(90.765625 0.296875)"/>
     <use xlink:href="#DejaVuSans-Oblique-4e" transform="translate(159.271484 -16.109375) scale(0.7)"/>
     <use xlink:href="#DejaVuSans-Oblique-65" transform="translate(230.604817 0.296875)"/>
     <use xlink:href="#DejaVuSans-Oblique-3b2" transform="translate(296.77815 38.578125) scale(0.7)"/>
     <use xlink:href="#DejaVuSans-Oblique-3bc" transform="translate(341.451002 38.578125) scale(0.7)"/>
     <use xlink:href="#DejaVuSans-Oblique-4e" transform="translate(385.987135 38.578125) scale(0.7)"/>
    </g>
   </g>
   <g id="text_26">
    <g id="patch_14">
     <path d="M 479.262857 347.715 
L 547.212857 347.715 
Q 548.562857 347.715 548.562857 346.365 
L 548.562857 337.635 
Q 548.562857 336.285 547.212857 336.285 
L 479.262857 336.285 
Q 477.912857 336.285 477.912857 337.635 
L 477.912857 346.365 
Q 477.912857 347.715 479.262857 347.715 
z
" style="fill: #ffffff; opacity: 0.9"/>
    </g>
    <!-- release N, fix $\mu$ -->
    <g style="fill: #555555" transform="translate(479.262857 344.475) scale(0.09 -0.09)">
     <use xlink:href="#DejaVuSans-Oblique-72" transform="translate(0 0.015625)"/>
     <use xlink:href="#DejaVuSans-Oblique-65" transform="translate(41.113281 0.015625)"/>
     <use xlink:href="#DejaVuSans-Oblique-6c" transform="translate(102.636719 0.015625)"/>
     <use xlink:href="#DejaVuSans-Oblique-65" transform="translate(130.419922 0.015625)"/>
     <use xlink:href="#DejaVuSans-Oblique-61" transform="translate(191.943359 0.015625)"/>
     <use xlink:href="#DejaVuSans-Oblique-73" transform="translate(253.222656 0.015625)"/>
     <use xlink:href="#DejaVuSans-Oblique-65" transform="translate(305.322266 0.015625)"/>
     <use xlink:href="#DejaVuSans-Oblique-20" transform="translate(366.845703 0.015625)"/>
     <use xlink:href="#DejaVuSans-Oblique-4e" transform="translate(398.632812 0.015625)"/>
     <use xlink:href="#DejaVuSans-Oblique-2c" transform="translate(473.4375 0.015625)"/>
     <use xlink:href="#DejaVuSans-Oblique-20" transform="translate(505.224609 0.015625)"/>
     <use xlink:href="#DejaVuSans-Oblique-66" transform="translate(537.011719 0.015625)"/>
     <use xlink:href="#DejaVuSans-Oblique-69" transform="translate(572.216797 0.015625)"/>
     <use xlink:href="#DejaVuSans-Oblique-78" transform="translate(600 0.015625)"/>
     <use xlink:href="#DejaVuSans-Oblique-20" transform="translate(659.179688 0.015625)"/>
     <use xlink:href="#DejaVuSans-Oblique-3bc" transform="translate(690.966797 0.015625)"/>
    </g>
   </g>
   <g id="text_27">
    <g id="patch_15">
     <path d="M 225.711797 591.741518 
L 775.088203 591.741518 
Q 780.338203 591.741518 780.338203 586.491518 
L 780.338203 564.571783 
Q 780.338203 559.321783 775.088203 559.321783 
L 225.711797 559.321783 
Q 220.461797 559.321783 220.461797 564.571783 
L 220.461797 586.491518 
Q 220.461797 591.741518 225.711797 591.741518 
z
" style="fill: #f0f0f0; stroke: #bbbbbb; stroke-width: 1.5; stroke-linejoin: miter"/>
    </g>
    <!-- Each arrow = Laplace transform of partition function = Legendre transform of thermodynamic potential. -->
    <g style="fill: #444444" transform="translate(225.711797 572.550143) scale(0.105 -0.105)">
     <defs>
      <path id="DejaVuSans-61" d="M 2194 1759 
Q 1497 1759 1228 1600 
Q 959 1441 959 1056 
Q 959 750 1161 570 
Q 1363 391 1709 391 
Q 2188 391 2477 730 
Q 2766 1069 2766 1631 
L 2766 1759 
L 2194 1759 
z
M 3341 1997 
L 3341 0 
L 2766 0 
L 2766 531 
Q 2569 213 2275 61 
Q 1981 -91 1556 -91 
Q 1019 -91 701 211 
Q 384 513 384 1019 
Q 384 1609 779 1909 
Q 1175 2209 1959 2209 
L 2766 2209 
L 2766 2266 
Q 2766 2663 2505 2880 
Q 2244 3097 1772 3097 
Q 1472 3097 1187 3025 
Q 903 2953 641 2809 
L 641 3341 
Q 956 3463 1253 3523 
Q 1550 3584 1831 3584 
Q 2591 3584 2966 3190 
Q 3341 2797 3341 1997 
z
" transform="scale(0.015625)"/>
      <path id="DejaVuSans-63" d="M 3122 3366 
L 3122 2828 
Q 2878 2963 2633 3030 
Q 2388 3097 2138 3097 
Q 1578 3097 1268 2742 
Q 959 2388 959 1747 
Q 959 1106 1268 751 
Q 1578 397 2138 397 
Q 2388 397 2633 464 
Q 2878 531 3122 666 
L 3122 134 
Q 2881 22 2623 -34 
Q 2366 -91 2075 -91 
Q 1284 -91 818 406 
Q 353 903 353 1747 
Q 353 2603 823 3093 
Q 1294 3584 2113 3584 
Q 2378 3584 2631 3529 
Q 2884 3475 3122 3366 
z
" transform="scale(0.015625)"/>
      <path id="DejaVuSans-68" d="M 3513 2113 
L 3513 0 
L 2938 0 
L 2938 2094 
Q 2938 2591 2744 2837 
Q 2550 3084 2163 3084 
Q 1697 3084 1428 2787 
Q 1159 2491 1159 1978 
L 1159 0 
L 581 0 
L 581 4863 
L 1159 4863 
L 1159 2956 
Q 1366 3272 1645 3428 
Q 1925 3584 2291 3584 
Q 2894 3584 3203 3211 
Q 3513 2838 3513 2113 
z
" transform="scale(0.015625)"/>
      <path id="DejaVuSans-72" d="M 2631 2963 
Q 2534 3019 2420 3045 
Q 2306 3072 2169 3072 
Q 1681 3072 1420 2755 
Q 1159 2438 1159 1844 
L 1159 0 
L 581 0 
L 581 3500 
L 1159 3500 
L 1159 2956 
Q 1341 3275 1631 3429 
Q 1922 3584 2338 3584 
Q 2397 3584 2469 3576 
Q 2541 3569 2628 3553 
L 2631 2963 
z
" transform="scale(0.015625)"/>
      <path id="DejaVuSans-6f" d="M 1959 3097 
Q 1497 3097 1228 2736 
Q 959 2375 959 1747 
Q 959 1119 1226 758 
Q 1494 397 1959 397 
Q 2419 397 2687 759 
Q 2956 1122 2956 1747 
Q 2956 2369 2687 2733 
Q 2419 3097 1959 3097 
z
M 1959 3584 
Q 2709 3584 3137 3096 
Q 3566 2609 3566 1747 
Q 3566 888 3137 398 
Q 2709 -91 1959 -91 
Q 1206 -91 779 398 
Q 353 888 353 1747 
Q 353 2609 779 3096 
Q 1206 3584 1959 3584 
z
" transform="scale(0.015625)"/>
      <path id="DejaVuSans-77" d="M 269 3500 
L 844 3500 
L 1563 769 
L 2278 3500 
L 2956 3500 
L 3675 769 
L 4391 3500 
L 4966 3500 
L 4050 0 
L 3372 0 
L 2619 2869 
L 1863 0 
L 1184 0 
L 269 3500 
z
" transform="scale(0.015625)"/>
      <path id="DejaVuSans-4c" d="M 628 4666 
L 1259 4666 
L 1259 531 
L 3531 531 
L 3531 0 
L 628 0 
L 628 4666 
z
" transform="scale(0.015625)"/>
      <path id="DejaVuSans-74" d="M 1172 4494 
L 1172 3500 
L 2356 3500 
L 2356 3053 
L 1172 3053 
L 1172 1153 
Q 1172 725 1289 603 
Q 1406 481 1766 481 
L 2356 481 
L 2356 0 
L 1766 0 
Q 1100 0 847 248 
Q 594 497 594 1153 
L 594 3053 
L 172 3053 
L 172 3500 
L 594 3500 
L 594 4494 
L 1172 4494 
z
" transform="scale(0.015625)"/>
      <path id="DejaVuSans-73" d="M 2834 3397 
L 2834 2853 
Q 2591 2978 2328 3040 
Q 2066 3103 1784 3103 
Q 1356 3103 1142 2972 
Q 928 2841 928 2578 
Q 928 2378 1081 2264 
Q 1234 2150 1697 2047 
L 1894 2003 
Q 2506 1872 2764 1633 
Q 3022 1394 3022 966 
Q 3022 478 2636 193 
Q 2250 -91 1575 -91 
Q 1294 -91 989 -36 
Q 684 19 347 128 
L 347 722 
Q 666 556 975 473 
Q 1284 391 1588 391 
Q 1994 391 2212 530 
Q 2431 669 2431 922 
Q 2431 1156 2273 1281 
Q 2116 1406 1581 1522 
L 1381 1569 
Q 847 1681 609 1914 
Q 372 2147 372 2553 
Q 372 3047 722 3315 
Q 1072 3584 1716 3584 
Q 2034 3584 2315 3537 
Q 2597 3491 2834 3397 
z
" transform="scale(0.015625)"/>
      <path id="DejaVuSans-66" d="M 2375 4863 
L 2375 4384 
L 1825 4384 
Q 1516 4384 1395 4259 
Q 1275 4134 1275 3809 
L 1275 3500 
L 2222 3500 
L 2222 3053 
L 1275 3053 
L 1275 0 
L 697 0 
L 697 3053 
L 147 3053 
L 147 3500 
L 697 3500 
L 697 3744 
Q 697 4328 969 4595 
Q 1241 4863 1831 4863 
L 2375 4863 
z
" transform="scale(0.015625)"/>
      <path id="DejaVuSans-6d" d="M 3328 2828 
Q 3544 3216 3844 3400 
Q 4144 3584 4550 3584 
Q 5097 3584 5394 3201 
Q 5691 2819 5691 2113 
L 5691 0 
L 5113 0 
L 5113 2094 
Q 5113 2597 4934 2840 
Q 4756 3084 4391 3084 
Q 3944 3084 3684 2787 
Q 3425 2491 3425 1978 
L 3425 0 
L 2847 0 
L 2847 2094 
Q 2847 2600 2669 2842 
Q 2491 3084 2119 3084 
Q 1678 3084 1418 2786 
Q 1159 2488 1159 1978 
L 1159 0 
L 581 0 
L 581 3500 
L 1159 3500 
L 1159 2956 
Q 1356 3278 1631 3431 
Q 1906 3584 2284 3584 
Q 2666 3584 2933 3390 
Q 3200 3197 3328 2828 
z
" transform="scale(0.015625)"/>
      <path id="DejaVuSans-75" d="M 544 1381 
L 544 3500 
L 1119 3500 
L 1119 1403 
Q 1119 906 1312 657 
Q 1506 409 1894 409 
Q 2359 409 2629 706 
Q 2900 1003 2900 1516 
L 2900 3500 
L 3475 3500 
L 3475 0 
L 2900 0 
L 2900 538 
Q 2691 219 2414 64 
Q 2138 -91 1772 -91 
Q 1169 -91 856 284 
Q 544 659 544 1381 
z
M 1991 3584 
L 1991 3584 
z
" transform="scale(0.015625)"/>
      <path id="DejaVuSans-67" d="M 2906 1791 
Q 2906 2416 2648 2759 
Q 2391 3103 1925 3103 
Q 1463 3103 1205 2759 
Q 947 2416 947 1791 
Q 947 1169 1205 825 
Q 1463 481 1925 481 
Q 2391 481 2648 825 
Q 2906 1169 2906 1791 
z
M 3481 434 
Q 3481 -459 3084 -895 
Q 2688 -1331 1869 -1331 
Q 1566 -1331 1297 -1286 
Q 1028 -1241 775 -1147 
L 775 -588 
Q 1028 -725 1275 -790 
Q 1522 -856 1778 -856 
Q 2344 -856 2625 -561 
Q 2906 -266 2906 331 
L 2906 616 
Q 2728 306 2450 153 
Q 2172 0 1784 0 
Q 1141 0 747 490 
Q 353 981 353 1791 
Q 353 2603 747 3093 
Q 1141 3584 1784 3584 
Q 2172 3584 2450 3431 
Q 2728 3278 2906 2969 
L 2906 3500 
L 3481 3500 
L 3481 434 
z
" transform="scale(0.015625)"/>
      <path id="DejaVuSans-79" d="M 2059 -325 
Q 1816 -950 1584 -1140 
Q 1353 -1331 966 -1331 
L 506 -1331 
L 506 -850 
L 844 -850 
Q 1081 -850 1212 -737 
Q 1344 -625 1503 -206 
L 1606 56 
L 191 3500 
L 800 3500 
L 1894 763 
L 2988 3500 
L 3597 3500 
L 2059 -325 
z
" transform="scale(0.015625)"/>
      <path id="DejaVuSans-2e" d="M 684 794 
L 1344 794 
L 1344 0 
L 684 0 
L 684 794 
z
" transform="scale(0.015625)"/>
     </defs>
     <use xlink:href="#DejaVuSans-45"/>
     <use xlink:href="#DejaVuSans-61" transform="translate(63.183594 0)"/>
     <use xlink:href="#DejaVuSans-63" transform="translate(124.462891 0)"/>
     <use xlink:href="#DejaVuSans-68" transform="translate(179.443359 0)"/>
     <use xlink:href="#DejaVuSans-20" transform="translate(242.822266 0)"/>
     <use xlink:href="#DejaVuSans-61" transform="translate(274.609375 0)"/>
     <use xlink:href="#DejaVuSans-72" transform="translate(335.888672 0)"/>
     <use xlink:href="#DejaVuSans-72" transform="translate(375.251953 0)"/>
     <use xlink:href="#DejaVuSans-6f" transform="translate(414.115234 0)"/>
     <use xlink:href="#DejaVuSans-77" transform="translate(475.296875 0)"/>
     <use xlink:href="#DejaVuSans-20" transform="translate(557.083984 0)"/>
     <use xlink:href="#DejaVuSans-3d" transform="translate(588.871094 0)"/>
     <use xlink:href="#DejaVuSans-20" transform="translate(672.660156 0)"/>
     <use xlink:href="#DejaVuSans-4c" transform="translate(704.447266 0)"/>
     <use xlink:href="#DejaVuSans-61" transform="translate(760.160156 0)"/>
     <use xlink:href="#DejaVuSans-70" transform="translate(821.439453 0)"/>
     <use xlink:href="#DejaVuSans-6c" transform="translate(884.916016 0)"/>
     <use xlink:href="#DejaVuSans-61" transform="translate(912.699219 0)"/>
     <use xlink:href="#DejaVuSans-63" transform="translate(973.978516 0)"/>
     <use xlink:href="#DejaVuSans-65" transform="translate(1028.958984 0)"/>
     <use xlink:href="#DejaVuSans-20" transform="translate(1090.482422 0)"/>
     <use xlink:href="#DejaVuSans-74" transform="translate(1122.269531 0)"/>
     <use xlink:href="#DejaVuSans-72" transform="translate(1161.478516 0)"/>
     <use xlink:href="#DejaVuSans-61" transform="translate(1202.591797 0)"/>
     <use xlink:href="#DejaVuSans-6e" transform="translate(1263.871094 0)"/>
     <use xlink:href="#DejaVuSans-73" transform="translate(1327.25 0)"/>
     <use xlink:href="#DejaVuSans-66" transform="translate(1379.349609 0)"/>
     <use xlink:href="#DejaVuSans-6f" transform="translate(1414.554688 0)"/>
     <use xlink:href="#DejaVuSans-72" transform="translate(1475.736328 0)"/>
     <use xlink:href="#DejaVuSans-6d" transform="translate(1515.099609 0)"/>
     <use xlink:href="#DejaVuSans-20" transform="translate(1612.511719 0)"/>
     <use xlink:href="#DejaVuSans-6f" transform="translate(1644.298828 0)"/>
     <use xlink:href="#DejaVuSans-66" transform="translate(1705.480469 0)"/>
     <use xlink:href="#DejaVuSans-20" transform="translate(1740.685547 0)"/>
     <use xlink:href="#DejaVuSans-70" transform="translate(1772.472656 0)"/>
     <use xlink:href="#DejaVuSans-61" transform="translate(1835.949219 0)"/>
     <use xlink:href="#DejaVuSans-72" transform="translate(1897.228516 0)"/>
     <use xlink:href="#DejaVuSans-74" transform="translate(1938.341797 0)"/>
     <use xlink:href="#DejaVuSans-69" transform="translate(1977.550781 0)"/>
     <use xlink:href="#DejaVuSans-74" transform="translate(2005.333984 0)"/>
     <use xlink:href="#DejaVuSans-69" transform="translate(2044.542969 0)"/>
     <use xlink:href="#DejaVuSans-6f" transform="translate(2072.326172 0)"/>
     <use xlink:href="#DejaVuSans-6e" transform="translate(2133.507812 0)"/>
     <use xlink:href="#DejaVuSans-20" transform="translate(2196.886719 0)"/>
     <use xlink:href="#DejaVuSans-66" transform="translate(2228.673828 0)"/>
     <use xlink:href="#DejaVuSans-75" transform="translate(2263.878906 0)"/>
     <use xlink:href="#DejaVuSans-6e" transform="translate(2327.257812 0)"/>
     <use xlink:href="#DejaVuSans-63" transform="translate(2390.636719 0)"/>
     <use xlink:href="#DejaVuSans-74" transform="translate(2445.617188 0)"/>
     <use xlink:href="#DejaVuSans-69" transform="translate(2484.826172 0)"/>
     <use xlink:href="#DejaVuSans-6f" transform="translate(2512.609375 0)"/>
     <use xlink:href="#DejaVuSans-6e" transform="translate(2573.791016 0)"/>
     <use xlink:href="#DejaVuSans-20" transform="translate(2637.169922 0)"/>
     <use xlink:href="#DejaVuSans-3d" transform="translate(2668.957031 0)"/>
     <use xlink:href="#DejaVuSans-20" transform="translate(2752.746094 0)"/>
     <use xlink:href="#DejaVuSans-4c" transform="translate(2784.533203 0)"/>
     <use xlink:href="#DejaVuSans-65" transform="translate(2838.496094 0)"/>
     <use xlink:href="#DejaVuSans-67" transform="translate(2900.019531 0)"/>
     <use xlink:href="#DejaVuSans-65" transform="translate(2963.496094 0)"/>
     <use xlink:href="#DejaVuSans-6e" transform="translate(3025.019531 0)"/>
     <use xlink:href="#DejaVuSans-64" transform="translate(3088.398438 0)"/>
     <use xlink:href="#DejaVuSans-72" transform="translate(3151.875 0)"/>
     <use xlink:href="#DejaVuSans-65" transform="translate(3190.738281 0)"/>
     <use xlink:href="#DejaVuSans-20" transform="translate(3252.261719 0)"/>
     <use xlink:href="#DejaVuSans-74" transform="translate(3284.048828 0)"/>
     <use xlink:href="#DejaVuSans-72" transform="translate(3323.257812 0)"/>
     <use xlink:href="#DejaVuSans-61" transform="translate(3364.371094 0)"/>
     <use xlink:href="#DejaVuSans-6e" transform="translate(3425.650391 0)"/>
     <use xlink:href="#DejaVuSans-73" transform="translate(3489.029297 0)"/>
     <use xlink:href="#DejaVuSans-66" transform="translate(3541.128906 0)"/>
     <use xlink:href="#DejaVuSans-6f" transform="translate(3576.333984 0)"/>
     <use xlink:href="#DejaVuSans-72" transform="translate(3637.515625 0)"/>
     <use xlink:href="#DejaVuSans-6d" transform="translate(3676.878906 0)"/>
     <use xlink:href="#DejaVuSans-20" transform="translate(3774.291016 0)"/>
     <use xlink:href="#DejaVuSans-6f" transform="translate(3806.078125 0)"/>
     <use xlink:href="#DejaVuSans-66" transform="translate(3867.259766 0)"/>
     <use xlink:href="#DejaVuSans-20" transform="translate(3902.464844 0)"/>
     <use xlink:href="#DejaVuSans-74" transform="translate(3934.251953 0)"/>
     <use xlink:href="#DejaVuSans-68" transform="translate(3973.460938 0)"/>
     <use xlink:href="#DejaVuSans-65" transform="translate(4036.839844 0)"/>
     <use xlink:href="#DejaVuSans-72" transform="translate(4098.363281 0)"/>
     <use xlink:href="#DejaVuSans-6d" transform="translate(4137.726562 0)"/>
     <use xlink:href="#DejaVuSans-6f" transform="translate(4235.138672 0)"/>
     <use xlink:href="#DejaVuSans-64" transform="translate(4296.320312 0)"/>
     <use xlink:href="#DejaVuSans-79" transform="translate(4359.796875 0)"/>
     <use xlink:href="#DejaVuSans-6e" transform="translate(4418.976562 0)"/>
     <use xlink:href="#DejaVuSans-61" transform="translate(4482.355469 0)"/>
     <use xlink:href="#DejaVuSans-6d" transform="translate(4543.634766 0)"/>
     <use xlink:href="#DejaVuSans-69" transform="translate(4641.046875 0)"/>
     <use xlink:href="#DejaVuSans-63" transform="translate(4668.830078 0)"/>
     <use xlink:href="#DejaVuSans-20" transform="translate(4723.810547 0)"/>
     <use xlink:href="#DejaVuSans-70" transform="translate(4755.597656 0)"/>
     <use xlink:href="#DejaVuSans-6f" transform="translate(4819.074219 0)"/>
     <use xlink:href="#DejaVuSans-74" transform="translate(4880.255859 0)"/>
     <use xlink:href="#DejaVuSans-65" transform="translate(4919.464844 0)"/>
     <use xlink:href="#DejaVuSans-6e" transform="translate(4980.988281 0)"/>
     <use xlink:href="#DejaVuSans-74" transform="translate(5044.367188 0)"/>
     <use xlink:href="#DejaVuSans-69" transform="translate(5083.576172 0)"/>
     <use xlink:href="#DejaVuSans-61" transform="translate(5111.359375 0)"/>
     <use xlink:href="#DejaVuSans-6c" transform="translate(5172.638672 0)"/>
     <use xlink:href="#DejaVuSans-2e" transform="translate(5200.421875 0)"/>
    </g>
    <!-- The fluctuating variable is integrated (summed) over; its conjugate intensive variable becomes fixed. -->
    <g style="fill: #444444" transform="translate(233.470312 584.307846) scale(0.105 -0.105)">
     <defs>
      <path id="DejaVuSans-76" d="M 191 3500 
L 800 3500 
L 1894 563 
L 2988 3500 
L 3597 3500 
L 2284 0 
L 1503 0 
L 191 3500 
z
" transform="scale(0.015625)"/>
      <path id="DejaVuSans-62" d="M 3116 1747 
Q 3116 2381 2855 2742 
Q 2594 3103 2138 3103 
Q 1681 3103 1420 2742 
Q 1159 2381 1159 1747 
Q 1159 1113 1420 752 
Q 1681 391 2138 391 
Q 2594 391 2855 752 
Q 3116 1113 3116 1747 
z
M 1159 2969 
Q 1341 3281 1617 3432 
Q 1894 3584 2278 3584 
Q 2916 3584 3314 3078 
Q 3713 2572 3713 1747 
Q 3713 922 3314 415 
Q 2916 -91 2278 -91 
Q 1894 -91 1617 61 
Q 1341 213 1159 525 
L 1159 0 
L 581 0 
L 581 4863 
L 1159 4863 
L 1159 2969 
z
" transform="scale(0.015625)"/>
      <path id="DejaVuSans-3b" d="M 750 3309 
L 1409 3309 
L 1409 2516 
L 750 2516 
L 750 3309 
z
M 750 794 
L 1409 794 
L 1409 256 
L 897 -744 
L 494 -744 
L 750 256 
L 750 794 
z
" transform="scale(0.015625)"/>
      <path id="DejaVuSans-6a" d="M 603 3500 
L 1178 3500 
L 1178 -63 
Q 1178 -731 923 -1031 
Q 669 -1331 103 -1331 
L -116 -1331 
L -116 -844 
L 38 -844 
Q 366 -844 484 -692 
Q 603 -541 603 -63 
L 603 3500 
z
M 603 4863 
L 1178 4863 
L 1178 4134 
L 603 4134 
L 603 4863 
z
" transform="scale(0.015625)"/>
     </defs>
     <use xlink:href="#DejaVuSans-54"/>
     <use xlink:href="#DejaVuSans-68" transform="translate(61.083984 0)"/>
     <use xlink:href="#DejaVuSans-65" transform="translate(124.462891 0)"/>
     <use xlink:href="#DejaVuSans-20" transform="translate(185.986328 0)"/>
     <use xlink:href="#DejaVuSans-66" transform="translate(217.773438 0)"/>
     <use xlink:href="#DejaVuSans-6c" transform="translate(252.978516 0)"/>
     <use xlink:href="#DejaVuSans-75" transform="translate(280.761719 0)"/>
     <use xlink:href="#DejaVuSans-63" transform="translate(344.140625 0)"/>
     <use xlink:href="#DejaVuSans-74" transform="translate(399.121094 0)"/>
     <use xlink:href="#DejaVuSans-75" transform="translate(438.330078 0)"/>
     <use xlink:href="#DejaVuSans-61" transform="translate(501.708984 0)"/>
     <use xlink:href="#DejaVuSans-74" transform="translate(562.988281 0)"/>
     <use xlink:href="#DejaVuSans-69" transform="translate(602.197266 0)"/>
     <use xlink:href="#DejaVuSans-6e" transform="translate(629.980469 0)"/>
     <use xlink:href="#DejaVuSans-67" transform="translate(693.359375 0)"/>
     <use xlink:href="#DejaVuSans-20" transform="translate(756.835938 0)"/>
     <use xlink:href="#DejaVuSans-76" transform="translate(788.623047 0)"/>
     <use xlink:href="#DejaVuSans-61" transform="translate(847.802734 0)"/>
     <use xlink:href="#DejaVuSans-72" transform="translate(909.082031 0)"/>
     <use xlink:href="#DejaVuSans-69" transform="translate(950.195312 0)"/>
     <use xlink:href="#DejaVuSans-61" transform="translate(977.978516 0)"/>
     <use xlink:href="#DejaVuSans-62" transform="translate(1039.257812 0)"/>
     <use xlink:href="#DejaVuSans-6c" transform="translate(1102.734375 0)"/>
     <use xlink:href="#DejaVuSans-65" transform="translate(1130.517578 0)"/>
     <use xlink:href="#DejaVuSans-20" transform="translate(1192.041016 0)"/>
     <use xlink:href="#DejaVuSans-69" transform="translate(1223.828125 0)"/>
     <use xlink:href="#DejaVuSans-73" transform="translate(1251.611328 0)"/>
     <use xlink:href="#DejaVuSans-20" transform="translate(1303.710938 0)"/>
     <use xlink:href="#DejaVuSans-69" transform="translate(1335.498047 0)"/>
     <use xlink:href="#DejaVuSans-6e" transform="translate(1363.28125 0)"/>
     <use xlink:href="#DejaVuSans-74" transform="translate(1426.660156 0)"/>
     <use xlink:href="#DejaVuSans-65" transform="translate(1465.869141 0)"/>
     <use xlink:href="#DejaVuSans-67" transform="translate(1527.392578 0)"/>
     <use xlink:href="#DejaVuSans-72" transform="translate(1590.869141 0)"/>
     <use xlink:href="#DejaVuSans-61" transform="translate(1631.982422 0)"/>
     <use xlink:href="#DejaVuSans-74" transform="translate(1693.261719 0)"/>
     <use xlink:href="#DejaVuSans-65" transform="translate(1732.470703 0)"/>
     <use xlink:href="#DejaVuSans-64" transform="translate(1793.994141 0)"/>
     <use xlink:href="#DejaVuSans-20" transform="translate(1857.470703 0)"/>
     <use xlink:href="#DejaVuSans-28" transform="translate(1889.257812 0)"/>
     <use xlink:href="#DejaVuSans-73" transform="translate(1928.271484 0)"/>
     <use xlink:href="#DejaVuSans-75" transform="translate(1980.371094 0)"/>
     <use xlink:href="#DejaVuSans-6d" transform="translate(2043.75 0)"/>
     <use xlink:href="#DejaVuSans-6d" transform="translate(2141.162109 0)"/>
     <use xlink:href="#DejaVuSans-65" transform="translate(2238.574219 0)"/>
     <use xlink:href="#DejaVuSans-64" transform="translate(2300.097656 0)"/>
     <use xlink:href="#DejaVuSans-29" transform="translate(2363.574219 0)"/>
     <use xlink:href="#DejaVuSans-20" transform="translate(2402.587891 0)"/>
     <use xlink:href="#DejaVuSans-6f" transform="translate(2434.375 0)"/>
     <use xlink:href="#DejaVuSans-76" transform="translate(2495.556641 0)"/>
     <use xlink:href="#DejaVuSans-65" transform="translate(2554.736328 0)"/>
     <use xlink:href="#DejaVuSans-72" transform="translate(2616.259766 0)"/>
     <use xlink:href="#DejaVuSans-3b" transform="translate(2657.373047 0)"/>
     <use xlink:href="#DejaVuSans-20" transform="translate(2691.064453 0)"/>
     <use xlink:href="#DejaVuSans-69" transform="translate(2722.851562 0)"/>
     <use xlink:href="#DejaVuSans-74" transform="translate(2750.634766 0)"/>
     <use xlink:href="#DejaVuSans-73" transform="translate(2789.84375 0)"/>
     <use xlink:href="#DejaVuSans-20" transform="translate(2841.943359 0)"/>
     <use xlink:href="#DejaVuSans-63" transform="translate(2873.730469 0)"/>
     <use xlink:href="#DejaVuSans-6f" transform="translate(2928.710938 0)"/>
     <use xlink:href="#DejaVuSans-6e" transform="translate(2989.892578 0)"/>
     <use xlink:href="#DejaVuSans-6a" transform="translate(3053.271484 0)"/>
     <use xlink:href="#DejaVuSans-75" transform="translate(3081.054688 0)"/>
     <use xlink:href="#DejaVuSans-67" transform="translate(3144.433594 0)"/>
     <use xlink:href="#DejaVuSans-61" transform="translate(3207.910156 0)"/>
     <use xlink:href="#DejaVuSans-74" transform="translate(3269.189453 0)"/>
     <use xlink:href="#DejaVuSans-65" transform="translate(3308.398438 0)"/>
     <use xlink:href="#DejaVuSans-20" transform="translate(3369.921875 0)"/>
     <use xlink:href="#DejaVuSans-69" transform="translate(3401.708984 0)"/>
     <use xlink:href="#DejaVuSans-6e" transform="translate(3429.492188 0)"/>
     <use xlink:href="#DejaVuSans-74" transform="translate(3492.871094 0)"/>
     <use xlink:href="#DejaVuSans-65" transform="translate(3532.080078 0)"/>
     <use xlink:href="#DejaVuSans-6e" transform="translate(3593.603516 0)"/>
     <use xlink:href="#DejaVuSans-73" transform="translate(3656.982422 0)"/>
     <use xlink:href="#DejaVuSans-69" transform="translate(3709.082031 0)"/>
     <use xlink:href="#DejaVuSans-76" transform="translate(3736.865234 0)"/>
     <use xlink:href="#DejaVuSans-65" transform="translate(3796.044922 0)"/>
     <use xlink:href="#DejaVuSans-20" transform="translate(3857.568359 0)"/>
     <use xlink:href="#DejaVuSans-76" transform="translate(3889.355469 0)"/>
     <use xlink:href="#DejaVuSans-61" transform="translate(3948.535156 0)"/>
     <use xlink:href="#DejaVuSans-72" transform="translate(4009.814453 0)"/>
     <use xlink:href="#DejaVuSans-69" transform="translate(4050.927734 0)"/>
     <use xlink:href="#DejaVuSans-61" transform="translate(4078.710938 0)"/>
     <use xlink:href="#DejaVuSans-62" transform="translate(4139.990234 0)"/>
     <use xlink:href="#DejaVuSans-6c" transform="translate(4203.466797 0)"/>
     <use xlink:href="#DejaVuSans-65" transform="translate(4231.25 0)"/>
     <use xlink:href="#DejaVuSans-20" transform="translate(4292.773438 0)"/>
     <use xlink:href="#DejaVuSans-62" transform="translate(4324.560547 0)"/>
     <use xlink:href="#DejaVuSans-65" transform="translate(4388.037109 0)"/>
     <use xlink:href="#DejaVuSans-63" transform="translate(4449.560547 0)"/>
     <use xlink:href="#DejaVuSans-6f" transform="translate(4504.541016 0)"/>
     <use xlink:href="#DejaVuSans-6d" transform="translate(4565.722656 0)"/>
     <use xlink:href="#DejaVuSans-65" transform="translate(4663.134766 0)"/>
     <use xlink:href="#DejaVuSans-73" transform="translate(4724.658203 0)"/>
     <use xlink:href="#DejaVuSans-20" transform="translate(4776.757812 0)"/>
     <use xlink:href="#DejaVuSans-66" transform="translate(4808.544922 0)"/>
     <use xlink:href="#DejaVuSans-69" transform="translate(4843.75 0)"/>
     <use xlink:href="#DejaVuSans-78" transform="translate(4871.533203 0)"/>
     <use xlink:href="#DejaVuSans-65" transform="translate(4927.587891 0)"/>
     <use xlink:href="#DejaVuSans-64" transform="translate(4989.111328 0)"/>
     <use xlink:href="#DejaVuSans-2e" transform="translate(5052.587891 0)"/>
    </g>
   </g>
  </g>
  <g id="text_28">
   <!-- Connections Between Statistical Ensembles -->
   <g transform="translate(278.564062 20.877187) scale(0.18 -0.18)">
    <defs>
     <path id="DejaVuSans-Bold-42" d="M 2456 2859 
Q 2741 2859 2887 2984 
Q 3034 3109 3034 3353 
Q 3034 3594 2887 3720 
Q 2741 3847 2456 3847 
L 1791 3847 
L 1791 2859 
L 2456 2859 
z
M 2497 819 
Q 2859 819 3042 972 
Q 3225 1125 3225 1434 
Q 3225 1738 3044 1889 
Q 2863 2041 2497 2041 
L 1791 2041 
L 1791 819 
L 2497 819 
z
M 3616 2497 
Q 4003 2384 4215 2081 
Q 4428 1778 4428 1338 
Q 4428 663 3972 331 
Q 3516 0 2584 0 
L 588 0 
L 588 4666 
L 2394 4666 
Q 3366 4666 3802 4372 
Q 4238 4078 4238 3431 
Q 4238 3091 4078 2852 
Q 3919 2613 3616 2497 
z
" transform="scale(0.015625)"/>
     <path id="DejaVuSans-Bold-77" d="M 225 3500 
L 1313 3500 
L 1900 1088 
L 2491 3500 
L 3425 3500 
L 4013 1113 
L 4603 3500 
L 5691 3500 
L 4769 0 
L 3547 0 
L 2956 2406 
L 2369 0 
L 1147 0 
L 225 3500 
z
" transform="scale(0.015625)"/>
     <path id="DejaVuSans-Bold-53" d="M 3834 4519 
L 3834 3531 
Q 3450 3703 3084 3790 
Q 2719 3878 2394 3878 
Q 1963 3878 1756 3759 
Q 1550 3641 1550 3391 
Q 1550 3203 1689 3098 
Q 1828 2994 2194 2919 
L 2706 2816 
Q 3484 2659 3812 2340 
Q 4141 2022 4141 1434 
Q 4141 663 3683 286 
Q 3225 -91 2284 -91 
Q 1841 -91 1394 -6 
Q 947 78 500 244 
L 500 1259 
Q 947 1022 1364 901 
Q 1781 781 2169 781 
Q 2563 781 2772 912 
Q 2981 1044 2981 1288 
Q 2981 1506 2839 1625 
Q 2697 1744 2272 1838 
L 1806 1941 
Q 1106 2091 782 2419 
Q 459 2747 459 3303 
Q 459 4000 909 4375 
Q 1359 4750 2203 4750 
Q 2588 4750 2994 4692 
Q 3400 4634 3834 4519 
z
" transform="scale(0.015625)"/>
    </defs>
    <use xlink:href="#DejaVuSans-Bold-43"/>
    <use xlink:href="#DejaVuSans-Bold-6f" transform="translate(73.388672 0)"/>
    <use xlink:href="#DejaVuSans-Bold-6e" transform="translate(142.089844 0)"/>
    <use xlink:href="#DejaVuSans-Bold-6e" transform="translate(213.28125 0)"/>
    <use xlink:href="#DejaVuSans-Bold-65" transform="translate(284.472656 0)"/>
    <use xlink:href="#DejaVuSans-Bold-63" transform="translate(352.294922 0)"/>
    <use xlink:href="#DejaVuSans-Bold-74" transform="translate(411.572266 0)"/>
    <use xlink:href="#DejaVuSans-Bold-69" transform="translate(459.375 0)"/>
    <use xlink:href="#DejaVuSans-Bold-6f" transform="translate(493.652344 0)"/>
    <use xlink:href="#DejaVuSans-Bold-6e" transform="translate(562.353516 0)"/>
    <use xlink:href="#DejaVuSans-Bold-73" transform="translate(633.544922 0)"/>
    <use xlink:href="#DejaVuSans-Bold-20" transform="translate(693.066406 0)"/>
    <use xlink:href="#DejaVuSans-Bold-42" transform="translate(727.880859 0)"/>
    <use xlink:href="#DejaVuSans-Bold-65" transform="translate(804.101562 0)"/>
    <use xlink:href="#DejaVuSans-Bold-74" transform="translate(871.923828 0)"/>
    <use xlink:href="#DejaVuSans-Bold-77" transform="translate(919.726562 0)"/>
    <use xlink:href="#DejaVuSans-Bold-65" transform="translate(1012.109375 0)"/>
    <use xlink:href="#DejaVuSans-Bold-65" transform="translate(1079.931641 0)"/>
    <use xlink:href="#DejaVuSans-Bold-6e" transform="translate(1147.753906 0)"/>
    <use xlink:href="#DejaVuSans-Bold-20" transform="translate(1218.945312 0)"/>
    <use xlink:href="#DejaVuSans-Bold-53" transform="translate(1253.759766 0)"/>
    <use xlink:href="#DejaVuSans-Bold-74" transform="translate(1325.78125 0)"/>
    <use xlink:href="#DejaVuSans-Bold-61" transform="translate(1373.583984 0)"/>
    <use xlink:href="#DejaVuSans-Bold-74" transform="translate(1441.064453 0)"/>
    <use xlink:href="#DejaVuSans-Bold-69" transform="translate(1488.867188 0)"/>
    <use xlink:href="#DejaVuSans-Bold-73" transform="translate(1523.144531 0)"/>
    <use xlink:href="#DejaVuSans-Bold-74" transform="translate(1582.666016 0)"/>
    <use xlink:href="#DejaVuSans-Bold-69" transform="translate(1630.46875 0)"/>
    <use xlink:href="#DejaVuSans-Bold-63" transform="translate(1664.746094 0)"/>
    <use xlink:href="#DejaVuSans-Bold-61" transform="translate(1724.023438 0)"/>
    <use xlink:href="#DejaVuSans-Bold-6c" transform="translate(1791.503906 0)"/>
    <use xlink:href="#DejaVuSans-Bold-20" transform="translate(1825.78125 0)"/>
    <use xlink:href="#DejaVuSans-Bold-45" transform="translate(1860.595703 0)"/>
    <use xlink:href="#DejaVuSans-Bold-6e" transform="translate(1928.90625 0)"/>
    <use xlink:href="#DejaVuSans-Bold-73" transform="translate(2000.097656 0)"/>
    <use xlink:href="#DejaVuSans-Bold-65" transform="translate(2059.619141 0)"/>
    <use xlink:href="#DejaVuSans-Bold-6d" transform="translate(2127.441406 0)"/>
    <use xlink:href="#DejaVuSans-Bold-62" transform="translate(2231.640625 0)"/>
    <use xlink:href="#DejaVuSans-Bold-6c" transform="translate(2303.222656 0)"/>
    <use xlink:href="#DejaVuSans-Bold-65" transform="translate(2337.5 0)"/>
    <use xlink:href="#DejaVuSans-Bold-73" transform="translate(2405.322266 0)"/>
   </g>
  </g>
 </g>
 <defs>
  <clipPath id="p59f245790c">
   <rect x="7.2" y="65.52" width="986.4" height="552.96"/>
  </clipPath>
 </defs>
</svg>
