<?xml version="1.0" encoding="utf-8" standalone="no"?>
<!DOCTYPE svg PUBLIC "-//W3C//DTD SVG 1.1//EN"
  "http://www.w3.org/Graphics/SVG/1.1/DTD/svg11.dtd">
<!-- Created with matplotlib (https://matplotlib.org/) -->
<svg height="272.794688pt" version="1.1" viewBox="0 0 392.165625 272.794688" width="392.165625pt" xmlns="http://www.w3.org/2000/svg" xmlns:xlink="http://www.w3.org/1999/xlink">
 <metadata>
  <rdf:RDF xmlns:cc="http://creativecommons.org/ns#" xmlns:dc="http://purl.org/dc/elements/1.1/" xmlns:rdf="http://www.w3.org/1999/02/22-rdf-syntax-ns#">
   <cc:Work>
    <dc:type rdf:resource="http://purl.org/dc/dcmitype/StillImage"/>
    <dc:date>2021-03-23T21:01:45.825539</dc:date>
    <dc:format>image/svg+xml</dc:format>
    <dc:creator>
     <cc:Agent>
      <dc:title>Matplotlib v3.3.3, https://matplotlib.org/</dc:title>
     </cc:Agent>
    </dc:creator>
   </cc:Work>
  </rdf:RDF>
 </metadata>
 <defs>
  <style type="text/css">*{stroke-linecap:butt;stroke-linejoin:round;}</style>
 </defs>
 <g id="figure_1">
  <g id="patch_1">
   <path d="M 0 272.794688 
L 392.165625 272.794688 
L 392.165625 0 
L 0 0 
z
" style="fill:none;"/>
  </g>
  <g id="axes_1">
   <g id="patch_2">
    <path d="M 50.165625 81.751379 
L 384.965625 81.751379 
L 384.965625 17.798438 
L 50.165625 17.798438 
z
" style="fill:#ffffff;"/>
   </g>
   <g id="matplotlib.axis_1">
    <g id="xtick_1">
     <g id="line2d_1">
      <defs>
       <path d="M 0 0 
L 0 3.5 
" id="m02c3d356fd" style="stroke:#000000;stroke-width:0.8;"/>
      </defs>
      <g>
       <use style="stroke:#000000;stroke-width:0.8;" x="62.309427" xlink:href="#m02c3d356fd" y="81.751379"/>
      </g>
     </g>
    </g>
    <g id="xtick_2">
     <g id="line2d_2">
      <g>
       <use style="stroke:#000000;stroke-width:0.8;" x="123.79703" xlink:href="#m02c3d356fd" y="81.751379"/>
      </g>
     </g>
    </g>
    <g id="xtick_3">
     <g id="line2d_3">
      <g>
       <use style="stroke:#000000;stroke-width:0.8;" x="185.284633" xlink:href="#m02c3d356fd" y="81.751379"/>
      </g>
     </g>
    </g>
    <g id="xtick_4">
     <g id="line2d_4">
      <g>
       <use style="stroke:#000000;stroke-width:0.8;" x="246.772237" xlink:href="#m02c3d356fd" y="81.751379"/>
      </g>
     </g>
    </g>
    <g id="xtick_5">
     <g id="line2d_5">
      <g>
       <use style="stroke:#000000;stroke-width:0.8;" x="308.25984" xlink:href="#m02c3d356fd" y="81.751379"/>
      </g>
     </g>
    </g>
    <g id="xtick_6">
     <g id="line2d_6">
      <g>
       <use style="stroke:#000000;stroke-width:0.8;" x="369.747443" xlink:href="#m02c3d356fd" y="81.751379"/>
      </g>
     </g>
    </g>
   </g>
   <g id="matplotlib.axis_2">
    <g id="ytick_1">
     <g id="line2d_7">
      <defs>
       <path d="M 0 0 
L -3.5 0 
" id="mf709bdb2fb" style="stroke:#000000;stroke-width:0.8;"/>
      </defs>
      <g>
       <use style="stroke:#000000;stroke-width:0.8;" x="50.165625" xlink:href="#mf709bdb2fb" y="78.844427"/>
      </g>
     </g>
     <g id="text_1">
      <!-- 0.0 -->
      <g transform="translate(27.2625 82.643646)scale(0.1 -0.1)">
       <defs>
        <path d="M 31.78125 66.40625 
Q 24.171875 66.40625 20.328125 58.90625 
Q 16.5 51.421875 16.5 36.375 
Q 16.5 21.390625 20.328125 13.890625 
Q 24.171875 6.390625 31.78125 6.390625 
Q 39.453125 6.390625 43.28125 13.890625 
Q 47.125 21.390625 47.125 36.375 
Q 47.125 51.421875 43.28125 58.90625 
Q 39.453125 66.40625 31.78125 66.40625 
z
M 31.78125 74.21875 
Q 44.046875 74.21875 50.515625 64.515625 
Q 56.984375 54.828125 56.984375 36.375 
Q 56.984375 17.96875 50.515625 8.265625 
Q 44.046875 -1.421875 31.78125 -1.421875 
Q 19.53125 -1.421875 13.0625 8.265625 
Q 6.59375 17.96875 6.59375 36.375 
Q 6.59375 54.828125 13.0625 64.515625 
Q 19.53125 74.21875 31.78125 74.21875 
z
" id="DejaVuSans-48"/>
        <path d="M 10.6875 12.40625 
L 21 12.40625 
L 21 0 
L 10.6875 0 
z
" id="DejaVuSans-46"/>
       </defs>
       <use xlink:href="#DejaVuSans-48"/>
       <use x="63.623047" xlink:href="#DejaVuSans-46"/>
       <use x="95.410156" xlink:href="#DejaVuSans-48"/>
      </g>
     </g>
    </g>
    <g id="ytick_2">
     <g id="line2d_8">
      <g>
       <use style="stroke:#000000;stroke-width:0.8;" x="50.165625" xlink:href="#mf709bdb2fb" y="49.774908"/>
      </g>
     </g>
     <g id="text_2">
      <!-- 0.5 -->
      <g transform="translate(27.2625 53.574127)scale(0.1 -0.1)">
       <defs>
        <path d="M 10.796875 72.90625 
L 49.515625 72.90625 
L 49.515625 64.59375 
L 19.828125 64.59375 
L 19.828125 46.734375 
Q 21.96875 47.46875 24.109375 47.828125 
Q 26.265625 48.1875 28.421875 48.1875 
Q 40.625 48.1875 47.75 41.5 
Q 54.890625 34.8125 54.890625 23.390625 
Q 54.890625 11.625 47.5625 5.09375 
Q 40.234375 -1.421875 26.90625 -1.421875 
Q 22.3125 -1.421875 17.546875 -0.640625 
Q 12.796875 0.140625 7.71875 1.703125 
L 7.71875 11.625 
Q 12.109375 9.234375 16.796875 8.0625 
Q 21.484375 6.890625 26.703125 6.890625 
Q 35.15625 6.890625 40.078125 11.328125 
Q 45.015625 15.765625 45.015625 23.390625 
Q 45.015625 31 40.078125 35.4375 
Q 35.15625 39.890625 26.703125 39.890625 
Q 22.75 39.890625 18.8125 39.015625 
Q 14.890625 38.140625 10.796875 36.28125 
z
" id="DejaVuSans-53"/>
       </defs>
       <use xlink:href="#DejaVuSans-48"/>
       <use x="63.623047" xlink:href="#DejaVuSans-46"/>
       <use x="95.410156" xlink:href="#DejaVuSans-53"/>
      </g>
     </g>
    </g>
    <g id="ytick_3">
     <g id="line2d_9">
      <g>
       <use style="stroke:#000000;stroke-width:0.8;" x="50.165625" xlink:href="#mf709bdb2fb" y="20.705389"/>
      </g>
     </g>
     <g id="text_3">
      <!-- 1.0 -->
      <g transform="translate(27.2625 24.504608)scale(0.1 -0.1)">
       <defs>
        <path d="M 12.40625 8.296875 
L 28.515625 8.296875 
L 28.515625 63.921875 
L 10.984375 60.40625 
L 10.984375 69.390625 
L 28.421875 72.90625 
L 38.28125 72.90625 
L 38.28125 8.296875 
L 54.390625 8.296875 
L 54.390625 0 
L 12.40625 0 
z
" id="DejaVuSans-49"/>
       </defs>
       <use xlink:href="#DejaVuSans-49"/>
       <use x="63.623047" xlink:href="#DejaVuSans-46"/>
       <use x="95.410156" xlink:href="#DejaVuSans-48"/>
      </g>
     </g>
    </g>
    <g id="text_4">
     <!-- $\Omega(E)$ -->
     <g transform="translate(21.182813 60.674908)rotate(-90)scale(0.1 -0.1)">
      <defs>
       <path d="M 72.609375 8.6875 
L 72.609375 0 
L 43.3125 0 
L 43.3125 8.6875 
Q 51.953125 13.421875 56.78125 21.53125 
Q 61.625 29.640625 61.625 39.5 
Q 61.625 51.21875 55.171875 58.296875 
Q 48.734375 65.375 38.1875 65.375 
Q 27.640625 65.375 21.171875 58.265625 
Q 14.703125 51.171875 14.703125 39.5 
Q 14.703125 29.640625 19.53125 21.53125 
Q 24.421875 13.421875 33.109375 8.6875 
L 33.109375 0 
L 3.8125 0 
L 3.8125 8.6875 
L 19.390625 8.6875 
Q 11.671875 15.484375 8.109375 22.75 
Q 4.59375 30.03125 4.59375 39.015625 
Q 4.59375 54.546875 13.96875 64.15625 
Q 23.296875 73.78125 38.1875 73.78125 
Q 52.984375 73.78125 62.40625 64.15625 
Q 71.78125 54.59375 71.78125 39.5 
Q 71.78125 30.03125 68.3125 22.796875 
Q 64.84375 15.578125 56.984375 8.6875 
z
" id="DejaVuSans-937"/>
       <path d="M 31 75.875 
Q 24.46875 64.65625 21.28125 53.65625 
Q 18.109375 42.671875 18.109375 31.390625 
Q 18.109375 20.125 21.3125 9.0625 
Q 24.515625 -2 31 -13.1875 
L 23.1875 -13.1875 
Q 15.875 -1.703125 12.234375 9.375 
Q 8.59375 20.453125 8.59375 31.390625 
Q 8.59375 42.28125 12.203125 53.3125 
Q 15.828125 64.359375 23.1875 75.875 
z
" id="DejaVuSans-40"/>
       <path d="M 16.890625 72.90625 
L 62.984375 72.90625 
L 61.375 64.59375 
L 25.09375 64.59375 
L 20.90625 43.015625 
L 55.71875 43.015625 
L 54.109375 34.71875 
L 19.28125 34.71875 
L 14.203125 8.296875 
L 51.3125 8.296875 
L 49.703125 0 
L 2.6875 0 
z
" id="DejaVuSans-Oblique-69"/>
       <path d="M 8.015625 75.875 
L 15.828125 75.875 
Q 23.140625 64.359375 26.78125 53.3125 
Q 30.421875 42.28125 30.421875 31.390625 
Q 30.421875 20.453125 26.78125 9.375 
Q 23.140625 -1.703125 15.828125 -13.1875 
L 8.015625 -13.1875 
Q 14.5 -2 17.703125 9.0625 
Q 20.90625 20.125 20.90625 31.390625 
Q 20.90625 42.671875 17.703125 53.65625 
Q 14.5 64.65625 8.015625 75.875 
z
" id="DejaVuSans-41"/>
      </defs>
      <use transform="translate(0 0.125)" xlink:href="#DejaVuSans-937"/>
      <use transform="translate(76.416016 0.125)" xlink:href="#DejaVuSans-40"/>
      <use transform="translate(115.429688 0.125)" xlink:href="#DejaVuSans-Oblique-69"/>
      <use transform="translate(178.613281 0.125)" xlink:href="#DejaVuSans-41"/>
     </g>
    </g>
    <g id="text_5">
     <!-- 1e30 -->
     <g transform="translate(50.165625 14.798437)scale(0.1 -0.1)">
      <defs>
       <path d="M 56.203125 29.59375 
L 56.203125 25.203125 
L 14.890625 25.203125 
Q 15.484375 15.921875 20.484375 11.0625 
Q 25.484375 6.203125 34.421875 6.203125 
Q 39.59375 6.203125 44.453125 7.46875 
Q 49.3125 8.734375 54.109375 11.28125 
L 54.109375 2.78125 
Q 49.265625 0.734375 44.1875 -0.34375 
Q 39.109375 -1.421875 33.890625 -1.421875 
Q 20.796875 -1.421875 13.15625 6.1875 
Q 5.515625 13.8125 5.515625 26.8125 
Q 5.515625 40.234375 12.765625 48.109375 
Q 20.015625 56 32.328125 56 
Q 43.359375 56 49.78125 48.890625 
Q 56.203125 41.796875 56.203125 29.59375 
z
M 47.21875 32.234375 
Q 47.125 39.59375 43.09375 43.984375 
Q 39.0625 48.390625 32.421875 48.390625 
Q 24.90625 48.390625 20.390625 44.140625 
Q 15.875 39.890625 15.1875 32.171875 
z
" id="DejaVuSans-101"/>
       <path d="M 40.578125 39.3125 
Q 47.65625 37.796875 51.625 33 
Q 55.609375 28.21875 55.609375 21.1875 
Q 55.609375 10.40625 48.1875 4.484375 
Q 40.765625 -1.421875 27.09375 -1.421875 
Q 22.515625 -1.421875 17.65625 -0.515625 
Q 12.796875 0.390625 7.625 2.203125 
L 7.625 11.71875 
Q 11.71875 9.328125 16.59375 8.109375 
Q 21.484375 6.890625 26.8125 6.890625 
Q 36.078125 6.890625 40.9375 10.546875 
Q 45.796875 14.203125 45.796875 21.1875 
Q 45.796875 27.640625 41.28125 31.265625 
Q 36.765625 34.90625 28.71875 34.90625 
L 20.21875 34.90625 
L 20.21875 43.015625 
L 29.109375 43.015625 
Q 36.375 43.015625 40.234375 45.921875 
Q 44.09375 48.828125 44.09375 54.296875 
Q 44.09375 59.90625 40.109375 62.90625 
Q 36.140625 65.921875 28.71875 65.921875 
Q 24.65625 65.921875 20.015625 65.03125 
Q 15.375 64.15625 9.8125 62.3125 
L 9.8125 71.09375 
Q 15.4375 72.65625 20.34375 73.4375 
Q 25.25 74.21875 29.59375 74.21875 
Q 40.828125 74.21875 47.359375 69.109375 
Q 53.90625 64.015625 53.90625 55.328125 
Q 53.90625 49.265625 50.4375 45.09375 
Q 46.96875 40.921875 40.578125 39.3125 
z
" id="DejaVuSans-51"/>
      </defs>
      <use xlink:href="#DejaVuSans-49"/>
      <use x="63.623047" xlink:href="#DejaVuSans-101"/>
      <use x="125.146484" xlink:href="#DejaVuSans-51"/>
      <use x="188.769531" xlink:href="#DejaVuSans-48"/>
     </g>
    </g>
   </g>
   <g id="line2d_10">
    <path clip-path="url(#p1c00b63c84)" d="M 65.383807 78.844427 
L 68.458187 78.844427 
L 71.532567 78.844427 
L 74.606947 78.844427 
L 77.681327 78.844427 
L 80.755708 78.844427 
L 83.830088 78.844427 
L 86.904468 78.844427 
L 89.978848 78.844427 
L 93.053228 78.844427 
L 96.127608 78.844427 
L 99.201989 78.844427 
L 102.276369 78.844427 
L 105.350749 78.844427 
L 108.425129 78.844427 
L 111.499509 78.844427 
L 114.573889 78.844427 
L 117.64827 78.844427 
L 120.72265 78.844427 
L 123.79703 78.844427 
L 126.87141 78.844427 
L 129.94579 78.844427 
L 133.02017 78.844427 
L 136.094551 78.844427 
L 139.168931 78.844427 
L 142.243311 78.844427 
L 145.317691 78.844427 
L 148.392071 78.844427 
L 151.466451 78.844426 
L 154.540832 78.844426 
L 157.615212 78.844425 
L 160.689592 78.844425 
L 163.763972 78.844423 
L 166.838352 78.844421 
L 169.912732 78.844418 
L 172.987113 78.844414 
L 176.061493 78.844407 
L 179.135873 78.844398 
L 182.210253 78.844384 
L 185.284633 78.844364 
L 188.359013 78.844336 
L 191.433394 78.844297 
L 194.507774 78.844242 
L 197.582154 78.844166 
L 200.656534 78.844061 
L 203.730914 78.843919 
L 206.805294 78.843725 
L 209.879675 78.843465 
L 212.954055 78.843116 
L 216.028435 78.842653 
L 219.102815 78.842039 
L 222.177195 78.841231 
L 225.251575 78.840175 
L 228.325956 78.838799 
L 231.400336 78.837015 
L 234.474716 78.834715 
L 237.549096 78.831762 
L 240.623476 78.827987 
L 243.697856 78.823182 
L 246.772237 78.817091 
L 249.846617 78.809399 
L 252.920997 78.799723 
L 255.995377 78.787597 
L 259.069757 78.772454 
L 262.144137 78.75361 
L 265.218518 78.730237 
L 268.292898 78.701343 
L 271.367278 78.665736 
L 274.441658 78.621991 
L 277.516038 78.568408 
L 280.590418 78.502964 
L 283.664799 78.423259 
L 286.739179 78.326449 
L 289.813559 78.209178 
L 292.887939 78.067488 
L 295.962319 77.896725 
L 299.036699 77.691428 
L 302.11108 77.445204 
L 305.18546 77.15058 
L 308.25984 76.798841 
L 311.33422 76.379846 
L 314.4086 75.881809 
L 317.48298 75.291067 
L 320.557361 74.591801 
L 323.631741 73.765737 
L 326.706121 72.79179 
L 329.780501 71.645685 
L 332.854881 70.299508 
L 335.929261 68.721224 
L 339.003642 66.874115 
L 342.078022 64.716165 
L 345.152402 62.199371 
L 348.226782 59.268963 
L 351.301162 55.862542 
L 354.375542 51.909121 
L 357.449923 47.328046 
L 360.524303 42.027812 
L 363.598683 35.90473 
L 366.673063 28.841462 
L 369.747443 20.705389 
" style="fill:none;stroke:#1f77b4;stroke-linecap:square;stroke-width:1.5;"/>
   </g>
   <g id="patch_3">
    <path d="M 50.165625 81.751379 
L 50.165625 17.798438 
" style="fill:none;stroke:#000000;stroke-linecap:square;stroke-linejoin:miter;stroke-width:0.8;"/>
   </g>
   <g id="patch_4">
    <path d="M 384.965625 81.751379 
L 384.965625 17.798438 
" style="fill:none;stroke:#000000;stroke-linecap:square;stroke-linejoin:miter;stroke-width:0.8;"/>
   </g>
   <g id="patch_5">
    <path d="M 50.165625 81.751379 
L 384.965625 81.751379 
" style="fill:none;stroke:#000000;stroke-linecap:square;stroke-linejoin:miter;stroke-width:0.8;"/>
   </g>
   <g id="patch_6">
    <path d="M 50.165625 17.798438 
L 384.965625 17.798438 
" style="fill:none;stroke:#000000;stroke-linecap:square;stroke-linejoin:miter;stroke-width:0.8;"/>
   </g>
  </g>
  <g id="axes_2">
   <g id="patch_7">
    <path d="M 50.165625 158.494908 
L 384.965625 158.494908 
L 384.965625 94.541967 
L 50.165625 94.541967 
z
" style="fill:#ffffff;"/>
   </g>
   <g id="matplotlib.axis_3">
    <g id="xtick_7">
     <g id="line2d_11">
      <g>
       <use style="stroke:#000000;stroke-width:0.8;" x="62.309427" xlink:href="#m02c3d356fd" y="158.494908"/>
      </g>
     </g>
    </g>
    <g id="xtick_8">
     <g id="line2d_12">
      <g>
       <use style="stroke:#000000;stroke-width:0.8;" x="123.79703" xlink:href="#m02c3d356fd" y="158.494908"/>
      </g>
     </g>
    </g>
    <g id="xtick_9">
     <g id="line2d_13">
      <g>
       <use style="stroke:#000000;stroke-width:0.8;" x="185.284633" xlink:href="#m02c3d356fd" y="158.494908"/>
      </g>
     </g>
    </g>
    <g id="xtick_10">
     <g id="line2d_14">
      <g>
       <use style="stroke:#000000;stroke-width:0.8;" x="246.772237" xlink:href="#m02c3d356fd" y="158.494908"/>
      </g>
     </g>
    </g>
    <g id="xtick_11">
     <g id="line2d_15">
      <g>
       <use style="stroke:#000000;stroke-width:0.8;" x="308.25984" xlink:href="#m02c3d356fd" y="158.494908"/>
      </g>
     </g>
    </g>
    <g id="xtick_12">
     <g id="line2d_16">
      <g>
       <use style="stroke:#000000;stroke-width:0.8;" x="369.747443" xlink:href="#m02c3d356fd" y="158.494908"/>
      </g>
     </g>
    </g>
   </g>
   <g id="matplotlib.axis_4">
    <g id="ytick_4">
     <g id="line2d_17">
      <g>
       <use style="stroke:#000000;stroke-width:0.8;" x="50.165625" xlink:href="#mf709bdb2fb" y="155.587956"/>
      </g>
     </g>
     <g id="text_6">
      <!-- 0.00 -->
      <g transform="translate(20.9 159.387175)scale(0.1 -0.1)">
       <use xlink:href="#DejaVuSans-48"/>
       <use x="63.623047" xlink:href="#DejaVuSans-46"/>
       <use x="95.410156" xlink:href="#DejaVuSans-48"/>
       <use x="159.033203" xlink:href="#DejaVuSans-48"/>
      </g>
     </g>
    </g>
    <g id="ytick_5">
     <g id="line2d_18">
      <g>
       <use style="stroke:#000000;stroke-width:0.8;" x="50.165625" xlink:href="#mf709bdb2fb" y="133.904643"/>
      </g>
     </g>
     <g id="text_7">
      <!-- 0.25 -->
      <g transform="translate(20.9 137.703862)scale(0.1 -0.1)">
       <defs>
        <path d="M 19.1875 8.296875 
L 53.609375 8.296875 
L 53.609375 0 
L 7.328125 0 
L 7.328125 8.296875 
Q 12.9375 14.109375 22.625 23.890625 
Q 32.328125 33.6875 34.8125 36.53125 
Q 39.546875 41.84375 41.421875 45.53125 
Q 43.3125 49.21875 43.3125 52.78125 
Q 43.3125 58.59375 39.234375 62.25 
Q 35.15625 65.921875 28.609375 65.921875 
Q 23.96875 65.921875 18.8125 64.3125 
Q 13.671875 62.703125 7.8125 59.421875 
L 7.8125 69.390625 
Q 13.765625 71.78125 18.9375 73 
Q 24.125 74.21875 28.421875 74.21875 
Q 39.75 74.21875 46.484375 68.546875 
Q 53.21875 62.890625 53.21875 53.421875 
Q 53.21875 48.921875 51.53125 44.890625 
Q 49.859375 40.875 45.40625 35.40625 
Q 44.1875 33.984375 37.640625 27.21875 
Q 31.109375 20.453125 19.1875 8.296875 
z
" id="DejaVuSans-50"/>
       </defs>
       <use xlink:href="#DejaVuSans-48"/>
       <use x="63.623047" xlink:href="#DejaVuSans-46"/>
       <use x="95.410156" xlink:href="#DejaVuSans-50"/>
       <use x="159.033203" xlink:href="#DejaVuSans-53"/>
      </g>
     </g>
    </g>
    <g id="ytick_6">
     <g id="line2d_19">
      <g>
       <use style="stroke:#000000;stroke-width:0.8;" x="50.165625" xlink:href="#mf709bdb2fb" y="112.22133"/>
      </g>
     </g>
     <g id="text_8">
      <!-- 0.50 -->
      <g transform="translate(20.9 116.020549)scale(0.1 -0.1)">
       <use xlink:href="#DejaVuSans-48"/>
       <use x="63.623047" xlink:href="#DejaVuSans-46"/>
       <use x="95.410156" xlink:href="#DejaVuSans-53"/>
       <use x="159.033203" xlink:href="#DejaVuSans-48"/>
      </g>
     </g>
    </g>
    <g id="text_9">
     <!-- $exp(-E/k_B T)$ -->
     <g transform="translate(14.8 157.168438)rotate(-90)scale(0.1 -0.1)">
      <defs>
       <path d="M 48.09375 32.234375 
Q 48.25 33.015625 48.3125 33.84375 
Q 48.390625 34.671875 48.390625 35.5 
Q 48.390625 41.453125 44.890625 44.921875 
Q 41.40625 48.390625 35.40625 48.390625 
Q 28.71875 48.390625 23.578125 44.15625 
Q 18.453125 39.9375 15.828125 32.171875 
z
M 55.90625 25.203125 
L 14.109375 25.203125 
Q 13.8125 23.34375 13.71875 22.265625 
Q 13.625 21.1875 13.625 20.40625 
Q 13.625 13.625 17.796875 9.90625 
Q 21.96875 6.203125 29.59375 6.203125 
Q 35.453125 6.203125 40.671875 7.515625 
Q 45.90625 8.84375 50.390625 11.375 
L 48.6875 2.484375 
Q 43.84375 0.53125 38.6875 -0.4375 
Q 33.546875 -1.421875 28.21875 -1.421875 
Q 16.84375 -1.421875 10.71875 4.015625 
Q 4.59375 9.46875 4.59375 19.484375 
Q 4.59375 28.03125 7.640625 35.375 
Q 10.6875 42.71875 16.609375 48.484375 
Q 20.40625 52.09375 25.65625 54.046875 
Q 30.90625 56 36.8125 56 
Q 46.09375 56 51.578125 50.4375 
Q 57.078125 44.875 57.078125 35.5 
Q 57.078125 33.25 56.78125 30.6875 
Q 56.5 28.125 55.90625 25.203125 
z
" id="DejaVuSans-Oblique-101"/>
       <path d="M 60.015625 54.6875 
L 34.90625 27.875 
L 50.296875 0 
L 39.984375 0 
L 28.421875 21.6875 
L 8.296875 0 
L -2.59375 0 
L 24.3125 28.8125 
L 10.015625 54.6875 
L 20.3125 54.6875 
L 30.8125 34.90625 
L 49.125 54.6875 
z
" id="DejaVuSans-Oblique-120"/>
       <path d="M 49.609375 33.6875 
Q 49.609375 40.875 46.484375 44.671875 
Q 43.359375 48.484375 37.5 48.484375 
Q 33.5 48.484375 29.859375 46.4375 
Q 26.21875 44.390625 23.390625 40.484375 
Q 20.609375 36.625 18.9375 31.15625 
Q 17.28125 25.6875 17.28125 20.3125 
Q 17.28125 13.484375 20.40625 9.796875 
Q 23.53125 6.109375 29.296875 6.109375 
Q 33.546875 6.109375 37.1875 8.109375 
Q 40.828125 10.109375 43.40625 13.921875 
Q 46.1875 17.921875 47.890625 23.34375 
Q 49.609375 28.765625 49.609375 33.6875 
z
M 21.78125 46.390625 
Q 25.390625 51.125 30.296875 53.5625 
Q 35.203125 56 41.21875 56 
Q 49.609375 56 54.25 50.5 
Q 58.890625 45.015625 58.890625 35.109375 
Q 58.890625 27 56 19.65625 
Q 53.125 12.3125 47.703125 6.5 
Q 44.09375 2.640625 39.546875 0.609375 
Q 35.015625 -1.421875 29.984375 -1.421875 
Q 24.171875 -1.421875 20.21875 1 
Q 16.265625 3.421875 14.3125 8.203125 
L 8.6875 -20.796875 
L -0.296875 -20.796875 
L 14.40625 54.6875 
L 23.390625 54.6875 
z
" id="DejaVuSans-Oblique-112"/>
       <path d="M 10.59375 35.5 
L 73.1875 35.5 
L 73.1875 27.203125 
L 10.59375 27.203125 
z
" id="DejaVuSans-8722"/>
       <path d="M 25.390625 72.90625 
L 33.6875 72.90625 
L 8.296875 -9.28125 
L 0 -9.28125 
z
" id="DejaVuSans-47"/>
       <path d="M 18.3125 75.984375 
L 27.296875 75.984375 
L 18.703125 31.6875 
L 49.515625 54.6875 
L 61.1875 54.6875 
L 26.8125 28.515625 
L 51.90625 0 
L 41.015625 0 
L 17.671875 26.703125 
L 12.5 0 
L 3.515625 0 
z
" id="DejaVuSans-Oblique-107"/>
       <path d="M 16.890625 72.90625 
L 42.09375 72.90625 
Q 52.34375 72.90625 57.421875 69.09375 
Q 62.5 65.28125 62.5 57.625 
Q 62.5 50.59375 58.125 45.484375 
Q 53.765625 40.375 46.6875 39.3125 
Q 52.734375 37.9375 55.765625 34.078125 
Q 58.796875 30.21875 58.796875 23.78125 
Q 58.796875 12.796875 50.65625 6.390625 
Q 42.53125 0 28.421875 0 
L 2.6875 0 
z
M 19.28125 34.8125 
L 14.109375 8.109375 
L 29.984375 8.109375 
Q 38.921875 8.109375 43.75 12.203125 
Q 48.578125 16.3125 48.578125 23.78125 
Q 48.578125 29.546875 45.375 32.171875 
Q 42.1875 34.8125 35.109375 34.8125 
z
M 25.09375 64.796875 
L 20.796875 42.828125 
L 35.5 42.828125 
Q 43.359375 42.828125 47.78125 46.234375 
Q 52.203125 49.65625 52.203125 55.71875 
Q 52.203125 60.453125 49.21875 62.625 
Q 46.234375 64.796875 39.703125 64.796875 
z
" id="DejaVuSans-Oblique-66"/>
       <path d="M 5.90625 72.90625 
L 67.578125 72.90625 
L 66.015625 64.59375 
L 39.984375 64.59375 
L 27.484375 0 
L 17.578125 0 
L 30.078125 64.59375 
L 4.296875 64.59375 
z
" id="DejaVuSans-Oblique-84"/>
      </defs>
      <use transform="translate(0 0.015625)" xlink:href="#DejaVuSans-Oblique-101"/>
      <use transform="translate(61.523438 0.015625)" xlink:href="#DejaVuSans-Oblique-120"/>
      <use transform="translate(120.703125 0.015625)" xlink:href="#DejaVuSans-Oblique-112"/>
      <use transform="translate(184.179688 0.015625)" xlink:href="#DejaVuSans-40"/>
      <use transform="translate(223.193359 0.015625)" xlink:href="#DejaVuSans-8722"/>
      <use transform="translate(306.982422 0.015625)" xlink:href="#DejaVuSans-Oblique-69"/>
      <use transform="translate(370.166016 0.015625)" xlink:href="#DejaVuSans-47"/>
      <use transform="translate(403.857422 0.015625)" xlink:href="#DejaVuSans-Oblique-107"/>
      <use transform="translate(461.767578 -16.390625)scale(0.7)" xlink:href="#DejaVuSans-Oblique-66"/>
      <use transform="translate(512.524414 0.015625)" xlink:href="#DejaVuSans-Oblique-84"/>
      <use transform="translate(573.608398 0.015625)" xlink:href="#DejaVuSans-41"/>
     </g>
    </g>
   </g>
   <g id="line2d_20">
    <path clip-path="url(#p3ce33c82b1)" d="M 65.383807 97.448919 
L 68.458187 116.616194 
L 71.532567 129.464403 
L 74.606947 138.076815 
L 77.681327 143.849887 
L 80.755708 147.719693 
L 83.830088 150.313702 
L 86.904468 152.052518 
L 89.978848 153.218081 
L 93.053228 153.999381 
L 96.127608 154.523103 
L 99.201989 154.874163 
L 102.276369 155.109487 
L 105.350749 155.267228 
L 108.425129 155.372966 
L 111.499509 155.443844 
L 114.573889 155.491355 
L 117.64827 155.523202 
L 120.72265 155.54455 
L 123.79703 155.55886 
L 126.87141 155.568453 
L 129.94579 155.574883 
L 133.02017 155.579193 
L 136.094551 155.582082 
L 139.168931 155.584019 
L 142.243311 155.585317 
L 145.317691 155.586187 
L 148.392071 155.58677 
L 151.466451 155.587161 
L 154.540832 155.587423 
L 157.615212 155.587599 
L 160.689592 155.587717 
L 163.763972 155.587796 
L 166.838352 155.587849 
L 169.912732 155.587884 
L 172.987113 155.587908 
L 176.061493 155.587924 
L 179.135873 155.587934 
L 182.210253 155.587942 
L 185.284633 155.587946 
L 188.359013 155.58795 
L 191.433394 155.587952 
L 194.507774 155.587953 
L 197.582154 155.587954 
L 200.656534 155.587955 
L 203.730914 155.587955 
L 206.805294 155.587956 
L 209.879675 155.587956 
L 212.954055 155.587956 
L 216.028435 155.587956 
L 219.102815 155.587956 
L 222.177195 155.587956 
L 225.251575 155.587956 
L 228.325956 155.587956 
L 231.400336 155.587956 
L 234.474716 155.587956 
L 237.549096 155.587956 
L 240.623476 155.587956 
L 243.697856 155.587956 
L 246.772237 155.587956 
L 249.846617 155.587956 
L 252.920997 155.587956 
L 255.995377 155.587956 
L 259.069757 155.587956 
L 262.144137 155.587956 
L 265.218518 155.587956 
L 268.292898 155.587956 
L 271.367278 155.587956 
L 274.441658 155.587956 
L 277.516038 155.587956 
L 280.590418 155.587956 
L 283.664799 155.587956 
L 286.739179 155.587956 
L 289.813559 155.587956 
L 292.887939 155.587956 
L 295.962319 155.587956 
L 299.036699 155.587956 
L 302.11108 155.587956 
L 305.18546 155.587956 
L 308.25984 155.587956 
L 311.33422 155.587956 
L 314.4086 155.587956 
L 317.48298 155.587956 
L 320.557361 155.587956 
L 323.631741 155.587956 
L 326.706121 155.587956 
L 329.780501 155.587956 
L 332.854881 155.587956 
L 335.929261 155.587956 
L 339.003642 155.587956 
L 342.078022 155.587956 
L 345.152402 155.587956 
L 348.226782 155.587956 
L 351.301162 155.587956 
L 354.375542 155.587956 
L 357.449923 155.587956 
L 360.524303 155.587956 
L 363.598683 155.587956 
L 366.673063 155.587956 
L 369.747443 155.587956 
" style="fill:none;stroke:#1f77b4;stroke-linecap:square;stroke-width:1.5;"/>
   </g>
   <g id="patch_8">
    <path d="M 50.165625 158.494908 
L 50.165625 94.541967 
" style="fill:none;stroke:#000000;stroke-linecap:square;stroke-linejoin:miter;stroke-width:0.8;"/>
   </g>
   <g id="patch_9">
    <path d="M 384.965625 158.494908 
L 384.965625 94.541967 
" style="fill:none;stroke:#000000;stroke-linecap:square;stroke-linejoin:miter;stroke-width:0.8;"/>
   </g>
   <g id="patch_10">
    <path d="M 50.165625 158.494908 
L 384.965625 158.494908 
" style="fill:none;stroke:#000000;stroke-linecap:square;stroke-linejoin:miter;stroke-width:0.8;"/>
   </g>
   <g id="patch_11">
    <path d="M 50.165625 94.541967 
L 384.965625 94.541967 
" style="fill:none;stroke:#000000;stroke-linecap:square;stroke-linejoin:miter;stroke-width:0.8;"/>
   </g>
  </g>
  <g id="axes_3">
   <g id="patch_12">
    <path d="M 50.165625 235.238438 
L 384.965625 235.238438 
L 384.965625 171.285496 
L 50.165625 171.285496 
z
" style="fill:#ffffff;"/>
   </g>
   <g id="matplotlib.axis_5">
    <g id="xtick_13">
     <g id="line2d_21">
      <g>
       <use style="stroke:#000000;stroke-width:0.8;" x="62.309427" xlink:href="#m02c3d356fd" y="235.238438"/>
      </g>
     </g>
     <g id="text_10">
      <!-- 0 -->
      <g transform="translate(59.128177 249.836875)scale(0.1 -0.1)">
       <use xlink:href="#DejaVuSans-48"/>
      </g>
     </g>
    </g>
    <g id="xtick_14">
     <g id="line2d_22">
      <g>
       <use style="stroke:#000000;stroke-width:0.8;" x="123.79703" xlink:href="#m02c3d356fd" y="235.238438"/>
      </g>
     </g>
     <g id="text_11">
      <!-- 20 -->
      <g transform="translate(117.43453 249.836875)scale(0.1 -0.1)">
       <use xlink:href="#DejaVuSans-50"/>
       <use x="63.623047" xlink:href="#DejaVuSans-48"/>
      </g>
     </g>
    </g>
    <g id="xtick_15">
     <g id="line2d_23">
      <g>
       <use style="stroke:#000000;stroke-width:0.8;" x="185.284633" xlink:href="#m02c3d356fd" y="235.238438"/>
      </g>
     </g>
     <g id="text_12">
      <!-- 40 -->
      <g transform="translate(178.922133 249.836875)scale(0.1 -0.1)">
       <defs>
        <path d="M 37.796875 64.3125 
L 12.890625 25.390625 
L 37.796875 25.390625 
z
M 35.203125 72.90625 
L 47.609375 72.90625 
L 47.609375 25.390625 
L 58.015625 25.390625 
L 58.015625 17.1875 
L 47.609375 17.1875 
L 47.609375 0 
L 37.796875 0 
L 37.796875 17.1875 
L 4.890625 17.1875 
L 4.890625 26.703125 
z
" id="DejaVuSans-52"/>
       </defs>
       <use xlink:href="#DejaVuSans-52"/>
       <use x="63.623047" xlink:href="#DejaVuSans-48"/>
      </g>
     </g>
    </g>
    <g id="xtick_16">
     <g id="line2d_24">
      <g>
       <use style="stroke:#000000;stroke-width:0.8;" x="246.772237" xlink:href="#m02c3d356fd" y="235.238438"/>
      </g>
     </g>
     <g id="text_13">
      <!-- 60 -->
      <g transform="translate(240.409737 249.836875)scale(0.1 -0.1)">
       <defs>
        <path d="M 33.015625 40.375 
Q 26.375 40.375 22.484375 35.828125 
Q 18.609375 31.296875 18.609375 23.390625 
Q 18.609375 15.53125 22.484375 10.953125 
Q 26.375 6.390625 33.015625 6.390625 
Q 39.65625 6.390625 43.53125 10.953125 
Q 47.40625 15.53125 47.40625 23.390625 
Q 47.40625 31.296875 43.53125 35.828125 
Q 39.65625 40.375 33.015625 40.375 
z
M 52.59375 71.296875 
L 52.59375 62.3125 
Q 48.875 64.0625 45.09375 64.984375 
Q 41.3125 65.921875 37.59375 65.921875 
Q 27.828125 65.921875 22.671875 59.328125 
Q 17.53125 52.734375 16.796875 39.40625 
Q 19.671875 43.65625 24.015625 45.921875 
Q 28.375 48.1875 33.59375 48.1875 
Q 44.578125 48.1875 50.953125 41.515625 
Q 57.328125 34.859375 57.328125 23.390625 
Q 57.328125 12.15625 50.6875 5.359375 
Q 44.046875 -1.421875 33.015625 -1.421875 
Q 20.359375 -1.421875 13.671875 8.265625 
Q 6.984375 17.96875 6.984375 36.375 
Q 6.984375 53.65625 15.1875 63.9375 
Q 23.390625 74.21875 37.203125 74.21875 
Q 40.921875 74.21875 44.703125 73.484375 
Q 48.484375 72.75 52.59375 71.296875 
z
" id="DejaVuSans-54"/>
       </defs>
       <use xlink:href="#DejaVuSans-54"/>
       <use x="63.623047" xlink:href="#DejaVuSans-48"/>
      </g>
     </g>
    </g>
    <g id="xtick_17">
     <g id="line2d_25">
      <g>
       <use style="stroke:#000000;stroke-width:0.8;" x="308.25984" xlink:href="#m02c3d356fd" y="235.238438"/>
      </g>
     </g>
     <g id="text_14">
      <!-- 80 -->
      <g transform="translate(301.89734 249.836875)scale(0.1 -0.1)">
       <defs>
        <path d="M 31.78125 34.625 
Q 24.75 34.625 20.71875 30.859375 
Q 16.703125 27.09375 16.703125 20.515625 
Q 16.703125 13.921875 20.71875 10.15625 
Q 24.75 6.390625 31.78125 6.390625 
Q 38.8125 6.390625 42.859375 10.171875 
Q 46.921875 13.96875 46.921875 20.515625 
Q 46.921875 27.09375 42.890625 30.859375 
Q 38.875 34.625 31.78125 34.625 
z
M 21.921875 38.8125 
Q 15.578125 40.375 12.03125 44.71875 
Q 8.5 49.078125 8.5 55.328125 
Q 8.5 64.0625 14.71875 69.140625 
Q 20.953125 74.21875 31.78125 74.21875 
Q 42.671875 74.21875 48.875 69.140625 
Q 55.078125 64.0625 55.078125 55.328125 
Q 55.078125 49.078125 51.53125 44.71875 
Q 48 40.375 41.703125 38.8125 
Q 48.828125 37.15625 52.796875 32.3125 
Q 56.78125 27.484375 56.78125 20.515625 
Q 56.78125 9.90625 50.3125 4.234375 
Q 43.84375 -1.421875 31.78125 -1.421875 
Q 19.734375 -1.421875 13.25 4.234375 
Q 6.78125 9.90625 6.78125 20.515625 
Q 6.78125 27.484375 10.78125 32.3125 
Q 14.796875 37.15625 21.921875 38.8125 
z
M 18.3125 54.390625 
Q 18.3125 48.734375 21.84375 45.5625 
Q 25.390625 42.390625 31.78125 42.390625 
Q 38.140625 42.390625 41.71875 45.5625 
Q 45.3125 48.734375 45.3125 54.390625 
Q 45.3125 60.0625 41.71875 63.234375 
Q 38.140625 66.40625 31.78125 66.40625 
Q 25.390625 66.40625 21.84375 63.234375 
Q 18.3125 60.0625 18.3125 54.390625 
z
" id="DejaVuSans-56"/>
       </defs>
       <use xlink:href="#DejaVuSans-56"/>
       <use x="63.623047" xlink:href="#DejaVuSans-48"/>
      </g>
     </g>
    </g>
    <g id="xtick_18">
     <g id="line2d_26">
      <g>
       <use style="stroke:#000000;stroke-width:0.8;" x="369.747443" xlink:href="#m02c3d356fd" y="235.238438"/>
      </g>
     </g>
     <g id="text_15">
      <!-- 100 -->
      <g transform="translate(360.203693 249.836875)scale(0.1 -0.1)">
       <use xlink:href="#DejaVuSans-49"/>
       <use x="63.623047" xlink:href="#DejaVuSans-48"/>
       <use x="127.246094" xlink:href="#DejaVuSans-48"/>
      </g>
     </g>
    </g>
    <g id="text_16">
     <!-- $E$ -->
     <g transform="translate(214.365625 263.515)scale(0.1 -0.1)">
      <use transform="translate(0 0.09375)" xlink:href="#DejaVuSans-Oblique-69"/>
     </g>
    </g>
   </g>
   <g id="matplotlib.axis_6">
    <g id="ytick_7">
     <g id="line2d_27">
      <g>
       <use style="stroke:#000000;stroke-width:0.8;" x="50.165625" xlink:href="#mf709bdb2fb" y="232.331486"/>
      </g>
     </g>
     <g id="text_17">
      <!-- 0.0 -->
      <g transform="translate(27.2625 236.130704)scale(0.1 -0.1)">
       <use xlink:href="#DejaVuSans-48"/>
       <use x="63.623047" xlink:href="#DejaVuSans-46"/>
       <use x="95.410156" xlink:href="#DejaVuSans-48"/>
      </g>
     </g>
    </g>
    <g id="ytick_8">
     <g id="line2d_28">
      <g>
       <use style="stroke:#000000;stroke-width:0.8;" x="50.165625" xlink:href="#mf709bdb2fb" y="208.999053"/>
      </g>
     </g>
     <g id="text_18">
      <!-- 0.5 -->
      <g transform="translate(27.2625 212.798272)scale(0.1 -0.1)">
       <use xlink:href="#DejaVuSans-48"/>
       <use x="63.623047" xlink:href="#DejaVuSans-46"/>
       <use x="95.410156" xlink:href="#DejaVuSans-53"/>
      </g>
     </g>
    </g>
    <g id="ytick_9">
     <g id="line2d_29">
      <g>
       <use style="stroke:#000000;stroke-width:0.8;" x="50.165625" xlink:href="#mf709bdb2fb" y="185.666621"/>
      </g>
     </g>
     <g id="text_19">
      <!-- 1.0 -->
      <g transform="translate(27.2625 189.465839)scale(0.1 -0.1)">
       <use xlink:href="#DejaVuSans-49"/>
       <use x="63.623047" xlink:href="#DejaVuSans-46"/>
       <use x="95.410156" xlink:href="#DejaVuSans-48"/>
      </g>
     </g>
    </g>
    <g id="text_20">
     <!-- $\Omega(E) exp(-E/k_B T)$ -->
     <g transform="translate(21.1625 244.811967)rotate(-90)scale(0.1 -0.1)">
      <use transform="translate(0 0.015625)" xlink:href="#DejaVuSans-937"/>
      <use transform="translate(76.416016 0.015625)" xlink:href="#DejaVuSans-40"/>
      <use transform="translate(115.429688 0.015625)" xlink:href="#DejaVuSans-Oblique-69"/>
      <use transform="translate(178.613281 0.015625)" xlink:href="#DejaVuSans-41"/>
      <use transform="translate(217.626953 0.015625)" xlink:href="#DejaVuSans-Oblique-101"/>
      <use transform="translate(279.150391 0.015625)" xlink:href="#DejaVuSans-Oblique-120"/>
      <use transform="translate(338.330078 0.015625)" xlink:href="#DejaVuSans-Oblique-112"/>
      <use transform="translate(401.806641 0.015625)" xlink:href="#DejaVuSans-40"/>
      <use transform="translate(440.820312 0.015625)" xlink:href="#DejaVuSans-8722"/>
      <use transform="translate(524.609375 0.015625)" xlink:href="#DejaVuSans-Oblique-69"/>
      <use transform="translate(587.792969 0.015625)" xlink:href="#DejaVuSans-47"/>
      <use transform="translate(621.484375 0.015625)" xlink:href="#DejaVuSans-Oblique-107"/>
      <use transform="translate(679.394531 -16.390625)scale(0.7)" xlink:href="#DejaVuSans-Oblique-66"/>
      <use transform="translate(730.151367 0.015625)" xlink:href="#DejaVuSans-Oblique-84"/>
      <use transform="translate(791.235352 0.015625)" xlink:href="#DejaVuSans-41"/>
     </g>
    </g>
    <g id="text_21">
     <!-- 1e17 -->
     <g transform="translate(50.165625 168.285496)scale(0.1 -0.1)">
      <defs>
       <path d="M 8.203125 72.90625 
L 55.078125 72.90625 
L 55.078125 68.703125 
L 28.609375 0 
L 18.3125 0 
L 43.21875 64.59375 
L 8.203125 64.59375 
z
" id="DejaVuSans-55"/>
      </defs>
      <use xlink:href="#DejaVuSans-49"/>
      <use x="63.623047" xlink:href="#DejaVuSans-101"/>
      <use x="125.146484" xlink:href="#DejaVuSans-49"/>
      <use x="188.769531" xlink:href="#DejaVuSans-55"/>
     </g>
    </g>
   </g>
   <g id="line2d_30">
    <path clip-path="url(#p02b8e44be5)" d="M 65.383807 232.331486 
L 68.458187 232.331486 
L 71.532567 232.331486 
L 74.606947 232.331486 
L 77.681327 232.331484 
L 80.755708 232.331466 
L 83.830088 232.331351 
L 86.904468 232.330816 
L 89.978848 232.32886 
L 93.053228 232.322939 
L 96.127608 232.307553 
L 99.201989 232.272316 
L 102.276369 232.199718 
L 105.350749 232.063037 
L 108.425129 231.824971 
L 111.499509 231.437552 
L 114.573889 230.843765 
L 117.64827 229.981002 
L 120.72265 228.786161 
L 123.79703 227.201879 
L 126.87141 225.183136 
L 129.94579 222.703426 
L 133.02017 219.759661 
L 136.094551 216.375207 
L 139.168931 212.600657 
L 142.243311 208.512261 
L 145.317691 204.208199 
L 148.392071 199.803117 
L 151.466451 195.42149 
L 154.540832 191.190466 
L 157.615212 187.232804 
L 160.689592 183.66048 
L 163.763972 180.569378 
L 166.838352 178.035363 
L 169.912732 176.111862 
L 172.987113 174.828951 
L 176.061493 174.193826 
L 179.135873 174.192448 
L 182.210253 174.792103 
L 185.284633 175.944592 
L 188.359013 177.589776 
L 191.433394 179.659211 
L 194.507774 182.07967 
L 197.582154 184.776366 
L 200.656534 187.675771 
L 203.730914 190.707945 
L 206.805294 193.808351 
L 209.879675 196.919154 
L 212.954055 199.990045 
L 216.028435 202.978625 
L 219.102815 205.850434 
L 222.177195 208.578678 
L 225.251575 211.143726 
L 228.325956 213.532449 
L 231.400336 215.73746 
L 234.474716 217.756302 
L 237.549096 219.590628 
L 240.623476 221.245407 
L 243.697856 222.728187 
L 246.772237 224.048418 
L 249.846617 225.216858 
L 252.920997 226.245062 
L 255.995377 227.144951 
L 259.069757 227.928463 
L 262.144137 228.607278 
L 265.218518 229.192606 
L 268.292898 229.695033 
L 271.367278 230.124427 
L 274.441658 230.489871 
L 277.516038 230.79964 
L 280.590418 231.061198 
L 283.664799 231.281227 
L 286.739179 231.465653 
L 289.813559 231.6197 
L 292.887939 231.74794 
L 295.962319 231.85435 
L 299.036699 231.942368 
L 302.11108 232.014951 
L 305.18546 232.074629 
L 308.25984 232.123556 
L 311.33422 232.163557 
L 314.4086 232.196173 
L 317.48298 232.222697 
L 320.557361 232.244212 
L 323.631741 232.26162 
L 326.706121 232.275672 
L 329.780501 232.286989 
L 332.854881 232.296081 
L 335.929261 232.303369 
L 339.003642 232.3092 
L 342.078022 232.313854 
L 345.152402 232.317561 
L 348.226782 232.320509 
L 351.301162 232.322847 
L 354.375542 232.324699 
L 357.449923 232.326163 
L 360.524303 232.327318 
L 363.598683 232.328227 
L 366.673063 232.328942 
L 369.747443 232.329503 
" style="fill:none;stroke:#1f77b4;stroke-linecap:square;stroke-width:1.5;"/>
   </g>
   <g id="patch_13">
    <path d="M 50.165625 235.238438 
L 50.165625 171.285496 
" style="fill:none;stroke:#000000;stroke-linecap:square;stroke-linejoin:miter;stroke-width:0.8;"/>
   </g>
   <g id="patch_14">
    <path d="M 384.965625 235.238438 
L 384.965625 171.285496 
" style="fill:none;stroke:#000000;stroke-linecap:square;stroke-linejoin:miter;stroke-width:0.8;"/>
   </g>
   <g id="patch_15">
    <path d="M 50.165625 235.238438 
L 384.965625 235.238438 
" style="fill:none;stroke:#000000;stroke-linecap:square;stroke-linejoin:miter;stroke-width:0.8;"/>
   </g>
   <g id="patch_16">
    <path d="M 50.165625 171.285496 
L 384.965625 171.285496 
" style="fill:none;stroke:#000000;stroke-linecap:square;stroke-linejoin:miter;stroke-width:0.8;"/>
   </g>
  </g>
 </g>
 <defs>
  <clipPath id="p1c00b63c84">
   <rect height="63.952941" width="334.8" x="50.165625" y="17.798438"/>
  </clipPath>
  <clipPath id="p3ce33c82b1">
   <rect height="63.952941" width="334.8" x="50.165625" y="94.541967"/>
  </clipPath>
  <clipPath id="p02b8e44be5">
   <rect height="63.952941" width="334.8" x="50.165625" y="171.285496"/>
  </clipPath>
 </defs>
</svg>
