<?xml version="1.0" encoding="utf-8" standalone="no"?>
<!DOCTYPE svg PUBLIC "-//W3C//DTD SVG 1.1//EN"
  "http://www.w3.org/Graphics/SVG/1.1/DTD/svg11.dtd">
<!-- Created with matplotlib (https://matplotlib.org/) -->
<svg height="272.794688pt" version="1.1" viewBox="0 0 376.240625 272.794688" width="376.240625pt" xmlns="http://www.w3.org/2000/svg" xmlns:xlink="http://www.w3.org/1999/xlink">
 <metadata>
  <rdf:RDF xmlns:cc="http://creativecommons.org/ns#" xmlns:dc="http://purl.org/dc/elements/1.1/" xmlns:rdf="http://www.w3.org/1999/02/22-rdf-syntax-ns#">
   <cc:Work>
    <dc:type rdf:resource="http://purl.org/dc/dcmitype/StillImage"/>
    <dc:date>2021-04-07T13:23:44.359011</dc:date>
    <dc:format>image/svg+xml</dc:format>
    <dc:creator>
     <cc:Agent>
      <dc:title>Matplotlib v3.3.3, https://matplotlib.org/</dc:title>
     </cc:Agent>
    </dc:creator>
   </cc:Work>
  </rdf:RDF>
 </metadata>
 <defs>
  <style type="text/css">*{stroke-linecap:butt;stroke-linejoin:round;}</style>
 </defs>
 <g id="figure_1">
  <g id="patch_1">
   <path d="M 0 272.794688 
L 376.240625 272.794688 
L 376.240625 0 
L 0 0 
z
" style="fill:none;"/>
  </g>
  <g id="axes_1">
   <g id="patch_2">
    <path d="M 34.240625 235.238438 
L 369.040625 235.238438 
L 369.040625 17.798438 
L 34.240625 17.798438 
z
" style="fill:#ffffff;"/>
   </g>
   <g id="matplotlib.axis_1">
    <g id="xtick_1">
     <g id="line2d_1">
      <defs>
       <path d="M 0 0 
L 0 3.5 
" id="m4ebca75fca" style="stroke:#000000;stroke-width:0.8;"/>
      </defs>
      <g>
       <use style="stroke:#000000;stroke-width:0.8;" x="49.357285" xlink:href="#m4ebca75fca" y="235.238438"/>
      </g>
     </g>
     <g id="text_1">
      <!-- 0 -->
      <g transform="translate(46.176035 249.836875)scale(0.1 -0.1)">
       <defs>
        <path d="M 31.78125 66.40625 
Q 24.171875 66.40625 20.328125 58.90625 
Q 16.5 51.421875 16.5 36.375 
Q 16.5 21.390625 20.328125 13.890625 
Q 24.171875 6.390625 31.78125 6.390625 
Q 39.453125 6.390625 43.28125 13.890625 
Q 47.125 21.390625 47.125 36.375 
Q 47.125 51.421875 43.28125 58.90625 
Q 39.453125 66.40625 31.78125 66.40625 
z
M 31.78125 74.21875 
Q 44.046875 74.21875 50.515625 64.515625 
Q 56.984375 54.828125 56.984375 36.375 
Q 56.984375 17.96875 50.515625 8.265625 
Q 44.046875 -1.421875 31.78125 -1.421875 
Q 19.53125 -1.421875 13.0625 8.265625 
Q 6.59375 17.96875 6.59375 36.375 
Q 6.59375 54.828125 13.0625 64.515625 
Q 19.53125 74.21875 31.78125 74.21875 
z
" id="DejaVuSans-48"/>
       </defs>
       <use xlink:href="#DejaVuSans-48"/>
      </g>
     </g>
    </g>
    <g id="xtick_2">
     <g id="line2d_2">
      <g>
       <use style="stroke:#000000;stroke-width:0.8;" x="100.118398" xlink:href="#m4ebca75fca" y="235.238438"/>
      </g>
     </g>
     <g id="text_2">
      <!-- 500 -->
      <g transform="translate(90.574648 249.836875)scale(0.1 -0.1)">
       <defs>
        <path d="M 10.796875 72.90625 
L 49.515625 72.90625 
L 49.515625 64.59375 
L 19.828125 64.59375 
L 19.828125 46.734375 
Q 21.96875 47.46875 24.109375 47.828125 
Q 26.265625 48.1875 28.421875 48.1875 
Q 40.625 48.1875 47.75 41.5 
Q 54.890625 34.8125 54.890625 23.390625 
Q 54.890625 11.625 47.5625 5.09375 
Q 40.234375 -1.421875 26.90625 -1.421875 
Q 22.3125 -1.421875 17.546875 -0.640625 
Q 12.796875 0.140625 7.71875 1.703125 
L 7.71875 11.625 
Q 12.109375 9.234375 16.796875 8.0625 
Q 21.484375 6.890625 26.703125 6.890625 
Q 35.15625 6.890625 40.078125 11.328125 
Q 45.015625 15.765625 45.015625 23.390625 
Q 45.015625 31 40.078125 35.4375 
Q 35.15625 39.890625 26.703125 39.890625 
Q 22.75 39.890625 18.8125 39.015625 
Q 14.890625 38.140625 10.796875 36.28125 
z
" id="DejaVuSans-53"/>
       </defs>
       <use xlink:href="#DejaVuSans-53"/>
       <use x="63.623047" xlink:href="#DejaVuSans-48"/>
       <use x="127.246094" xlink:href="#DejaVuSans-48"/>
      </g>
     </g>
    </g>
    <g id="xtick_3">
     <g id="line2d_3">
      <g>
       <use style="stroke:#000000;stroke-width:0.8;" x="150.879512" xlink:href="#m4ebca75fca" y="235.238438"/>
      </g>
     </g>
     <g id="text_3">
      <!-- 1000 -->
      <g transform="translate(138.154512 249.836875)scale(0.1 -0.1)">
       <defs>
        <path d="M 12.40625 8.296875 
L 28.515625 8.296875 
L 28.515625 63.921875 
L 10.984375 60.40625 
L 10.984375 69.390625 
L 28.421875 72.90625 
L 38.28125 72.90625 
L 38.28125 8.296875 
L 54.390625 8.296875 
L 54.390625 0 
L 12.40625 0 
z
" id="DejaVuSans-49"/>
       </defs>
       <use xlink:href="#DejaVuSans-49"/>
       <use x="63.623047" xlink:href="#DejaVuSans-48"/>
       <use x="127.246094" xlink:href="#DejaVuSans-48"/>
       <use x="190.869141" xlink:href="#DejaVuSans-48"/>
      </g>
     </g>
    </g>
    <g id="xtick_4">
     <g id="line2d_4">
      <g>
       <use style="stroke:#000000;stroke-width:0.8;" x="201.640625" xlink:href="#m4ebca75fca" y="235.238438"/>
      </g>
     </g>
     <g id="text_4">
      <!-- 1500 -->
      <g transform="translate(188.915625 249.836875)scale(0.1 -0.1)">
       <use xlink:href="#DejaVuSans-49"/>
       <use x="63.623047" xlink:href="#DejaVuSans-53"/>
       <use x="127.246094" xlink:href="#DejaVuSans-48"/>
       <use x="190.869141" xlink:href="#DejaVuSans-48"/>
      </g>
     </g>
    </g>
    <g id="xtick_5">
     <g id="line2d_5">
      <g>
       <use style="stroke:#000000;stroke-width:0.8;" x="252.401738" xlink:href="#m4ebca75fca" y="235.238438"/>
      </g>
     </g>
     <g id="text_5">
      <!-- 2000 -->
      <g transform="translate(239.676738 249.836875)scale(0.1 -0.1)">
       <defs>
        <path d="M 19.1875 8.296875 
L 53.609375 8.296875 
L 53.609375 0 
L 7.328125 0 
L 7.328125 8.296875 
Q 12.9375 14.109375 22.625 23.890625 
Q 32.328125 33.6875 34.8125 36.53125 
Q 39.546875 41.84375 41.421875 45.53125 
Q 43.3125 49.21875 43.3125 52.78125 
Q 43.3125 58.59375 39.234375 62.25 
Q 35.15625 65.921875 28.609375 65.921875 
Q 23.96875 65.921875 18.8125 64.3125 
Q 13.671875 62.703125 7.8125 59.421875 
L 7.8125 69.390625 
Q 13.765625 71.78125 18.9375 73 
Q 24.125 74.21875 28.421875 74.21875 
Q 39.75 74.21875 46.484375 68.546875 
Q 53.21875 62.890625 53.21875 53.421875 
Q 53.21875 48.921875 51.53125 44.890625 
Q 49.859375 40.875 45.40625 35.40625 
Q 44.1875 33.984375 37.640625 27.21875 
Q 31.109375 20.453125 19.1875 8.296875 
z
" id="DejaVuSans-50"/>
       </defs>
       <use xlink:href="#DejaVuSans-50"/>
       <use x="63.623047" xlink:href="#DejaVuSans-48"/>
       <use x="127.246094" xlink:href="#DejaVuSans-48"/>
       <use x="190.869141" xlink:href="#DejaVuSans-48"/>
      </g>
     </g>
    </g>
    <g id="xtick_6">
     <g id="line2d_6">
      <g>
       <use style="stroke:#000000;stroke-width:0.8;" x="303.162852" xlink:href="#m4ebca75fca" y="235.238438"/>
      </g>
     </g>
     <g id="text_6">
      <!-- 2500 -->
      <g transform="translate(290.437852 249.836875)scale(0.1 -0.1)">
       <use xlink:href="#DejaVuSans-50"/>
       <use x="63.623047" xlink:href="#DejaVuSans-53"/>
       <use x="127.246094" xlink:href="#DejaVuSans-48"/>
       <use x="190.869141" xlink:href="#DejaVuSans-48"/>
      </g>
     </g>
    </g>
    <g id="xtick_7">
     <g id="line2d_7">
      <g>
       <use style="stroke:#000000;stroke-width:0.8;" x="353.923965" xlink:href="#m4ebca75fca" y="235.238438"/>
      </g>
     </g>
     <g id="text_7">
      <!-- 3000 -->
      <g transform="translate(341.198965 249.836875)scale(0.1 -0.1)">
       <defs>
        <path d="M 40.578125 39.3125 
Q 47.65625 37.796875 51.625 33 
Q 55.609375 28.21875 55.609375 21.1875 
Q 55.609375 10.40625 48.1875 4.484375 
Q 40.765625 -1.421875 27.09375 -1.421875 
Q 22.515625 -1.421875 17.65625 -0.515625 
Q 12.796875 0.390625 7.625 2.203125 
L 7.625 11.71875 
Q 11.71875 9.328125 16.59375 8.109375 
Q 21.484375 6.890625 26.8125 6.890625 
Q 36.078125 6.890625 40.9375 10.546875 
Q 45.796875 14.203125 45.796875 21.1875 
Q 45.796875 27.640625 41.28125 31.265625 
Q 36.765625 34.90625 28.71875 34.90625 
L 20.21875 34.90625 
L 20.21875 43.015625 
L 29.109375 43.015625 
Q 36.375 43.015625 40.234375 45.921875 
Q 44.09375 48.828125 44.09375 54.296875 
Q 44.09375 59.90625 40.109375 62.90625 
Q 36.140625 65.921875 28.71875 65.921875 
Q 24.65625 65.921875 20.015625 65.03125 
Q 15.375 64.15625 9.8125 62.3125 
L 9.8125 71.09375 
Q 15.4375 72.65625 20.34375 73.4375 
Q 25.25 74.21875 29.59375 74.21875 
Q 40.828125 74.21875 47.359375 69.109375 
Q 53.90625 64.015625 53.90625 55.328125 
Q 53.90625 49.265625 50.4375 45.09375 
Q 46.96875 40.921875 40.578125 39.3125 
z
" id="DejaVuSans-51"/>
       </defs>
       <use xlink:href="#DejaVuSans-51"/>
       <use x="63.623047" xlink:href="#DejaVuSans-48"/>
       <use x="127.246094" xlink:href="#DejaVuSans-48"/>
       <use x="190.869141" xlink:href="#DejaVuSans-48"/>
      </g>
     </g>
    </g>
    <g id="text_8">
     <!-- $\lambda$ -->
     <g transform="translate(198.640625 263.515)scale(0.1 -0.1)">
      <defs>
       <path d="M 36.71875 67.4375 
L 48.828125 0 
L 39.3125 0 
L 31.84375 40.4375 
L 5.125 0 
L -4.390625 0 
L 29.734375 52.4375 
L 28.03125 62.109375 
Q 26.953125 68.265625 21.734375 68.265625 
L 17.046875 68.265625 
L 18.5 75.984375 
L 24.21875 75.875 
Q 35.203125 75.734375 36.71875 67.4375 
z
" id="DejaVuSans-Oblique-955"/>
      </defs>
      <use transform="translate(0 0.015625)" xlink:href="#DejaVuSans-Oblique-955"/>
     </g>
    </g>
   </g>
   <g id="matplotlib.axis_2">
    <g id="ytick_1">
     <g id="line2d_8">
      <defs>
       <path d="M 0 0 
L -3.5 0 
" id="m37e0c86f87" style="stroke:#000000;stroke-width:0.8;"/>
      </defs>
      <g>
       <use style="stroke:#000000;stroke-width:0.8;" x="34.240625" xlink:href="#m37e0c86f87" y="225.354801"/>
      </g>
     </g>
     <g id="text_9">
      <!-- 0 -->
      <g transform="translate(20.878125 229.15402)scale(0.1 -0.1)">
       <use xlink:href="#DejaVuSans-48"/>
      </g>
     </g>
    </g>
    <g id="ytick_2">
     <g id="line2d_9">
      <g>
       <use style="stroke:#000000;stroke-width:0.8;" x="34.240625" xlink:href="#m37e0c86f87" y="196.638327"/>
      </g>
     </g>
     <g id="text_10">
      <!-- 1 -->
      <g transform="translate(20.878125 200.437546)scale(0.1 -0.1)">
       <use xlink:href="#DejaVuSans-49"/>
      </g>
     </g>
    </g>
    <g id="ytick_3">
     <g id="line2d_10">
      <g>
       <use style="stroke:#000000;stroke-width:0.8;" x="34.240625" xlink:href="#m37e0c86f87" y="167.921854"/>
      </g>
     </g>
     <g id="text_11">
      <!-- 2 -->
      <g transform="translate(20.878125 171.721073)scale(0.1 -0.1)">
       <use xlink:href="#DejaVuSans-50"/>
      </g>
     </g>
    </g>
    <g id="ytick_4">
     <g id="line2d_11">
      <g>
       <use style="stroke:#000000;stroke-width:0.8;" x="34.240625" xlink:href="#m37e0c86f87" y="139.20538"/>
      </g>
     </g>
     <g id="text_12">
      <!-- 3 -->
      <g transform="translate(20.878125 143.004599)scale(0.1 -0.1)">
       <use xlink:href="#DejaVuSans-51"/>
      </g>
     </g>
    </g>
    <g id="ytick_5">
     <g id="line2d_12">
      <g>
       <use style="stroke:#000000;stroke-width:0.8;" x="34.240625" xlink:href="#m37e0c86f87" y="110.488907"/>
      </g>
     </g>
     <g id="text_13">
      <!-- 4 -->
      <g transform="translate(20.878125 114.288125)scale(0.1 -0.1)">
       <defs>
        <path d="M 37.796875 64.3125 
L 12.890625 25.390625 
L 37.796875 25.390625 
z
M 35.203125 72.90625 
L 47.609375 72.90625 
L 47.609375 25.390625 
L 58.015625 25.390625 
L 58.015625 17.1875 
L 47.609375 17.1875 
L 47.609375 0 
L 37.796875 0 
L 37.796875 17.1875 
L 4.890625 17.1875 
L 4.890625 26.703125 
z
" id="DejaVuSans-52"/>
       </defs>
       <use xlink:href="#DejaVuSans-52"/>
      </g>
     </g>
    </g>
    <g id="ytick_6">
     <g id="line2d_13">
      <g>
       <use style="stroke:#000000;stroke-width:0.8;" x="34.240625" xlink:href="#m37e0c86f87" y="81.772433"/>
      </g>
     </g>
     <g id="text_14">
      <!-- 5 -->
      <g transform="translate(20.878125 85.571652)scale(0.1 -0.1)">
       <use xlink:href="#DejaVuSans-53"/>
      </g>
     </g>
    </g>
    <g id="ytick_7">
     <g id="line2d_14">
      <g>
       <use style="stroke:#000000;stroke-width:0.8;" x="34.240625" xlink:href="#m37e0c86f87" y="53.055959"/>
      </g>
     </g>
     <g id="text_15">
      <!-- 6 -->
      <g transform="translate(20.878125 56.855178)scale(0.1 -0.1)">
       <defs>
        <path d="M 33.015625 40.375 
Q 26.375 40.375 22.484375 35.828125 
Q 18.609375 31.296875 18.609375 23.390625 
Q 18.609375 15.53125 22.484375 10.953125 
Q 26.375 6.390625 33.015625 6.390625 
Q 39.65625 6.390625 43.53125 10.953125 
Q 47.40625 15.53125 47.40625 23.390625 
Q 47.40625 31.296875 43.53125 35.828125 
Q 39.65625 40.375 33.015625 40.375 
z
M 52.59375 71.296875 
L 52.59375 62.3125 
Q 48.875 64.0625 45.09375 64.984375 
Q 41.3125 65.921875 37.59375 65.921875 
Q 27.828125 65.921875 22.671875 59.328125 
Q 17.53125 52.734375 16.796875 39.40625 
Q 19.671875 43.65625 24.015625 45.921875 
Q 28.375 48.1875 33.59375 48.1875 
Q 44.578125 48.1875 50.953125 41.515625 
Q 57.328125 34.859375 57.328125 23.390625 
Q 57.328125 12.15625 50.6875 5.359375 
Q 44.046875 -1.421875 33.015625 -1.421875 
Q 20.359375 -1.421875 13.671875 8.265625 
Q 6.984375 17.96875 6.984375 36.375 
Q 6.984375 53.65625 15.1875 63.9375 
Q 23.390625 74.21875 37.203125 74.21875 
Q 40.921875 74.21875 44.703125 73.484375 
Q 48.484375 72.75 52.59375 71.296875 
z
" id="DejaVuSans-54"/>
       </defs>
       <use xlink:href="#DejaVuSans-54"/>
      </g>
     </g>
    </g>
    <g id="ytick_8">
     <g id="line2d_15">
      <g>
       <use style="stroke:#000000;stroke-width:0.8;" x="34.240625" xlink:href="#m37e0c86f87" y="24.339486"/>
      </g>
     </g>
     <g id="text_16">
      <!-- 7 -->
      <g transform="translate(20.878125 28.138704)scale(0.1 -0.1)">
       <defs>
        <path d="M 8.203125 72.90625 
L 55.078125 72.90625 
L 55.078125 68.703125 
L 28.609375 0 
L 18.3125 0 
L 43.21875 64.59375 
L 8.203125 64.59375 
z
" id="DejaVuSans-55"/>
       </defs>
       <use xlink:href="#DejaVuSans-55"/>
      </g>
     </g>
    </g>
    <g id="text_17">
     <!-- $(\lambda, T)$ -->
     <g transform="translate(14.798437 139.018438)rotate(-90)scale(0.1 -0.1)">
      <defs>
       <path d="M 31 75.875 
Q 24.46875 64.65625 21.28125 53.65625 
Q 18.109375 42.671875 18.109375 31.390625 
Q 18.109375 20.125 21.3125 9.0625 
Q 24.515625 -2 31 -13.1875 
L 23.1875 -13.1875 
Q 15.875 -1.703125 12.234375 9.375 
Q 8.59375 20.453125 8.59375 31.390625 
Q 8.59375 42.28125 12.203125 53.3125 
Q 15.828125 64.359375 23.1875 75.875 
z
" id="DejaVuSans-40"/>
       <path d="M 11.71875 12.40625 
L 22.015625 12.40625 
L 22.015625 4 
L 14.015625 -11.625 
L 7.71875 -11.625 
L 11.71875 4 
z
" id="DejaVuSans-44"/>
       <path d="M 5.90625 72.90625 
L 67.578125 72.90625 
L 66.015625 64.59375 
L 39.984375 64.59375 
L 27.484375 0 
L 17.578125 0 
L 30.078125 64.59375 
L 4.296875 64.59375 
z
" id="DejaVuSans-Oblique-84"/>
       <path d="M 8.015625 75.875 
L 15.828125 75.875 
Q 23.140625 64.359375 26.78125 53.3125 
Q 30.421875 42.28125 30.421875 31.390625 
Q 30.421875 20.453125 26.78125 9.375 
Q 23.140625 -1.703125 15.828125 -13.1875 
L 8.015625 -13.1875 
Q 14.5 -2 17.703125 9.0625 
Q 20.90625 20.125 20.90625 31.390625 
Q 20.90625 42.671875 17.703125 53.65625 
Q 14.5 64.65625 8.015625 75.875 
z
" id="DejaVuSans-41"/>
      </defs>
      <use transform="translate(0 0.015625)" xlink:href="#DejaVuSans-40"/>
      <use transform="translate(39.013672 0.015625)" xlink:href="#DejaVuSans-Oblique-955"/>
      <use transform="translate(98.193359 0.015625)" xlink:href="#DejaVuSans-44"/>
      <use transform="translate(149.462891 0.015625)" xlink:href="#DejaVuSans-Oblique-84"/>
      <use transform="translate(210.546875 0.015625)" xlink:href="#DejaVuSans-41"/>
     </g>
    </g>
    <g id="text_18">
     <!-- 1e13 -->
     <g transform="translate(34.240625 14.798437)scale(0.1 -0.1)">
      <defs>
       <path d="M 56.203125 29.59375 
L 56.203125 25.203125 
L 14.890625 25.203125 
Q 15.484375 15.921875 20.484375 11.0625 
Q 25.484375 6.203125 34.421875 6.203125 
Q 39.59375 6.203125 44.453125 7.46875 
Q 49.3125 8.734375 54.109375 11.28125 
L 54.109375 2.78125 
Q 49.265625 0.734375 44.1875 -0.34375 
Q 39.109375 -1.421875 33.890625 -1.421875 
Q 20.796875 -1.421875 13.15625 6.1875 
Q 5.515625 13.8125 5.515625 26.8125 
Q 5.515625 40.234375 12.765625 48.109375 
Q 20.015625 56 32.328125 56 
Q 43.359375 56 49.78125 48.890625 
Q 56.203125 41.796875 56.203125 29.59375 
z
M 47.21875 32.234375 
Q 47.125 39.59375 43.09375 43.984375 
Q 39.0625 48.390625 32.421875 48.390625 
Q 24.90625 48.390625 20.390625 44.140625 
Q 15.875 39.890625 15.1875 32.171875 
z
" id="DejaVuSans-101"/>
      </defs>
      <use xlink:href="#DejaVuSans-49"/>
      <use x="63.623047" xlink:href="#DejaVuSans-101"/>
      <use x="125.146484" xlink:href="#DejaVuSans-49"/>
      <use x="188.769531" xlink:href="#DejaVuSans-51"/>
     </g>
    </g>
   </g>
   <g id="line2d_16">
    <path clip-path="url(#p5662244091)" d="M 49.458807 225.354801 
L 73.215008 225.247316 
L 76.666764 224.976258 
L 79.610908 224.521263 
L 82.453531 223.85456 
L 85.499197 222.906783 
L 89.25552 221.488899 
L 101.844276 216.534425 
L 105.600598 215.413692 
L 109.153876 214.583362 
L 112.808676 213.96216 
L 116.564999 213.552858 
L 120.625888 213.340276 
L 125.092866 213.335886 
L 130.168977 213.557668 
L 136.361833 214.0583 
L 144.8897 214.988142 
L 180.320957 219.078097 
L 193.21428 220.220004 
L 206.818259 221.197711 
L 221.742026 222.043354 
L 238.79776 222.780676 
L 258.797639 223.414625 
L 282.959929 223.949852 
L 313.518119 224.393916 
L 353.822443 224.746594 
L 353.822443 224.746594 
" style="fill:none;stroke:#1f77b4;stroke-linecap:square;stroke-width:1.5;"/>
   </g>
   <g id="line2d_17">
    <path clip-path="url(#p5662244091)" d="M 49.458807 225.354801 
L 66.616063 225.2475 
L 68.646508 224.989297 
L 70.270863 224.563776 
L 71.692175 223.969751 
L 73.113486 223.129655 
L 74.534797 222.023084 
L 76.05763 220.540262 
L 77.681986 218.643295 
L 79.610908 216.035965 
L 82.148964 212.201139 
L 89.357042 201.087137 
L 91.692053 198.007172 
L 93.82402 195.563604 
L 95.752942 193.681549 
L 97.580342 192.192236 
L 99.407742 190.983729 
L 101.235143 190.044179 
L 103.062543 189.356917 
L 104.889943 188.902182 
L 106.818865 188.650703 
L 108.84931 188.611437 
L 111.082799 188.800118 
L 113.519332 189.239598 
L 116.260432 189.970278 
L 119.407621 191.045957 
L 123.366988 192.649806 
L 128.950711 195.178255 
L 144.483611 202.327052 
L 150.879512 204.960628 
L 156.970845 207.228047 
L 163.062179 209.256992 
L 169.255035 211.086158 
L 175.752457 212.772165 
L 182.655969 214.32925 
L 189.965569 215.747577 
L 197.884303 217.054836 
L 206.513692 218.251196 
L 216.056781 219.346092 
L 226.716615 220.341066 
L 238.79776 221.240313 
L 252.706305 222.046328 
L 268.949861 222.758472 
L 288.340607 223.379401 
L 312.19833 223.912588 
L 342.553476 224.358327 
L 353.822443 224.47933 
L 353.822443 224.47933 
" style="fill:none;stroke:#ff7f0e;stroke-linecap:square;stroke-width:1.5;"/>
   </g>
   <g id="line2d_18">
    <path clip-path="url(#p5662244091)" d="M 49.458807 225.354801 
L 62.758219 225.24474 
L 64.17953 224.97525 
L 65.194752 224.57379 
L 66.108452 223.990237 
L 67.022152 223.13593 
L 67.935852 221.958732 
L 68.849552 220.417563 
L 69.864774 218.246708 
L 70.981519 215.288646 
L 72.199786 211.403444 
L 73.621097 206.093915 
L 75.448497 198.302266 
L 78.291119 185.006962 
L 81.844397 168.586163 
L 83.976364 159.793356 
L 85.803764 153.204706 
L 87.42812 148.174845 
L 88.950953 144.192757 
L 90.372264 141.113398 
L 91.692053 138.788567 
L 92.91032 137.078933 
L 94.027064 135.859896 
L 95.143809 134.953651 
L 96.260553 134.339288 
L 97.377298 133.995223 
L 98.494042 133.899689 
L 99.610787 134.031117 
L 100.829054 134.40861 
L 102.148843 135.063569 
L 103.570154 136.019587 
L 105.194509 137.384249 
L 107.123432 139.31513 
L 109.356921 141.878615 
L 112.199543 145.50057 
L 116.260432 151.071093 
L 126.818744 165.693376 
L 131.1842 171.273211 
L 135.143566 175.977462 
L 139.001411 180.214002 
L 142.757733 184.008951 
L 146.514056 187.487812 
L 150.270378 190.666331 
L 154.128223 193.638274 
L 158.08759 196.403619 
L 162.148479 198.965781 
L 166.31089 201.330823 
L 170.676346 203.555741 
L 175.244846 205.634172 
L 180.117913 207.601887 
L 185.194024 209.411464 
L 190.676224 211.126476 
L 196.564514 212.730004 
L 202.858892 214.211176 
L 209.762403 215.602328 
L 217.275048 216.885163 
L 225.599871 218.075748 
L 234.838393 219.167289 
L 245.19366 220.162771 
L 256.970239 221.067197 
L 270.574217 221.883266 
L 286.513207 222.609978 
L 305.599385 223.249361 
L 328.949498 223.800079 
L 353.822443 224.203539 
L 353.822443 224.203539 
" style="fill:none;stroke:#2ca02c;stroke-linecap:square;stroke-width:1.5;"/>
   </g>
   <g id="line2d_19">
    <path clip-path="url(#p5662244091)" d="M 49.458807 225.354801 
L 60.220163 225.243974 
L 61.235385 224.988643 
L 62.047563 224.545085 
L 62.758219 223.880072 
L 63.468874 222.859837 
L 64.17953 221.389516 
L 64.890185 219.380209 
L 65.702363 216.327884 
L 66.514541 212.392183 
L 67.428241 206.858186 
L 68.443463 199.343922 
L 69.66173 188.568273 
L 71.184563 172.867938 
L 73.31653 148.234642 
L 77.580464 98.548272 
L 79.407864 80.036626 
L 81.032219 65.827087 
L 82.453531 55.301891 
L 83.77332 47.159981 
L 84.991586 41.016951 
L 86.108331 36.49987 
L 87.123553 33.271619 
L 88.037253 31.040544 
L 88.849431 29.561798 
L 89.661609 28.528668 
L 90.372264 27.967742 
L 91.08292 27.706819 
L 91.692053 27.70741 
L 92.402709 27.952963 
L 93.113364 28.444527 
L 93.925542 29.284353 
L 94.839242 30.552517 
L 95.955987 32.517647 
L 97.275776 35.350736 
L 98.798609 39.192964 
L 100.626009 44.444233 
L 102.96102 51.888247 
L 106.209732 63.058091 
L 116.260432 98.087124 
L 119.81371 109.451547 
L 123.062421 119.131468 
L 126.20961 127.826263 
L 129.255277 135.600026 
L 132.300944 142.761104 
L 135.245089 149.127551 
L 138.189233 154.978946 
L 141.133378 160.349217 
L 144.077522 165.273214 
L 147.123189 169.934105 
L 150.168856 174.191224 
L 153.316045 178.203183 
L 156.463234 181.857369 
L 159.711945 185.289454 
L 163.062179 188.502148 
L 166.513934 191.500186 
L 170.067212 194.289956 
L 173.722013 196.87915 
L 177.579857 199.337813 
L 181.640746 201.656271 
L 185.90468 203.828512 
L 190.371658 205.851786 
L 195.143202 207.76441 
L 200.219314 209.555006 
L 205.599992 211.216736 
L 211.488281 212.797513 
L 217.782659 214.25496 
L 224.686171 215.622416 
L 232.300338 216.898719 
L 240.726682 218.079758 
L 250.066727 219.160497 
L 260.625039 220.153792 
L 272.706184 221.060263 
L 286.614729 221.874325 
L 302.959807 222.600964 
L 322.452075 223.237802 
L 346.411321 223.789363 
L 353.822443 223.922724 
L 353.822443 223.922724 
" style="fill:none;stroke:#d62728;stroke-linecap:square;stroke-width:1.5;"/>
   </g>
   <g id="patch_3">
    <path d="M 34.240625 235.238438 
L 34.240625 17.798438 
" style="fill:none;stroke:#000000;stroke-linecap:square;stroke-linejoin:miter;stroke-width:0.8;"/>
   </g>
   <g id="patch_4">
    <path d="M 369.040625 235.238438 
L 369.040625 17.798438 
" style="fill:none;stroke:#000000;stroke-linecap:square;stroke-linejoin:miter;stroke-width:0.8;"/>
   </g>
   <g id="patch_5">
    <path d="M 34.240625 235.238438 
L 369.040625 235.238438 
" style="fill:none;stroke:#000000;stroke-linecap:square;stroke-linejoin:miter;stroke-width:0.8;"/>
   </g>
   <g id="patch_6">
    <path d="M 34.240625 17.798438 
L 369.040625 17.798438 
" style="fill:none;stroke:#000000;stroke-linecap:square;stroke-linejoin:miter;stroke-width:0.8;"/>
   </g>
  </g>
 </g>
 <defs>
  <clipPath id="p5662244091">
   <rect height="217.44" width="334.8" x="34.240625" y="17.798438"/>
  </clipPath>
 </defs>
</svg>